<?xml version="1.0" standalone="no"?>
<!DOCTYPE svg PUBLIC "-//W3C//DTD SVG 20010904//EN"
 "http://www.w3.org/TR/2001/REC-SVG-20010904/DTD/svg10.dtd">
<svg version="1.0" xmlns="http://www.w3.org/2000/svg"
 width="300.000000pt" height="312.000000pt" viewBox="0 0 300.000000 312.000000"
 preserveAspectRatio="xMidYMid meet">
<metadata>
Created by potrace 1.10, written by Peter Selinger 2001-2011
</metadata>
<g transform="translate(0.000000,312.000000) scale(0.100000,-0.100000)"
fill="#000000" stroke="none">
<path d="M1233 3091 c-95 -13 -127 -21 -145 -38 -13 -11 -56 -37 -96 -56 -85
-42 -97 -50 -170 -114 -107 -93 -182 -172 -182 -191 0 -11 -15 -30 -36 -43
-61 -41 -154 -197 -154 -258 0 -15 -5 -32 -12 -39 -6 -6 -25 -64 -42 -129 -28
-106 -34 -120 -63 -138 -60 -38 -70 -101 -23 -143 17 -15 30 -31 30 -37 0 -6
10 -28 21 -50 21 -38 22 -53 23 -370 1 -360 1 -359 -58 -414 l-26 -24 6 -151
c3 -83 2 -178 -3 -211 l-9 -60 -34 118 c-19 65 -37 123 -42 130 -16 26 -20 -7
-10 -90 6 -48 8 -90 6 -93 -3 -2 -30 22 -60 54 -31 32 -57 56 -59 54 -2 -2 20
-51 50 -108 30 -58 54 -108 55 -112 0 -4 -28 10 -62 32 -33 22 -65 40 -70 40
-6 0 5 -18 24 -41 18 -22 43 -56 56 -75 12 -19 29 -34 37 -34 28 0 15 -18 -17
-24 -18 -4 -44 -15 -58 -26 -22 -17 -23 -22 -12 -39 25 -42 16 -69 -33 -90
-57 -25 -58 -41 -2 -41 54 0 220 -34 211 -43 -4 -4 -18 -7 -31 -7 -13 0 -23
-5 -23 -11 0 -7 31 -8 103 -2 146 12 352 10 572 -5 225 -15 275 -20 275 -32 0
-4 -19 -16 -42 -26 -62 -26 -23 -29 94 -9 134 24 236 34 291 28 50 -6 58 -15
30 -32 -16 -9 -15 -10 7 -10 14 0 43 4 65 9 95 23 172 29 269 20 104 -10 120
-15 96 -30 -32 -19 5 -22 127 -9 115 12 124 14 91 23 -44 11 -50 26 -10 26 47
1 225 20 246 26 21 7 21 7 1 15 -11 4 -41 8 -67 8 -27 1 -48 5 -48 10 0 16 61
31 218 51 170 23 205 33 151 44 -52 11 -20 21 118 40 68 9 129 19 138 22 44
17 -17 58 -108 73 -41 7 -82 18 -92 25 -15 11 -12 17 30 64 26 29 43 52 39 52
-4 0 -27 -12 -51 -26 -24 -14 -48 -24 -54 -22 -10 3 72 129 122 186 60 68 16
46 -77 -39 -37 -32 -70 -59 -74 -59 -4 0 1 34 12 76 10 42 17 81 15 87 -2 6
-23 -26 -48 -71 -71 -133 -81 -117 -87 143 l-4 190 -38 40 -39 40 -1 265 c-2
337 6 474 31 516 11 17 19 37 19 44 0 7 11 21 24 31 46 36 41 120 -9 139 -13
5 -27 20 -29 32 -3 13 -12 59 -20 103 -9 44 -24 91 -34 105 -10 14 -22 40 -25
58 -16 79 -105 220 -158 250 -16 10 -29 23 -29 30 0 20 -115 127 -188 175 -44
28 -108 56 -187 81 -66 21 -142 49 -170 62 -27 12 -70 26 -95 29 -25 4 -81 16
-125 26 -92 22 -100 22 -262 0z m217 -56 c10 -12 10 -21 1 -38 -6 -12 -22 -78
-36 -146 -14 -69 -30 -128 -36 -132 -6 -3 -41 -9 -78 -13 -36 -4 -76 -9 -88
-12 -15 -4 -25 0 -32 15 -16 30 -51 206 -51 257 0 53 10 59 128 73 126 14 178
13 192 -4z m223 -40 c27 -11 20 -46 -28 -143 -25 -50 -45 -99 -45 -109 0 -10
-9 -29 -19 -42 -16 -21 -23 -23 -61 -17 -75 12 -83 20 -76 79 11 87 48 209 69
230 17 17 29 19 81 14 34 -3 69 -9 79 -12z m-609 -67 c14 -24 56 -190 56 -226
0 -24 -75 -72 -113 -72 -20 0 -30 13 -65 85 -71 144 -69 160 20 204 73 37 83
38 102 9z m756 -24 c34 -23 119 -105 131 -127 8 -14 1 -28 -36 -72 -26 -29
-75 -79 -110 -110 l-64 -55 -60 50 c-37 31 -61 58 -61 71 0 22 32 89 92 192
42 73 61 82 108 51z m-960 -123 c15 -28 12 -58 -7 -89 -10 -17 -11 -22 -3 -14
28 24 50 14 72 -34 23 -54 18 -71 -38 -125 l-34 -33 -31 30 c-54 50 -129 144
-129 161 0 9 25 41 55 70 59 57 96 68 115 34z m1180 -117 c55 -60 85 -126 69
-155 -14 -27 -192 -112 -237 -113 -31 -1 -37 4 -64 52 l-31 53 99 103 c55 57
104 104 110 105 6 0 30 -20 54 -45z m-1288 -147 l67 -62 -40 -63 c-22 -35 -46
-62 -52 -59 -7 2 -54 15 -105 28 -59 15 -97 30 -103 41 -11 20 47 137 88 180
25 26 27 27 52 12 14 -9 56 -44 93 -77z m894 23 c87 -66 180 -216 191 -309 5
-46 4 -48 -25 -60 -51 -21 -59 -105 -14 -149 26 -26 48 -60 72 -112 14 -30 26
-557 16 -672 -6 -60 -14 -87 -36 -120 -18 -28 -30 -63 -34 -99 -12 -98 3 -94
-371 -94 -178 0 -327 3 -330 7 -4 4 -11 28 -16 55 -6 28 -20 58 -35 74 -24 25
-26 35 -35 190 -6 90 -9 245 -7 344 4 199 12 233 69 284 50 46 39 123 -21 143
-7 2 -6 32 1 88 8 65 17 96 39 130 16 25 35 67 42 93 7 28 21 53 32 59 10 6
54 38 97 72 169 133 263 153 365 76z m534 -119 c15 -30 13 -38 -26 -81 -43
-47 -40 -62 4 -25 16 14 34 25 40 25 5 0 12 -21 16 -46 11 -85 16 -80 -86 -88
-51 -3 -121 -12 -156 -20 -34 -7 -65 -10 -67 -6 -11 17 -25 114 -19 132 8 26
55 56 147 94 95 39 132 43 147 15z m-1542 -116 c80 -27 86 -42 42 -96 -28 -36
-29 -39 -10 -39 25 0 25 -11 2 -40 -16 -20 -33 -24 -122 -31 -57 -5 -108 -5
-112 -1 -19 19 28 217 55 234 15 10 61 1 145 -27z m302 -30 c0 -8 -7 -15 -15
-15 -16 0 -20 12 -8 23 11 12 23 8 23 -8z m1308 -144 c2 -13 0 -27 -5 -32 -5
-5 -64 -12 -131 -14 -67 -3 -133 -10 -147 -15 -29 -11 -115 -13 -139 -4 -21 8
-21 40 0 48 24 9 362 45 399 42 13 -1 21 -9 23 -25z m-1544 -87 c9 -3 16 -14
16 -25 0 -19 -48 -34 -105 -31 -55 3 -79 2 -172 -4 -81 -5 -94 -4 -99 11 -12
31 14 38 158 45 79 4 153 8 165 8 12 1 28 -1 37 -4z m1494 -46 c-6 -18 -62
-27 -195 -30 -99 -3 -118 -1 -118 12 0 21 41 27 188 29 97 1 128 -2 125 -11z
m-1545 -74 c20 -4 37 -10 37 -15 0 -12 -47 -18 -175 -21 -106 -3 -120 -1 -123
14 -2 12 5 18 25 21 46 7 195 7 236 1z m1551 -13 c3 -4 3 -45 -1 -90 l-6 -81
-128 0 -129 0 0 80 c0 94 -8 88 145 93 55 2 103 4 107 5 4 1 9 -2 12 -7z
m-1324 -21 c24 -8 24 -8 -5 -9 -16 0 -37 4 -45 9 -12 8 -11 10 5 9 11 -1 31
-5 45 -9z m-212 -72 c7 -7 12 -37 12 -85 l0 -74 -122 3 -123 3 -3 74 c-2 41 1
78 5 82 4 4 24 4 43 0 30 -6 36 -12 44 -44 12 -48 22 -47 30 5 4 22 8 44 11
47 5 10 88 0 103 -11z m1540 -233 c-3 -63 -10 -111 -17 -118 -13 -13 -186 -23
-226 -13 -24 6 -25 9 -25 104 0 53 4 102 8 108 12 19 34 22 151 23 l114 1 -5
-105z m-1528 -68 c0 -111 -14 -140 -63 -135 -29 3 -32 6 -29 36 1 17 0 32 -2
32 -2 0 -23 -16 -46 -35 -43 -36 -64 -42 -90 -25 -11 7 -15 30 -15 95 0 117 9
125 146 125 l99 0 0 -93z m1554 -135 c-18 -14 -22 -31 -27 -107 -7 -118 -14
-125 -142 -125 -62 0 -96 4 -103 13 -28 34 -24 193 5 223 11 11 45 14 151 14
131 0 136 -1 116 -18z m-1674 -72 c6 -11 15 -20 19 -20 5 0 11 9 14 20 5 18
14 20 76 20 41 0 71 -4 71 -10 0 -5 -11 -10 -24 -10 -22 0 -23 -4 -29 -87 -4
-47 -10 -90 -15 -95 -4 -4 -51 -11 -103 -14 -121 -8 -131 -1 -137 87 -4 77 8
116 40 122 54 10 77 7 88 -13z m1700 -207 c0 -5 -7 -17 -15 -27 -12 -16 -15
-54 -15 -176 l0 -157 -51 -47 c-28 -26 -49 -49 -47 -52 3 -2 25 5 49 16 45 20
129 27 129 11 0 -5 -14 -14 -30 -20 -37 -13 -50 -44 -50 -124 0 -65 -12 -99
-28 -82 -81 87 -161 193 -184 242 -25 51 -36 64 -69 77 -22 9 -46 16 -53 16
-17 0 -33 185 -22 252 10 59 20 68 82 68 l54 0 -6 -30 c-8 -37 2 -38 52 -1 21
16 48 31 59 34 33 8 145 8 145 0z m-1642 -40 l82 -6 0 -133 0 -134 -30 0 c-35
0 -97 -50 -106 -86 -8 -32 -19 -30 -56 11 -17 20 -33 34 -35 31 -2 -2 0 -21 6
-42 6 -23 7 -42 2 -47 -5 -5 -34 -15 -65 -22 l-56 -13 0 89 c0 99 15 129 65
129 40 0 29 18 -17 27 l-43 9 -3 74 c-1 41 2 81 7 88 18 28 103 37 249 25z
m1852 -243 c0 -39 -3 -51 -10 -40 -5 8 -10 40 -10 70 0 39 3 51 10 40 5 -8 10
-40 10 -70z m-1135 51 l100 -6 3 -37 3 -37 -248 1 c-136 0 -257 4 -270 9 -20
7 -22 11 -11 34 6 15 24 29 42 34 36 11 234 12 381 2z m413 2 c57 -6 68 -17
58 -58 l-6 -25 -149 0 c-143 0 -149 1 -154 21 -8 29 2 49 27 59 25 10 151 12
224 3z m-403 -151 c51 -9 57 -38 8 -34 -37 2 -38 0 -20 -28 10 -17 9 -22 -3
-31 -17 -11 -359 -3 -456 12 -34 5 -73 5 -90 0 -36 -10 -134 -3 -151 11 -20
16 -15 45 9 62 19 14 68 16 343 15 176 0 338 -3 360 -7z m588 -7 c17 -7 17 -8
-2 -21 -11 -8 -22 -27 -26 -44 -4 -16 -11 -32 -16 -36 -5 -3 -50 -2 -101 2
-65 5 -96 12 -108 24 -16 16 -19 15 -51 -2 -51 -27 -196 -21 -206 9 -2 6 8 24
22 41 23 28 33 32 93 35 100 6 374 1 395 -8z m-1123 -135 c129 -6 243 -13 253
-16 13 -4 17 -17 17 -60 l0 -55 -77 6 c-183 13 -209 17 -256 37 -45 20 -50 20
-59 5 -8 -14 -27 -17 -129 -17 -66 0 -129 5 -140 10 -25 14 -26 75 -1 89 22
13 102 13 392 1z m952 -35 c16 -6 16 -9 3 -28 -8 -12 -15 -38 -15 -59 l0 -38
-67 0 c-90 0 -131 13 -182 56 l-42 37 15 -38 16 -38 -165 5 c-111 4 -169 9
-180 18 -15 13 -21 80 -7 94 9 10 601 2 624 -9z m258 -105 c0 -5 -7 -10 -15
-10 -8 0 -15 5 -15 10 0 6 7 10 15 10 8 0 15 -4 15 -10z m461 -21 c44 -22 46
-36 6 -59 -23 -13 -30 -12 -62 3 -36 17 -36 17 -30 -3 5 -17 2 -20 -22 -20
-63 0 -65 34 -4 75 43 30 60 31 112 4z m-1737 -7 l30 -8 -32 -23 c-34 -24 -41
-41 -17 -41 17 0 32 -47 19 -60 -5 -4 -83 -2 -174 5 -145 12 -167 16 -181 34
-14 18 -18 18 -23 5 -3 -9 -13 -13 -23 -10 -58 17 -74 18 -71 5 4 -19 -37 -23
-73 -8 -28 11 -30 15 -27 58 3 45 4 46 43 53 51 9 491 0 529 -10z m416 -27
c96 -8 176 -14 178 -15 9 -1 -12 -97 -23 -109 -19 -20 -74 -7 -124 29 -50 36
-58 38 -37 6 9 -14 12 -27 8 -29 -12 -7 -350 8 -358 16 -4 3 -3 21 2 38 7 25
20 35 64 54 65 28 65 28 290 10z m504 -31 l28 -6 -23 -12 c-14 -6 -25 -22 -27
-36 -8 -71 -7 -70 -80 -69 -88 0 -162 13 -172 29 -10 17 5 68 27 92 16 19 27
20 118 14 55 -4 113 -9 129 -12z m484 -20 l37 -15 -88 -45 c-83 -42 -125 -52
-161 -38 -29 11 -17 32 41 73 63 46 107 52 171 25z"/>
<path d="M1295 2940 c3 -5 10 -10 16 -10 5 0 9 5 9 10 0 6 -7 10 -16 10 -8 0
-12 -4 -9 -10z"/>
<path d="M1260 2861 c0 -5 5 -13 10 -16 6 -3 10 -2 10 4 0 5 -4 13 -10 16 -5
3 -10 2 -10 -4z"/>
<path d="M1800 2790 c0 -5 5 -10 10 -10 6 0 10 5 10 10 0 6 -4 10 -10 10 -5 0
-10 -4 -10 -10z"/>
<path d="M1765 2690 c-3 -5 1 -10 10 -10 9 0 13 5 10 10 -3 6 -8 10 -10 10 -2
0 -7 -4 -10 -10z"/>
<path d="M615 2460 c3 -5 10 -10 16 -10 5 0 9 5 9 10 0 6 -7 10 -16 10 -8 0
-12 -4 -9 -10z"/>
<path d="M2024 2298 c-4 -7 -3 -8 4 -4 12 7 16 16 8 16 -3 0 -8 -5 -12 -12z"/>
<path d="M556 2226 c3 -9 11 -16 16 -16 13 0 5 23 -10 28 -7 2 -10 -2 -6 -12z"/>
<path d="M2050 1836 c0 -2 7 -9 15 -16 13 -11 14 -10 9 4 -5 14 -24 23 -24 12z"/>
<path d="M2046 1625 c-3 -8 -1 -15 4 -15 6 0 10 7 10 15 0 8 -2 15 -4 15 -2 0
-6 -7 -10 -15z"/>
<path d="M2046 1275 c-9 -24 5 -41 16 -20 7 11 7 20 0 27 -6 6 -12 3 -16 -7z"/>
<path d="M1991 914 c0 -11 3 -14 6 -6 3 7 2 16 -1 19 -3 4 -6 -2 -5 -13z"/>
<path d="M2126 868 c-15 -23 -34 -88 -23 -78 8 8 47 100 42 100 -3 0 -11 -10
-19 -22z"/>
<path d="M560 992 c0 -15 51 -25 63 -13 8 8 5 11 -10 11 -12 0 -28 3 -37 6 -9
3 -16 2 -16 -4z"/>
<path d="M530 905 c0 -8 2 -15 4 -15 2 0 12 -3 20 -6 12 -4 15 -2 10 9 -8 21
-34 30 -34 12z"/>
<path d="M880 511 c0 -5 5 -13 10 -16 6 -3 10 -2 10 4 0 5 -4 13 -10 16 -5 3
-10 2 -10 -4z"/>
<path d="M2583 230 c-41 -16 -25 -30 34 -30 55 0 56 0 38 20 -20 22 -37 24
-72 10z"/>
<path d="M110 190 c-13 -8 -12 -10 3 -10 9 0 17 5 17 10 0 12 -1 12 -20 0z"/>
<path d="M695 180 l-30 -8 33 -1 c17 0 32 4 32 9 0 6 -1 9 -2 9 -2 -1 -16 -5
-33 -9z"/>
<path d="M478 148 c8 -8 23 -8 54 -1 l43 11 -54 1 c-42 1 -52 -2 -43 -11z"/>
<path d="M874 95 c-18 -13 -16 -14 28 -15 51 0 72 14 35 24 -33 9 -41 7 -63
-9z"/>
<path d="M1263 73 c-17 -2 -37 -11 -45 -20 -12 -14 -6 -15 57 -9 91 9 112 15
94 27 -14 9 -46 9 -106 2z"/>
<path d="M1675 50 c-20 -9 -20 -9 0 -8 11 0 34 4 50 8 l30 8 -30 0 c-16 0 -39
-3 -50 -8z"/>
</g>
</svg>
