<?xml version="1.0" standalone="no"?>
<!DOCTYPE svg PUBLIC "-//W3C//DTD SVG 20010904//EN"
 "http://www.w3.org/TR/2001/REC-SVG-20010904/DTD/svg10.dtd">
<svg version="1.0" xmlns="http://www.w3.org/2000/svg"
 width="151.000000pt" height="300.000000pt" viewBox="0 0 151.000000 300.000000"
 preserveAspectRatio="xMidYMid meet">
<metadata>
Created by potrace 1.10, written by Peter Selinger 2001-2011
</metadata>
<g transform="translate(0.000000,300.000000) scale(0.100000,-0.100000)"
fill="#000000" stroke="none">
<path d="M585 2960 c-81 -21 -204 -77 -263 -120 -22 -16 -55 -50 -73 -77 -18
-26 -50 -69 -72 -95 l-39 -48 7 -73 7 -74 -32 -26 c-17 -15 -37 -27 -44 -27
-17 0 -48 -35 -39 -43 3 -4 14 -7 23 -7 8 0 32 -8 53 -19 l37 -19 11 42 c19
68 30 94 50 112 16 14 23 15 45 6 43 -20 128 -14 188 12 81 36 186 99 242 146
44 37 53 41 91 37 45 -5 104 -42 124 -78 30 -56 -54 -165 -169 -217 -69 -32
-126 -43 -323 -62 -191 -18 -310 -65 -344 -136 -9 -20 -14 -46 -11 -58 21 -83
36 -167 50 -272 42 -319 128 -507 287 -626 l68 -50 -59 -54 c-81 -76 -110
-137 -110 -232 0 -47 6 -86 16 -108 29 -61 123 -120 229 -144 27 -6 53 -16 56
-22 14 -23 -38 -130 -81 -166 -8 -7 -65 -37 -127 -67 -157 -77 -207 -130 -189
-200 16 -65 112 -127 242 -159 78 -19 340 -28 484 -17 190 15 348 83 371 160
25 83 -17 149 -118 187 -47 18 -50 25 -28 77 19 45 19 137 1 181 -21 51 -80
103 -164 144 -46 23 -78 45 -80 56 -2 10 8 34 22 55 30 42 35 106 11 137 -8
10 -15 22 -15 25 0 4 42 21 93 39 149 52 242 105 328 190 93 92 122 148 127
246 5 82 -14 136 -67 196 -17 20 -31 44 -31 55 0 11 16 100 35 197 19 98 35
191 35 207 0 56 -83 110 -220 145 -36 9 -68 19 -73 23 -4 4 8 37 27 73 50 97
62 165 42 246 -29 119 -103 206 -224 263 -123 59 -277 74 -407 39z m220 -40
c7 -12 -2 -12 -30 0 -19 8 -19 9 2 9 12 1 25 -3 28 -9z m-100 -10 c-3 -5 -15
-10 -26 -10 -11 0 -17 5 -14 10 3 6 15 10 26 10 11 0 17 -4 14 -10z m200 -12
c34 -15 32 -28 -4 -28 -31 0 -47 13 -36 30 8 13 9 12 40 -2z m-260 -18 c4 -6
-10 -17 -29 -25 -24 -10 -36 -22 -36 -35 0 -26 13 -32 46 -20 42 16 49 -1 21
-56 -33 -65 -46 -75 -152 -119 -157 -65 -198 -77 -234 -71 -33 5 -71 31 -71
47 0 5 20 29 45 55 25 25 52 58 60 74 26 50 145 129 197 131 13 0 39 7 58 14
43 16 87 19 95 5z m169 4 c25 -10 19 -34 -8 -34 -27 0 -41 14 -31 30 7 12 17
12 39 4z m-69 -35 c-8 -12 -65 -12 -65 1 0 5 8 13 17 19 20 11 57 -4 48 -20z
m245 6 c7 -9 10 -18 7 -21 -10 -11 -37 5 -37 21 0 19 14 19 30 0z m-150 -46
c0 -5 -9 -9 -20 -9 -19 0 -26 11 -14 23 8 8 34 -3 34 -14z m88 3 c3 -10 -4
-13 -24 -10 -15 2 -29 9 -32 16 -3 10 4 13 24 10 15 -2 29 -9 32 -16z m92 -28
c13 -13 13 -16 0 -24 -28 -18 -55 -7 -58 23 -3 26 -1 28 20 22 13 -4 30 -14
38 -21z m-104 -51 c-7 -7 -26 7 -26 19 0 6 6 6 15 -2 9 -7 13 -15 11 -17z
m169 6 c12 -19 -5 -23 -22 -6 -16 16 -16 17 -1 17 9 0 20 -5 23 -11z m-105
-45 c0 -14 -4 -23 -10 -19 -5 3 -10 15 -10 26 0 10 5 19 10 19 6 0 10 -12 10
-26z m70 -28 c0 -14 -5 -28 -10 -31 -13 -8 -24 20 -16 40 9 24 26 17 26 -9z
m90 -4 c0 -15 -2 -15 -10 -2 -13 20 -13 33 0 25 6 -3 10 -14 10 -23z m-30 -58
c0 -32 -18 -66 -31 -59 -13 9 -11 59 3 73 19 19 28 14 28 -14z m-110 -4 c0
-11 -4 -20 -10 -20 -5 0 -10 9 -10 20 0 11 5 20 10 20 6 0 10 -9 10 -20z m50
-65 c0 -18 -29 -47 -41 -40 -15 10 -10 43 8 54 20 11 33 6 33 -14z m90 10 c0
-14 -32 -65 -40 -65 -15 0 -12 17 6 45 15 23 34 34 34 20z m-176 -73 c-11 -17
-54 -30 -54 -16 0 4 10 18 22 31 25 27 51 15 32 -15z m106 0 c0 -16 -32 -52
-46 -52 -19 0 -18 19 3 42 16 18 43 25 43 10z m-102 -68 c-5 -25 -35 -41 -49
-27 -9 9 -9 16 1 28 17 21 52 20 48 -1z m-98 -11 c0 -14 -15 -29 -33 -36 -30
-11 -39 3 -15 23 23 20 48 26 48 13z m160 -17 c0 -3 -4 -8 -10 -11 -5 -3 -10
-1 -10 4 0 6 5 11 10 11 6 0 10 -2 10 -4z m-265 -26 c-3 -5 -11 -10 -16 -10
-6 0 -7 5 -4 10 3 6 11 10 16 10 6 0 7 -4 4 -10z m168 -32 c-24 -23 -40 -20
-30 7 4 8 17 15 29 15 l22 0 -21 -22z m-63 -5 c0 -14 -34 -43 -52 -43 -21 0
-25 35 -5 43 18 8 57 8 57 0z m-120 -21 c0 -25 -48 -48 -56 -27 -10 25 4 45
31 45 18 0 25 -5 25 -18z m-239 -22 c-15 -13 -38 -20 -66 -20 -55 0 -197 -27
-247 -47 -50 -20 -47 -39 12 -75 57 -34 155 -54 344 -68 255 -20 651 18 747
71 23 13 44 29 46 35 6 17 -43 35 -165 63 -62 14 -114 31 -115 36 -6 33 175 3
258 -43 91 -49 65 -105 -72 -151 -207 -70 -692 -82 -953 -25 -169 37 -238 105
-158 154 71 43 248 86 363 89 l30 0 -24 -19z m152 13 c12 -11 -14 -33 -39 -33
-26 0 -30 10 -12 28 13 13 41 16 51 5z m-15 -74 c4 -21 -28 -57 -53 -61 -16
-2 -20 2 -18 25 1 16 7 35 14 43 15 19 53 14 57 -7z m95 14 c11 -10 -24 -43
-45 -43 -22 0 -23 13 -2 34 16 17 36 21 47 9z m77 -3 c-20 -13 -33 -13 -25 0
3 6 14 10 23 10 15 0 15 -2 2 -10z m-270 -19 c0 -24 -32 -59 -38 -42 -4 11 23
61 33 61 3 0 5 -9 5 -19z m675 -21 c18 -8 18 -9 -5 -9 -14 0 -34 4 -45 9 -18
8 -18 9 5 9 14 0 34 -4 45 -9z m-550 -65 c-32 -14 -41 -13 -30 4 3 6 18 11 33
10 l27 -1 -30 -13z m-100 -5 c3 -5 1 -10 -4 -10 -6 0 -11 5 -11 10 0 6 2 10 4
10 3 0 8 -4 11 -10z m-387 -99 c8 -4 16 -27 19 -50 5 -33 3 -41 -10 -41 -22 0
-47 39 -47 72 0 28 14 35 38 19z m1139 -26 c10 -22 8 -28 -9 -44 -50 -47 -255
-97 -438 -107 -181 -10 -518 19 -602 51 -10 4 -22 23 -28 43 -17 63 -15 65 38
58 119 -15 338 -35 453 -41 136 -8 172 -17 117 -30 -33 -8 -33 -8 -5 -12 52
-8 27 -23 -40 -24 -61 0 -65 -2 -39 -11 44 -16 336 6 419 32 69 21 91 39 101
83 8 34 18 34 33 2z m-1119 -137 c7 -7 12 -22 12 -34 0 -80 88 -325 138 -384
19 -22 18 -16 -7 40 -29 67 -65 204 -77 298 l-7 53 44 -6 c24 -4 69 -11 99
-17 30 -6 169 -13 308 -15 138 -3 252 -9 252 -13 0 -5 -37 -17 -82 -28 l-83
-19 73 -8 c80 -8 82 -15 10 -35 -27 -7 -48 -16 -48 -21 0 -4 24 -9 53 -11 l52
-3 -58 -14 c-75 -18 -82 -31 -18 -31 64 0 65 -14 4 -30 -63 -17 -76 -30 -31
-30 20 0 39 -4 43 -9 5 -9 -53 -31 -82 -31 -7 0 -13 -4 -13 -10 0 -5 15 -10
33 -10 57 0 63 -17 8 -24 -28 -4 -61 -11 -74 -16 -20 -8 -18 -9 13 -10 19 -1
46 -5 60 -9 23 -7 21 -9 -20 -20 -79 -21 -91 -30 -41 -30 52 -1 47 -10 -17
-33 -37 -13 -41 -17 -21 -17 41 -1 43 -14 3 -26 -20 -5 -36 -14 -36 -20 2 -15
-56 -33 -107 -34 -62 -1 -164 50 -226 114 -60 61 -104 141 -138 251 -20 62
-57 226 -57 250 0 9 27 3 38 -8z m1087 -55 c-11 -80 -35 -163 -66 -231 -32
-72 -48 -79 -24 -11 23 64 65 230 65 254 0 23 8 35 23 35 5 0 6 -19 2 -47z
m63 -245 c-2 -15 -11 -24 -25 -26 -27 -4 -29 5 -6 30 22 24 35 23 31 -4z m0
-65 c4 -15 -36 -55 -48 -48 -15 9 -12 32 6 50 17 17 35 16 42 -2z m-90 -15
c-6 -18 -57 -53 -65 -45 -9 9 37 57 55 57 7 0 12 -5 10 -12z m-118 -83 c0 -8
-9 -24 -20 -35 -20 -20 -50 -27 -50 -11 0 4 9 20 21 35 22 29 49 35 49 11z
m100 -7 c0 -19 -31 -48 -52 -48 -21 0 -25 29 -6 48 15 15 58 16 58 0z m-192
-30 c-3 -7 -15 -14 -29 -16 -24 -4 -24 -3 -4 12 24 19 38 20 33 4z m-48 -57
c0 -23 -34 -41 -75 -41 -55 0 -66 16 -23 35 37 16 98 20 98 6z m110 -5 c0 -20
-39 -46 -67 -46 -28 0 -32 34 -5 49 26 16 72 13 72 -3z m50 -5 c0 -6 -4 -13
-10 -16 -5 -3 -10 1 -10 9 0 9 5 16 10 16 6 0 10 -4 10 -9z m-344 -36 c-21
-16 -32 -13 -21 4 3 6 14 11 23 11 15 -1 15 -2 -2 -15z m99 -25 c19 -1 19 -2
-3 -20 -32 -26 -93 -43 -107 -29 -15 16 42 62 69 55 12 -3 30 -6 41 -6z m95
-10 c0 -13 -50 -33 -59 -24 -7 7 28 34 46 34 7 0 13 -5 13 -10z m-240 -10 c0
-13 -34 -30 -59 -30 -24 0 -27 10 -9 28 14 14 68 16 68 2z m-120 -20 c0 -5
-15 -10 -32 -10 -25 0 -29 3 -18 10 20 13 50 13 50 0z m25 -40 c11 -18 -15
-40 -46 -40 -35 0 -40 26 -6 40 30 12 45 12 52 0z m118 3 c4 -3 -5 -15 -20
-25 -50 -32 -88 -17 -41 16 24 17 50 21 61 9z m-233 -12 c0 -10 -24 -21 -47
-21 -13 0 -13 3 -3 15 13 16 50 21 50 6z m-115 -90 c-16 -31 -45 -49 -45 -27
0 19 40 67 51 61 5 -4 3 -18 -6 -34z m133 30 c17 -10 -4 -28 -47 -41 -23 -6
-33 -5 -43 7 -10 12 -9 18 7 29 21 15 63 18 83 5z m-198 -32 c-7 -11 -14 -18
-17 -15 -3 3 0 12 7 21 18 21 23 19 10 -6z m273 4 c-7 -2 -19 -2 -25 0 -7 3
-2 5 12 5 14 0 19 -2 13 -5z m-213 -88 c-26 -28 -40 -32 -40 -12 0 19 21 37
44 37 18 0 18 -1 -4 -25z m-74 -29 c-3 -14 -11 -26 -16 -26 -11 0 -13 30 -4
55 10 26 28 1 20 -29z m438 25 c3 -5 -21 -16 -54 -25 -58 -17 -80 -36 -41 -36
11 0 23 -4 26 -10 8 -13 -20 -13 -67 1 -32 8 -38 14 -38 38 0 15 3 31 7 34 10
10 161 8 167 -2z m-416 -112 c-1 -13 -7 -23 -13 -22 -13 3 -18 30 -11 50 10
24 29 1 24 -28z m52 -40 c0 -6 -4 -7 -10 -4 -5 3 -10 11 -10 16 0 6 5 7 10 4
6 -3 10 -11 10 -16z m286 1 c7 0 16 -16 19 -37 21 -132 49 -253 70 -305 18
-43 22 -65 15 -74 -6 -6 -47 -34 -90 -60 -47 -29 -80 -56 -80 -65 0 -34 167
-55 300 -37 53 7 54 7 24 -7 -36 -16 -167 -41 -274 -51 -126 -12 -33 -22 128
-13 165 8 249 32 313 85 44 36 62 39 67 10 8 -42 -72 -89 -216 -128 -100 -26
-335 -36 -453 -18 -170 24 -299 83 -299 134 0 13 7 29 16 37 13 11 19 8 41
-20 32 -41 95 -71 148 -70 l40 0 -61 29 c-33 16 -71 41 -84 55 -27 29 -19 45
41 76 38 19 38 19 49 -1 6 -11 32 -26 62 -35 69 -20 69 -20 15 15 -26 16 -47
32 -47 35 0 3 25 30 55 60 30 30 64 73 75 96 28 54 50 158 50 238 l0 64 31 -7
c17 -3 37 -6 45 -6z m111 -87 c-4 -3 -7 0 -7 7 0 7 3 10 7 7 3 -4 3 -10 0 -14z
m22 -113 c1 -13 0 -13 -9 0 -5 8 -9 26 -9 40 l1 25 8 -25 c4 -14 8 -32 9 -40z
m138 33 c-4 -3 -10 -3 -14 0 -3 4 0 7 7 7 7 0 10 -3 7 -7z m68 -43 c3 -5 -1
-10 -9 -10 -8 0 -18 5 -21 10 -3 6 1 10 9 10 8 0 18 -4 21 -10z m-115 -29 c13
-24 13 -61 1 -61 -9 0 -12 8 -27 63 -7 23 13 22 26 -2z m-70 -12 c0 -6 -4 -7
-10 -4 -5 3 -10 11 -10 16 0 6 5 7 10 4 6 -3 10 -11 10 -16z m155 -8 c3 -5 1
-12 -5 -16 -5 -3 -10 1 -10 9 0 18 6 21 15 7z m32 -18 c-4 -3 -7 0 -7 7 0 7 3
10 7 7 3 -4 3 -10 0 -14z m-36 -76 c-8 -8 -11 -7 -11 4 0 20 13 34 18 19 3 -7
-1 -17 -7 -23z m-61 -27 c0 -5 -8 -10 -17 -10 -15 0 -16 2 -3 10 19 12 20 12
20 0z m-44 -55 c-11 -8 -29 -15 -39 -15 -16 0 -17 3 -7 15 7 8 24 15 39 15 25
-1 25 -1 7 -15z m-94 -67 c-5 -5 -20 -8 -33 -6 -24 3 -23 4 6 20 30 16 48 7
27 -14z m98 22 c0 -5 -5 -10 -11 -10 -5 0 -7 5 -4 10 3 6 8 10 11 10 2 0 4 -4
4 -10z"/>
<path d="M425 2809 c-39 -25 -11 -24 35 1 25 14 30 19 15 19 -11 0 -33 -9 -50
-20z"/>
<path d="M457 2778 c-31 -16 -65 -40 -74 -55 -9 -14 -31 -35 -48 -45 l-30 -20
35 7 c19 3 55 7 80 8 53 2 65 9 84 45 18 35 30 92 19 90 -4 0 -34 -14 -66 -30z"/>
<path d="M579 2733 c-15 -2 -37 -15 -50 -29 l-23 -24 35 6 c55 11 79 23 79 39
0 8 -3 14 -7 14 -5 -1 -20 -4 -34 -6z"/>
<path d="M415 2628 c-22 -12 -35 -23 -28 -25 6 -2 33 7 60 21 30 16 41 25 28
25 -11 0 -38 -9 -60 -21z"/>
<path d="M283 2593 c-20 -7 -15 -23 7 -23 11 0 20 4 20 9 0 13 -12 19 -27 14z"/>
<path d="M325 1690 c3 -5 8 -10 11 -10 2 0 4 5 4 10 0 6 -5 10 -11 10 -5 0 -7
-4 -4 -10z"/>
<path d="M380 1562 c0 -14 61 -94 67 -89 5 5 -56 97 -64 97 -2 0 -3 -4 -3 -8z"/>
<path d="M418 1402 c31 -43 79 -78 132 -97 24 -8 44 -14 46 -12 2 1 -32 26
-74 55 -42 29 -88 60 -102 70 l-25 17 23 -33z"/>
<path d="M716 653 c9 -76 14 -80 14 -10 0 31 -5 59 -10 62 -7 4 -8 -13 -4 -52z"/>
<path d="M590 415 c-8 -9 -8 -15 -2 -15 12 0 26 19 19 26 -2 2 -10 -2 -17 -11z"/>
<path d="M780 399 c0 -5 5 -7 10 -4 6 3 10 8 10 11 0 2 -4 4 -10 4 -5 0 -10
-5 -10 -11z"/>
</g>
</svg>
