<?xml version="1.0" standalone="no"?>
<!DOCTYPE svg PUBLIC "-//W3C//DTD SVG 20010904//EN"
 "http://www.w3.org/TR/2001/REC-SVG-20010904/DTD/svg10.dtd">
<svg version="1.0" xmlns="http://www.w3.org/2000/svg"
 width="210.000000pt" height="272.000000pt" viewBox="0 0 210.000000 272.000000"
 preserveAspectRatio="xMidYMid meet">
<metadata>
Created by potrace 1.10, written by Peter Selinger 2001-2011
</metadata>
<g transform="translate(0.000000,272.000000) scale(0.100000,-0.100000)"
fill="#000000" stroke="none">
<path d="M321 2692 c-48 -5 -122 -82 -150 -156 -39 -104 -47 -180 -27 -267 20
-89 44 -118 105 -126 l41 -6 0 -176 c0 -275 -21 -561 -54 -761 -24 -141 -37
-245 -37 -295 0 -33 -2 -131 -5 -218 l-6 -157 -37 0 c-48 0 -67 -15 -86 -69
-18 -51 -21 -225 -4 -268 6 -15 29 -52 51 -80 l40 -53 452 0 c393 0 712 -10
811 -25 17 -3 131 -8 255 -11 l225 -6 35 24 c20 14 47 48 65 82 27 53 30 71
34 168 6 194 -23 245 -159 274 l-83 18 6 195 c8 267 44 489 148 903 54 217 59
258 32 258 -10 0 -58 5 -108 10 -49 5 -144 11 -210 15 -66 3 -150 8 -186 11
-64 5 -99 -1 -99 -16 0 -13 42 -20 258 -40 114 -11 215 -23 226 -26 44 -14
-15 -24 -144 -24 -139 0 -210 -7 -210 -20 0 -4 53 -13 118 -19 161 -17 265
-30 270 -36 12 -11 -12 -17 -105 -26 -54 -4 -102 -8 -106 -9 -5 0 -6 -4 -3 -9
3 -5 34 -12 68 -15 121 -13 138 -17 138 -34 0 -35 -75 -325 -85 -327 -5 -2
-40 -7 -77 -10 -38 -4 -68 -11 -68 -15 0 -5 27 -14 61 -21 34 -7 63 -18 66
-26 3 -8 -4 -74 -16 -146 -11 -73 -25 -183 -30 -246 -6 -70 -14 -119 -23 -127
-8 -8 -53 -16 -123 -20 -109 -7 -157 -17 -125 -28 8 -2 63 -9 121 -15 118 -12
139 -17 139 -37 0 -18 -36 -22 -249 -28 -169 -4 -202 -8 -190 -21 5 -4 139
-18 334 -33 72 -6 90 -10 93 -24 3 -13 -8 -18 -54 -23 -61 -8 -890 10 -1172
25 -176 10 -222 16 -222 30 0 17 43 22 240 28 215 6 230 15 38 26 -250 14
-288 21 -288 51 0 12 19 15 98 16 137 1 170 14 59 22 -93 6 -140 22 -145 49
-3 18 71 50 145 63 69 11 59 22 -31 35 -47 7 -91 17 -99 23 -15 12 -12 63 7
173 23 128 55 439 69 676 2 32 6 61 10 64 3 3 39 9 79 13 l73 7 -45 13 c-25 7
-60 18 -77 23 -28 8 -33 14 -33 39 l0 29 128 1 c140 0 139 9 -5 29 -94 13
-123 23 -109 37 4 4 82 10 172 11 90 2 164 8 164 12 0 9 -50 21 -181 44 -68
12 -71 13 -39 19 19 4 106 11 193 17 154 10 217 23 186 40 -15 9 -214 25 -477
39 -84 4 -158 13 -163 18 -20 20 20 34 137 46 l119 14 -90 7 c-155 12 -183 17
-189 33 -11 27 4 33 87 34 45 1 93 4 107 8 l25 8 -30 6 c-16 4 -61 11 -100 17
-80 13 -99 25 -71 45 15 12 49 13 171 8 147 -6 205 -1 205 16 0 4 -46 11 -103
15 -119 7 -228 24 -240 35 -13 13 31 91 59 103 19 9 80 9 247 0 249 -13 787
-31 1036 -35 111 -1 166 -6 168 -13 2 -6 -4 -15 -14 -18 -10 -4 -175 -11 -368
-16 -447 -12 -407 -10 -371 -20 17 -5 163 -14 325 -20 350 -12 411 -17 411
-35 0 -20 -35 -25 -185 -25 -77 0 -178 -3 -225 -7 -116 -9 -78 -18 169 -38
108 -10 200 -21 206 -26 14 -14 -11 -27 -62 -34 -24 -3 -64 -8 -89 -11 -25 -3
-44 -8 -41 -10 2 -3 33 -9 68 -14 119 -18 129 -21 129 -34 0 -20 -23 -26 -91
-26 -72 0 -70 -15 4 -25 28 -4 63 -12 77 -18 23 -10 19 -11 -35 -18 -33 -4
-139 -8 -235 -9 -96 -1 -199 -5 -229 -8 -50 -6 -53 -8 -39 -23 15 -15 167 -39
243 -39 14 0 25 -4 25 -10 0 -5 -12 -10 -26 -10 -50 0 -166 -23 -152 -31 7 -4
87 -12 178 -18 91 -6 192 -14 225 -16 250 -20 339 -25 347 -17 4 4 17 44 28
87 16 61 20 112 20 215 0 195 -26 274 -108 331 l-35 24 -486 6 c-408 6 -872
20 -1036 32 -22 2 -55 2 -74 -1z m1599 -125 c19 -12 42 -36 52 -53 35 -60 45
-246 21 -382 -5 -32 -44 -72 -69 -72 -19 0 -18 2 15 57 80 129 49 323 -58 371
l-36 17 33 3 c37 4 40 13 11 53 -24 35 -14 37 31 6z m-59 -168 c-2 -8 -6 -48
-8 -89 -4 -61 -2 -78 11 -89 19 -16 21 -11 31 61 7 54 19 68 34 39 17 -32 13
-96 -8 -122 -16 -20 -23 -22 -47 -14 -44 16 -66 67 -61 143 5 62 20 96 41 89
6 -3 9 -11 7 -18z m-15 -1996 c-1 -54 3 -109 8 -122 13 -38 -15 -21 -41 25
-18 30 -23 55 -23 110 0 77 3 84 35 84 21 0 22 -4 21 -97z m105 48 c21 -17 24
-30 27 -99 4 -71 1 -88 -23 -139 -28 -62 -61 -103 -82 -103 -15 0 -16 9 -3 30
12 19 -5 30 -47 30 -45 0 -90 43 -102 98 -5 23 -7 42 -4 42 2 0 13 -20 24 -44
64 -145 209 -95 209 72 0 44 -5 66 -20 85 -35 45 -22 63 21 28z m-416 0 c91
-5 110 -9 113 -22 3 -15 -17 -18 -175 -23 -98 -3 -241 -8 -318 -11 -357 -13
-339 -35 35 -41 395 -7 450 -11 450 -35 0 -23 -73 -32 -319 -40 -145 -4 -266
-11 -269 -14 -17 -17 32 -24 203 -29 220 -7 352 -15 379 -23 45 -13 -16 -23
-139 -23 -222 -1 -204 -30 35 -55 79 -8 149 -20 155 -26 12 -14 -119 -7 -301
15 -219 27 -424 38 -839 45 -407 6 -410 6 -413 27 -3 24 26 33 107 35 93 1 89
15 -10 35 -58 11 -101 26 -112 37 -36 36 -8 42 216 47 121 3 201 8 187 13 -14
4 -105 16 -203 26 -165 17 -212 29 -193 48 4 5 53 11 109 14 138 8 1165 8
1302 0z"/>
<path d="M917 2263 c34 -74 41 -161 19 -234 -9 -30 -56 -135 -105 -234 l-89
-180 -1 56 c-1 61 -26 159 -41 159 -6 0 -10 -15 -10 -34 0 -47 -52 -190 -115
-316 -81 -161 -90 -196 -90 -335 0 -112 2 -124 29 -180 31 -63 114 -153 188
-202 51 -35 150 -78 198 -88 33 -7 30 -2 -71 101 -115 117 -129 143 -129 239
0 48 49 275 60 275 3 0 18 -51 33 -113 34 -140 45 -162 77 -162 43 0 52 52 40
229 -6 83 -8 169 -4 191 7 44 68 166 94 190 16 14 17 8 23 -78 5 -89 8 -98 65
-213 57 -114 79 -170 84 -223 2 -14 8 -26 15 -28 20 -7 65 95 71 159 5 66 16
70 44 17 26 -50 41 -145 34 -212 -12 -119 -69 -197 -219 -299 -109 -75 -106
-91 15 -66 108 23 180 60 254 130 140 133 173 317 94 512 -15 39 -47 118 -70
175 -27 66 -46 133 -53 187 -8 55 -16 84 -24 84 -23 0 -92 -71 -105 -108 -15
-45 -15 -46 -17 -77 -2 -46 -19 -25 -35 43 -11 49 -13 98 -9 182 6 125 -7 201
-48 282 -22 43 -137 164 -196 206 l-32 23 26 -58z"/>
<path d="M553 2293 c4 -3 10 -3 14 0 3 4 0 7 -7 7 -7 0 -10 -3 -7 -7z"/>
<path d="M435 1550 c-11 -18 16 -31 49 -25 52 9 50 20 -5 30 -24 5 -39 3 -44
-5z"/>
<path d="M335 1140 c-3 -6 1 -13 10 -16 19 -8 30 0 20 15 -8 14 -22 14 -30 1z"/>
<path d="M1061 1070 c-1 -81 -22 -162 -61 -240 -35 -70 -35 -70 -11 -70 25 0
73 48 97 97 28 55 26 173 -3 233 l-21 45 -1 -65z"/>
<path d="M307 1034 c-14 -15 7 -24 54 -24 48 0 65 12 33 24 -21 8 -79 8 -87 0z"/>
</g>
</svg>
