<?xml version="1.0" standalone="no"?>
<!DOCTYPE svg PUBLIC "-//W3C//DTD SVG 20010904//EN"
 "http://www.w3.org/TR/2001/REC-SVG-20010904/DTD/svg10.dtd">
<svg version="1.0" xmlns="http://www.w3.org/2000/svg"
 width="300.000000pt" height="300.000000pt" viewBox="0 0 300.000000 300.000000"
 preserveAspectRatio="xMidYMid meet">
<metadata>
Created by potrace 1.10, written by Peter Selinger 2001-2011
</metadata>
<g transform="translate(0.000000,300.000000) scale(0.100000,-0.100000)"
fill="#000000" stroke="none">
<path d="M280 2961 c-110 -22 -199 -127 -229 -269 -6 -29 -11 -97 -11 -151 0
-97 1 -100 45 -190 68 -135 100 -151 315 -151 74 0 140 -4 146 -8 14 -9 -41
-411 -79 -582 -45 -199 -61 -309 -82 -550 -21 -229 -20 -261 5 -267 24 -6 25
-16 4 -49 -14 -20 -16 -42 -11 -122 14 -256 126 -466 290 -547 130 -64 199
-66 542 -14 333 50 500 61 1040 68 581 8 563 6 627 80 120 140 114 386 -14
534 l-33 38 -145 -11 c-79 -6 -147 -12 -150 -12 -23 -2 -32 12 -54 85 -54 177
-59 216 -59 477 0 203 4 266 21 365 20 113 34 244 47 432 l5 81 -45 18 c-25 9
-48 20 -50 25 -3 4 17 20 45 35 l51 27 -6 76 c-26 342 -53 442 -143 523 -69
63 -111 72 -285 65 -84 -4 -237 -14 -342 -23 -245 -21 -944 -14 -1125 10 -118
16 -258 19 -320 7z m435 -90 c199 -16 698 -23 855 -12 80 6 251 16 381 23 197
10 241 10 269 -2 115 -48 161 -157 195 -471 l6 -56 -63 -40 c-35 -23 -74 -53
-87 -67 l-24 -26 81 -36 c44 -21 84 -44 87 -52 7 -18 -11 -279 -26 -372 -6
-36 -17 -75 -25 -87 -8 -12 -47 -45 -87 -71 -39 -27 -80 -59 -90 -70 -18 -19
-17 -20 65 -50 l83 -30 8 -53 c4 -30 6 -115 5 -189 -3 -133 -3 -135 -27 -138
-48 -7 -69 6 -85 55 -34 101 -124 185 -228 213 -26 8 -39 18 -43 33 -3 12 -11
49 -17 81 -7 33 -18 61 -25 63 -12 4 -33 -55 -33 -94 0 -50 -17 -69 -80 -92
-42 -16 -77 -38 -107 -67 -43 -43 -93 -132 -93 -165 0 -25 -19 -36 -80 -47
-147 -27 -142 -50 13 -67 l57 -6 33 -72 c47 -101 116 -158 241 -201 15 -5 17
-9 7 -19 -9 -9 -145 -13 -546 -17 l-533 -5 -25 -23 c-68 -64 -91 -203 -50
-294 30 -66 54 -78 165 -84 51 -3 99 -8 106 -10 17 -5 -19 -72 -60 -111 -27
-26 -36 -28 -106 -28 -62 0 -87 5 -127 25 -129 63 -225 238 -255 465 -12 91
-17 83 84 143 63 37 73 66 29 76 -94 23 -104 28 -114 52 -16 43 19 369 66 619
39 203 38 201 98 231 29 15 72 40 96 57 l45 31 -78 71 -78 72 10 54 c29 147
21 523 -13 654 -8 33 -32 94 -53 135 -20 41 -39 79 -41 84 -2 5 18 6 45 3 27
-4 103 -11 169 -16z m-206 -180 c7 -5 15 -29 18 -54 5 -43 4 -46 -20 -52 -45
-12 -78 7 -110 63 l-29 52 64 0 c34 0 69 -4 77 -9z m-294 -73 c-12 -127 30
-238 96 -255 l31 -9 -30 -32 c-58 -62 -118 -36 -169 75 -22 48 -26 71 -27 160
-1 118 7 133 72 133 l34 0 -7 -72z m345 -203 l0 -105 -71 0 -71 0 5 33 c4 17
9 65 13 105 l7 72 58 0 59 0 0 -105z m1310 -1187 c0 -29 -6 -64 -13 -78 -26
-54 -177 -97 -177 -51 0 32 63 115 114 149 68 45 76 43 76 -20z m153 36 c56
-29 98 -65 128 -112 42 -66 39 -76 -18 -69 -27 3 -66 12 -88 19 -33 11 -41 19
-51 53 -13 41 -18 125 -9 125 4 0 20 -7 38 -16z m-42 -215 c24 -46 -34 -94
-82 -69 -16 9 -19 19 -17 48 5 63 69 76 99 21z m406 -129 c33 -107 40 -175 19
-183 -20 -8 -223 -34 -333 -43 -100 -8 -108 4 -24 35 78 28 160 114 192 200
22 63 32 70 89 68 34 -2 35 -3 57 -77z m-212 28 c-4 -19 -26 -53 -53 -80 -48
-49 -126 -97 -138 -85 -11 11 13 129 30 145 17 17 112 51 144 52 21 0 23 -3
17 -32z m-360 -2 c33 -14 48 -40 64 -114 7 -34 6 -44 -5 -49 -36 -14 -194 123
-194 169 0 19 4 20 52 14 28 -4 66 -13 83 -20z m1004 -264 c36 -36 71 -130 71
-193 0 -42 -3 -51 -22 -58 -13 -4 -113 -16 -223 -26 -297 -26 -302 -33 -23
-34 246 -1 274 -5 249 -35 -17 -21 -69 -26 -380 -36 -274 -9 -496 -24 -1011
-70 -375 -34 -456 -30 -386 15 17 11 72 21 168 31 230 23 237 32 28 33 l-186
1 -11 89 c-6 50 -21 111 -32 137 -12 26 -19 50 -15 53 3 3 213 9 467 12 474 7
635 17 922 60 77 11 169 26 205 34 108 22 147 19 179 -13z m-1882 -113 c39
-25 80 -86 66 -100 -6 -6 -55 -11 -109 -12 -97 -2 -99 -2 -102 22 -5 35 5 65
33 95 29 31 55 30 112 -5z m-73 -196 c4 -9 1 -23 -7 -30 -11 -12 -18 -10 -40
7 -15 12 -25 26 -22 31 10 16 62 10 69 -8z m170 2 c12 -32 -5 -45 -55 -45 -53
0 -63 14 -33 44 20 21 80 21 88 1z"/>
<path d="M953 2563 c-21 -43 -44 -79 -50 -81 -7 -2 -21 10 -30 27 -10 17 -21
31 -24 31 -11 0 -116 -265 -108 -274 4 -5 103 -11 220 -14 l212 -5 -6 25 c-10
39 -160 368 -168 368 -4 0 -25 -35 -46 -77z"/>
<path d="M1270 2574 c0 -37 118 -125 207 -154 133 -44 163 -69 163 -134 0 -58
-25 -88 -106 -126 -102 -49 -144 -134 -110 -224 30 -78 74 -102 210 -112 143
-10 186 -35 186 -108 0 -82 -33 -110 -181 -150 -74 -21 -100 -43 -159 -135
-76 -119 -138 -142 -285 -106 -33 8 -90 14 -126 15 -57 0 -71 -4 -106 -29 -70
-51 -92 -135 -54 -209 25 -48 53 -61 175 -78 110 -16 146 -32 146 -69 0 -34
-24 -53 -78 -60 -26 -3 -91 -13 -144 -22 -81 -13 -102 -14 -128 -3 -35 15 -71
65 -91 125 -8 28 -35 61 -85 110 -41 39 -87 95 -104 125 l-30 55 0 -35 c0 -71
20 -112 90 -185 45 -46 77 -90 95 -130 31 -71 67 -112 109 -123 40 -11 284 12
348 34 58 19 78 45 78 100 0 81 -64 126 -195 138 -104 10 -113 14 -131 47 -22
43 -11 91 27 123 36 30 59 32 184 11 121 -20 191 -19 240 4 48 22 68 43 120
129 50 83 72 98 170 123 96 23 123 41 153 100 19 35 23 56 20 102 -8 109 -72
154 -240 166 -118 9 -144 21 -159 73 -17 64 6 99 95 148 82 45 111 74 125 125
11 40 -2 115 -25 150 -23 35 -87 70 -164 89 -35 9 -98 37 -139 61 -69 41 -101
54 -101 39z"/>
<path d="M1660 2561 c-20 -6 -11 -9 40 -16 36 -4 87 -16 113 -26 57 -23 108
-24 162 -4 22 8 60 14 85 15 25 0 52 4 59 9 15 10 14 10 -64 26 -11 3 -52 -4
-92 -15 l-71 -20 -51 20 c-52 20 -132 25 -181 11z"/>
<path d="M2195 2400 c3 -5 13 -10 21 -10 8 0 14 5 14 10 0 6 -9 10 -21 10 -11
0 -17 -4 -14 -10z"/>
<path d="M2033 2348 c-5 -7 -22 -35 -38 -63 -15 -27 -30 -52 -32 -55 -2 -2
-14 9 -27 25 l-23 29 -40 -70 c-68 -116 -103 -180 -103 -187 0 -4 99 -7 220
-7 121 0 220 2 220 5 0 12 -143 311 -154 323 -10 11 -14 11 -23 0z"/>
<path d="M878 2122 c-27 -8 -48 -19 -48 -24 0 -4 30 -8 68 -8 37 0 89 -7 115
-15 46 -14 57 -13 185 13 117 23 130 28 92 30 -25 2 -88 -1 -140 -8 -89 -11
-98 -11 -143 9 -56 24 -66 25 -129 3z"/>
<path d="M1145 1900 c3 -5 8 -10 11 -10 2 0 4 5 4 10 0 6 -5 10 -11 10 -5 0
-7 -4 -4 -10z"/>
<path d="M1012 1818 c-20 -20 -14 -35 33 -88 49 -55 49 -65 5 -105 -35 -32
-53 -74 -39 -91 19 -24 42 -16 97 32 l53 47 48 -47 c36 -35 55 -47 72 -44 39
5 34 34 -15 90 -25 29 -46 57 -46 63 0 6 18 29 40 50 40 39 50 71 28 93 -19
19 -26 15 -84 -40 l-55 -52 -52 52 c-55 55 -66 59 -85 40z"/>
<path d="M2030 1812 c-21 -17 -18 -17 84 -19 58 -1 108 2 110 6 7 10 -84 31
-134 31 -21 0 -47 -8 -60 -18z"/>
<path d="M1503 1683 c4 -3 10 -3 14 0 3 4 0 7 -7 7 -7 0 -10 -3 -7 -7z"/>
<path d="M700 1523 l-35 -16 66 -8 c37 -4 80 -14 98 -23 34 -18 42 -8 14 16
-24 21 -79 48 -95 48 -7 -1 -29 -8 -48 -17z"/>
</g>
</svg>
