<?xml version="1.0" standalone="no"?>
<!DOCTYPE svg PUBLIC "-//W3C//DTD SVG 20010904//EN"
 "http://www.w3.org/TR/2001/REC-SVG-20010904/DTD/svg10.dtd">
<svg version="1.0" xmlns="http://www.w3.org/2000/svg"
 width="289.000000pt" height="300.000000pt" viewBox="0 0 289.000000 300.000000"
 preserveAspectRatio="xMidYMid meet">
<metadata>
Created by potrace 1.10, written by Peter Selinger 2001-2011
</metadata>
<g transform="translate(0.000000,300.000000) scale(0.100000,-0.100000)"
fill="#000000" stroke="none">
<path d="M1178 2980 c-65 -11 -170 -65 -228 -117 -100 -90 -145 -188 -166
-365 -14 -122 -19 -137 -93 -263 -34 -57 -41 -79 -41 -122 l0 -51 -49 -17
c-77 -25 -161 -92 -177 -140 -4 -11 -31 -47 -61 -79 -69 -75 -143 -232 -257
-547 -66 -184 -68 -215 -55 -769 6 -261 13 -477 16 -480 8 -9 303 -12 303 -3
0 4 -9 48 -20 98 -26 118 -40 274 -40 464 0 178 8 215 62 276 57 65 181 105
228 75 13 -8 12 -15 -9 -52 -95 -168 -106 -225 -106 -558 0 -140 3 -267 8
-282 l7 -28 740 0 740 0 0 103 0 102 48 20 c57 23 92 56 92 87 0 48 10 51 107
23 50 -15 106 -25 123 -23 32 3 32 4 75 139 24 75 49 163 56 195 6 32 15 63
19 67 4 4 10 -147 13 -335 3 -189 9 -351 13 -361 4 -11 17 -17 36 -17 29 0 30
1 24 38 -3 20 -9 217 -12 437 -6 402 4 713 27 772 10 27 11 27 22 8 9 -14 14
-190 18 -635 3 -338 6 -616 7 -617 8 -11 31 1 37 19 4 13 9 216 11 453 2 237
6 498 7 580 l3 150 61 61 c56 56 61 65 71 125 19 108 34 269 28 293 -3 13 -42
65 -87 115 l-80 92 10 159 c6 87 17 190 25 227 8 37 17 152 21 254 l6 186 -28
33 c-73 88 -167 79 -308 -29 -36 -28 -71 -51 -77 -51 -23 0 -67 -42 -78 -75
-15 -44 1 -105 38 -145 25 -27 50 -37 143 -55 l26 -5 6 -192 c3 -106 11 -222
17 -256 15 -79 6 -103 -50 -132 -83 -43 -99 -141 -44 -273 33 -78 29 -115 -16
-145 -27 -18 -45 -22 -89 -20 -64 3 -54 -8 -204 223 -64 99 -117 166 -178 228
l-88 88 30 62 c16 34 29 70 29 79 0 9 -13 54 -30 100 -36 103 -53 173 -75 308
-40 247 -114 373 -265 450 -84 43 -243 66 -342 50z m258 -90 c98 -34 173 -99
223 -195 11 -22 36 -121 56 -220 19 -99 47 -220 61 -269 45 -152 23 -216 -142
-421 -52 -65 -94 -122 -94 -127 0 -14 46 17 160 107 58 47 110 84 117 85 14 0
135 -142 184 -217 103 -157 160 -255 157 -270 -4 -22 -229 -112 -281 -112 -54
-1 -71 10 -133 95 -76 103 -83 101 -60 -21 8 -38 11 -74 7 -78 -14 -14 -101
14 -117 38 -12 18 -44 154 -44 186 0 5 44 38 98 73 107 70 181 130 171 141 -4
3 -45 -13 -90 -36 -143 -72 -272 -112 -359 -112 -66 0 -99 8 -289 72 -117 40
-221 71 -230 69 -10 -2 9 -19 49 -44 101 -64 177 -100 306 -144 114 -39 162
-69 148 -92 -4 -7 -31 -8 -68 -5 -251 24 -308 27 -325 18 -12 -7 -26 -38 -40
-93 -44 -165 -52 -189 -68 -195 -20 -8 -44 23 -89 117 -62 128 -141 236 -160
217 -3 -2 6 -26 20 -53 31 -64 92 -251 84 -260 -4 -3 -28 1 -55 9 -82 27 -135
30 -203 13 -71 -18 -162 -64 -211 -106 -30 -26 -32 -29 -13 -30 12 0 66 14
120 31 127 41 256 46 300 14 15 -12 28 -25 28 -30 1 -5 -40 -14 -91 -21 -112
-13 -184 -46 -243 -110 -76 -83 -81 -105 -91 -388 -9 -291 -7 -256 -18 -256
-21 0 -82 313 -102 526 -20 199 4 315 131 635 115 290 155 356 246 400 37 17
57 21 107 17 50 -4 260 -60 353 -94 18 -7 18 -7 1 13 -40 45 -268 138 -368
150 -27 3 -49 9 -49 13 0 11 88 51 126 57 25 4 53 -4 116 -35 98 -47 271 -151
352 -211 115 -85 197 -109 273 -80 43 16 285 265 312 323 21 43 23 57 18 135
-12 171 -78 507 -115 580 -29 58 -76 93 -112 84 -44 -12 -171 -165 -255 -308
-85 -144 -215 -402 -215 -427 0 -47 70 -133 177 -219 71 -57 118 -79 170 -79
35 0 36 -1 21 -16 -9 -9 -39 -19 -66 -22 -57 -5 -82 6 -186 82 -39 29 -118 83
-176 120 -134 87 -216 151 -237 183 -14 21 -15 30 -3 61 16 44 67 121 172 260
70 92 148 225 148 252 0 24 -23 5 -82 -68 -35 -43 -73 -86 -86 -96 -21 -16
-23 -16 -29 0 -19 49 75 255 140 307 65 54 136 83 237 101 44 7 150 -5 206
-24z m1218 -179 l27 -29 -4 -158 c-2 -88 -9 -202 -15 -254 -7 -52 -16 -155
-21 -229 -6 -73 -13 -136 -16 -140 -18 -17 -35 38 -36 113 -1 45 -4 108 -8
141 l-7 60 -13 -48 c-8 -26 -15 -46 -16 -45 -2 2 -11 109 -20 238 -18 240 -27
293 -39 227 -8 -44 -22 -54 -45 -33 -23 21 -29 20 -33 -5 -2 -12 -11 -27 -21
-33 -15 -9 -22 -7 -38 13 -39 47 -32 56 106 150 108 73 153 80 199 32z m-1146
-370 c7 -19 12 -45 12 -57 0 -22 -4 -24 -44 -24 -25 0 -48 -5 -51 -10 -4 -6
12 -28 34 -48 l42 -38 -61 -12 c-56 -12 -75 -32 -30 -32 10 0 32 -11 47 -24
27 -24 27 -26 13 -52 -8 -15 -27 -36 -42 -47 -24 -18 -32 -19 -67 -8 -22 6
-56 27 -76 45 -41 39 -44 64 -18 156 16 59 13 108 -12 173 -6 15 -1 17 43 17
28 0 54 -4 57 -10 11 -17 45 -11 82 15 34 22 37 23 48 7 7 -9 17 -32 23 -51z
m1237 -573 l52 -53 -8 -130 c-5 -72 -15 -151 -22 -175 l-13 -45 -79 3 c-98 4
-125 14 -125 46 0 32 16 42 79 49 29 4 56 9 60 12 11 11 -24 25 -66 25 -23 0
-54 5 -68 10 -60 23 1 68 93 69 43 1 52 10 29 29 -12 10 -63 20 -114 21 -16 1
-23 7 -23 22 0 26 53 49 116 49 32 0 44 4 42 13 -9 25 -52 38 -105 32 -52 -6
-53 -6 -53 19 0 36 35 56 98 56 51 0 56 -2 107 -52z m-265 -103 c0 -79 -11
-114 -24 -79 -8 21 -8 159 0 167 17 16 24 -11 24 -88z m26 -331 c11 -45 -2
-167 -23 -216 -12 -25 -33 -54 -47 -63 -24 -16 -28 -16 -52 0 -21 14 -25 22
-20 46 8 44 113 259 125 259 6 0 14 -12 17 -26z m-1242 -9 c106 -19 119 -32
124 -131 5 -89 18 -93 46 -13 11 30 20 55 21 57 1 1 31 -10 66 -26 65 -30 127
-46 212 -57 l48 -6 -8 -47 c-16 -104 5 -154 31 -74 10 28 30 68 46 90 31 43
117 92 162 92 23 0 29 -6 38 -40 6 -22 15 -40 19 -40 11 0 31 55 31 85 0 11 6
29 13 38 14 20 99 44 172 49 45 3 50 1 53 -19 2 -11 -20 -73 -49 -137 -99
-225 -128 -263 -219 -294 -30 -10 -55 -23 -57 -29 -5 -13 30 -23 84 -23 23 0
44 -3 46 -7 3 -5 -4 -35 -14 -68 -11 -33 -33 -123 -49 -200 -44 -207 -42 -202
-103 -219 -125 -35 -147 -31 -147 30 0 65 -33 24 -46 -56 -4 -22 -12 -44 -18
-49 -12 -10 -181 -65 -235 -76 l-34 -7 7 46 c4 25 4 46 0 46 -3 0 -22 -13 -41
-30 -38 -34 -73 -38 -181 -19 l-64 11 7 82 7 81 -22 -20 c-13 -11 -38 -44 -57
-73 -34 -52 -36 -54 -71 -47 -40 7 -219 59 -265 77 -41 16 -46 33 -30 107 21
102 17 97 68 93 84 -7 131 29 201 153 l37 67 95 -7 c78 -6 94 -5 90 6 -4 14
-34 23 -110 34 -36 6 -36 6 -53 80 -20 93 -42 120 -134 164 -54 27 -71 40 -71
55 0 12 11 66 25 121 14 55 25 112 25 127 0 15 8 32 18 38 20 13 170 5 286
-15z m-354 -376 c52 -12 95 -28 105 -39 27 -30 11 -39 -47 -25 -30 7 -80 15
-113 19 l-60 8 29 -30 c33 -36 60 -47 140 -61 65 -12 88 -25 79 -47 -7 -18
-53 -18 -123 1 -61 16 -140 20 -140 6 0 -10 100 -55 157 -70 47 -13 59 -24 40
-39 -9 -8 -43 -8 -111 -2 -54 6 -102 7 -107 4 -18 -11 3 -24 72 -45 38 -11 72
-25 75 -30 3 -5 -38 -9 -94 -9 -92 0 -103 2 -163 33 -38 19 -65 39 -67 50 -7
34 92 231 139 278 25 25 78 25 189 -2z m1354 -250 c4 -44 13 -112 21 -150 21
-97 20 -139 -2 -139 -26 1 -96 34 -112 54 -19 23 -10 112 24 211 44 132 59
137 69 24z"/>
<path d="M1968 1430 c56 -38 107 -70 114 -70 18 0 -60 78 -111 111 -25 16 -58
29 -75 29 -26 0 -17 -8 72 -70z"/>
<path d="M2599 2628 c-14 -59 -19 -232 -6 -244 19 -19 27 29 27 159 0 75 -2
137 -4 137 -2 0 -10 -24 -17 -52z"/>
<path d="M1140 1226 c0 -2 16 -23 35 -46 l35 -42 -6 -127 -7 -127 33 -27 c38
-33 88 -59 163 -87 30 -11 61 -28 70 -38 9 -9 21 -49 27 -87 6 -38 13 -71 14
-73 9 -8 36 84 36 121 0 55 -16 71 -135 130 -49 25 -110 62 -134 84 l-44 39
12 52 c6 29 11 76 11 104 0 45 -4 54 -39 89 -32 32 -71 51 -71 35z"/>
<path d="M1503 1077 c-12 -6 -42 -25 -66 -42 -25 -16 -53 -35 -63 -42 -17 -10
-14 -12 20 -12 29 -1 58 11 122 50 46 28 84 52 84 55 0 9 -77 3 -97 -9z"/>
<path d="M2065 1034 c-27 -12 -71 -32 -96 -43 -54 -25 -81 -67 -100 -156 -17
-84 -22 -90 -90 -126 -75 -40 -94 -64 -119 -150 -24 -79 -54 -109 -109 -109
-45 0 -75 16 -166 85 -116 89 -162 85 -239 -21 -29 -40 -66 -77 -97 -96 -27
-17 -48 -33 -46 -34 8 -8 123 28 140 44 10 9 34 38 54 64 47 64 80 65 153 6
125 -103 133 -108 164 -108 18 0 55 14 86 33 47 28 60 43 98 114 39 74 51 88
116 133 82 57 94 76 103 164 3 33 9 68 13 76 5 8 41 30 81 50 63 30 122 81
108 94 -2 2 -26 -7 -54 -20z"/>
<path d="M1653 958 c-45 -49 -54 -102 -31 -168 l11 -34 25 85 c41 144 40 166
-5 117z"/>
<path d="M1893 584 c-92 -104 -104 -134 -48 -120 24 6 36 21 103 134 44 74 17
68 -55 -14z"/>
</g>
</svg>
