<?xml version="1.0" standalone="no"?>
<!DOCTYPE svg PUBLIC "-//W3C//DTD SVG 20010904//EN"
 "http://www.w3.org/TR/2001/REC-SVG-20010904/DTD/svg10.dtd">
<svg version="1.0" xmlns="http://www.w3.org/2000/svg"
 width="266.000000pt" height="297.000000pt" viewBox="0 0 266.000000 297.000000"
 preserveAspectRatio="xMidYMid meet">
<metadata>
Created by potrace 1.10, written by Peter Selinger 2001-2011
</metadata>
<g transform="translate(0.000000,297.000000) scale(0.100000,-0.100000)"
fill="#000000" stroke="none">
<path d="M1195 2913 c-69 -64 -131 -89 -274 -113 -209 -35 -258 -73 -311 -239
-46 -144 -75 -162 -71 -46 l2 66 -84 -66 c-194 -149 -246 -253 -218 -434 6
-41 9 -76 6 -79 -3 -3 -19 2 -36 12 -38 23 -45 15 -55 -62 -5 -44 -2 -62 20
-112 26 -58 26 -60 10 -92 -13 -24 -18 -58 -18 -128 -1 -94 0 -96 39 -160 48
-80 58 -153 27 -213 -16 -30 -18 -44 -11 -78 6 -23 14 -50 19 -60 6 -10 10
-33 10 -51 0 -35 -96 -526 -111 -564 -4 -13 -26 -34 -47 -48 -50 -31 -66 -73
-51 -130 6 -23 9 -67 5 -100 -13 -129 69 -211 186 -184 56 12 85 41 103 101 9
30 31 67 56 94 37 41 40 48 36 86 -3 23 -8 65 -12 92 -5 40 1 77 30 180 20 72
37 137 39 145 46 188 75 272 107 302 33 31 49 66 56 123 9 67 28 91 115 142
72 42 86 55 108 98 14 28 33 62 43 75 12 17 17 43 17 85 l0 61 83 80 c81 76
117 131 134 203 3 14 19 51 37 81 36 65 186 408 186 427 0 32 -117 -1 -237
-67 -40 -23 -78 -38 -83 -35 -26 16 -1 81 59 155 86 105 137 195 151 269 9 49
2 231 -9 231 -3 -1 -28 -22 -56 -47z m5 -143 c0 -55 -38 -130 -120 -241 -98
-130 -115 -169 -94 -218 18 -44 50 -71 83 -71 14 0 53 16 86 36 73 44 105 57
105 43 0 -18 -70 -191 -97 -242 -15 -27 -56 -75 -90 -107 -70 -64 -78 -87 -33
-96 17 -4 30 -11 30 -16 0 -16 -112 -122 -170 -161 -90 -61 -138 -45 -75 25
47 51 80 125 95 208 13 72 7 131 -20 199 l-17 45 -21 -39 -20 -40 -18 40 c-23
54 -23 152 0 255 23 102 16 149 -13 85 -23 -52 -112 -135 -228 -214 -102 -69
-139 -111 -159 -179 -16 -52 -19 -209 -4 -247 10 -25 35 -43 47 -31 3 3 7 62
9 130 4 144 10 160 81 227 52 48 136 109 151 109 5 0 18 -28 28 -62 23 -80 24
-216 1 -275 -9 -24 -13 -43 -8 -43 4 0 34 21 67 46 l59 46 3 -26 c4 -33 -61
-158 -109 -208 -43 -45 -56 -46 -190 -18 -125 27 -221 55 -267 77 -37 18 -86
78 -76 94 3 5 25 9 50 9 l45 0 -3 178 c-3 166 -2 179 19 218 23 42 107 124
127 124 6 -1 20 -15 31 -33 30 -47 67 -48 110 -3 18 19 40 55 49 78 9 24 25
69 37 101 40 112 75 132 281 167 64 11 140 30 169 43 30 13 57 22 62 20 4 -2
7 -17 7 -33z m-658 -1109 c246 -61 311 -84 316 -113 5 -26 -28 -23 -171 11
-67 17 -193 46 -280 65 -87 20 -162 38 -168 41 -26 17 2 55 41 55 14 0 132
-26 262 -59z m-23 -137 c124 -31 241 -62 259 -69 34 -15 43 -42 17 -51 -33
-13 -439 77 -512 113 -49 23 -59 63 -17 63 15 0 129 -25 253 -56z m-75 -150
c22 -8 22 -92 1 -100 -37 -15 -97 22 -92 56 7 42 46 61 91 44z m110 -20 c33
-13 12 -94 -24 -94 -40 0 -47 59 -11 87 19 15 16 14 35 7z m-69 -168 c75 -21
111 -37 113 -48 5 -24 -22 -29 -106 -17 -150 20 -223 54 -190 87 19 19 64 13
183 -22z m-115 -151 c9 -11 5 -51 -24 -192 -39 -197 -53 -297 -38 -273 5 8 13
31 17 50 22 104 108 397 120 409 12 13 15 12 21 -4 9 -21 4 -41 -69 -330 -61
-238 -73 -261 -126 -249 -50 12 -55 25 -42 106 15 90 99 477 107 489 8 13 20
11 34 -6z m-95 -678 c63 -25 80 -36 80 -52 0 -17 -6 -20 -45 -17 -62 4 -197
41 -211 58 -9 11 -9 18 1 29 20 24 88 17 175 -18z m-95 -170 c0 -40 -20 -70
-38 -59 -19 12 -27 79 -12 97 20 24 50 1 50 -38z m86 9 c9 -24 -19 -71 -44
-74 -22 -3 -23 -1 -16 35 4 21 9 41 11 46 7 13 43 8 49 -7z"/>
<path d="M1386 2735 c-84 -103 -107 -173 -65 -195 32 -18 75 -2 113 40 48 53
54 95 24 161 l-24 53 -48 -59z m13 -117 c-7 -13 -14 -18 -16 -11 -3 7 1 22 8
35 7 13 14 18 16 11 3 -7 -1 -22 -8 -35z"/>
<path d="M1721 2230 c-84 -112 -108 -156 -128 -236 l-18 -69 -6 80 c-10 141
-22 157 -78 110 -40 -34 -86 -129 -106 -220 -10 -41 -18 -75 -20 -75 -1 0 -19
13 -39 29 -70 56 -91 14 -90 -175 0 -124 -1 -131 -18 -121 -21 14 -43 -11 -53
-60 -8 -42 18 -161 50 -230 14 -30 25 -60 25 -65 0 -6 -17 -8 -45 -4 -41 7
-45 5 -45 -14 0 -29 54 -132 91 -174 41 -47 85 -73 147 -87 60 -12 78 -29 32
-29 -36 0 -70 -16 -70 -32 0 -6 12 -26 26 -45 76 -100 246 -144 360 -94 92 41
113 16 40 -50 -47 -43 -90 -114 -101 -168 l-7 -34 31 19 c17 11 67 52 112 92
44 40 86 72 93 72 15 0 66 -40 159 -122 35 -32 67 -58 71 -58 25 0 -28 137
-80 205 -41 54 -28 70 49 59 34 -5 100 -9 147 -9 74 0 91 4 130 27 63 38 164
142 157 162 -4 10 -22 16 -53 18 -56 4 -67 21 -26 42 46 24 90 73 121 135 41
81 65 211 42 225 -4 3 -29 -8 -55 -24 -72 -46 -84 -38 -43 28 32 50 78 168 84
214 4 22 -3 65 -17 110 -32 105 -46 111 -92 38 -17 -28 -33 -48 -35 -46 -2 2
3 32 12 67 30 112 1 238 -73 320 -67 75 -81 66 -83 -49 l0 -67 -19 53 c-28 77
-52 112 -107 153 -162 121 -183 119 -148 -14 19 -72 55 -145 89 -176 35 -33
33 -43 -9 -35 -38 7 -105 -2 -105 -14 0 -4 78 -70 174 -146 181 -144 227 -191
132 -137 -70 40 -96 41 -96 2 0 -55 50 -202 111 -322 55 -112 59 -124 48 -150
-16 -39 -26 -36 -39 10 -5 21 -17 41 -25 44 -23 10 -155 -148 -257 -309 -51
-79 -99 -114 -156 -114 -53 0 -94 29 -116 81 -73 174 -179 360 -211 373 -14 5
-25 -21 -60 -148 -15 -55 -17 -58 -33 -42 -16 16 -15 24 21 127 44 123 55 206
38 274 -15 58 -12 63 101 183 49 52 95 107 103 122 14 27 14 29 -15 39 -50 17
-45 24 105 146 50 40 99 82 109 94 19 21 19 21 0 21 -10 0 -36 -4 -56 -9 -26
-6 -40 -5 -46 3 -5 6 -12 55 -16 109 -6 97 -25 167 -45 167 -5 0 -37 -36 -70
-80z m28 -190 c-20 -36 -69 -70 -99 -70 -13 0 46 115 88 170 l27 35 3 -48 c2
-35 -3 -58 -19 -87z m416 38 c47 -54 81 -126 67 -140 -15 -15 -57 33 -93 104
-46 91 -35 106 26 36z m-663 -158 c1 -55 -34 -160 -53 -160 -19 0 -1 172 23
234 l12 29 8 -24 c5 -13 10 -49 10 -79z m921 -102 c3 -98 -25 -92 -43 10 -9
52 -9 74 0 97 l12 30 15 -40 c8 -22 15 -65 16 -97z m-744 56 c-43 -45 -129
-105 -141 -98 -14 9 10 32 86 85 82 58 103 63 55 13z m583 -44 c37 -11 64 -43
87 -103 18 -46 -10 -33 -90 43 -77 73 -77 82 3 60z m-937 -110 c19 -37 33
-214 17 -224 -13 -8 -29 40 -42 129 -17 125 -8 160 25 95z m315 -22 c0 -18
-130 -139 -179 -166 -34 -19 -41 -20 -41 -7 0 62 133 183 203 185 9 0 17 -6
17 -12z m885 -238 c-8 -16 -23 -30 -32 -30 -22 0 -12 76 19 150 l23 55 3 -72
c2 -51 -2 -81 -13 -103z m-156 34 c22 -25 47 -68 56 -95 18 -52 13 -103 -8
-97 -15 4 -94 163 -103 206 -9 45 7 41 55 -14z m-1075 -116 c36 -53 66 -133
66 -177 0 -24 0 -24 -21 -5 -23 21 -83 124 -100 173 -11 32 -7 61 9 61 5 0 26
-24 46 -52z m194 -8 c3 -52 -19 -170 -38 -200 -19 -30 -33 9 -38 105 -5 95 -4
96 24 126 15 16 33 28 39 26 5 -2 11 -28 13 -57z m1072 -169 c0 -10 -10 -31
-22 -47 -39 -52 -132 -144 -146 -144 -20 0 -14 10 67 115 72 93 101 114 101
76z m-1166 -160 c33 -25 62 -55 64 -65 4 -16 0 -18 -34 -12 -72 14 -114 38
-150 84 -18 25 -34 51 -34 58 0 22 86 -14 154 -65z m896 0 c0 -60 -28 -104
-94 -148 -62 -42 -86 -44 -60 -5 28 43 146 202 150 202 2 0 4 -22 4 -49z
m-626 -53 c47 -99 52 -118 29 -118 -29 0 -103 74 -103 103 0 45 12 87 26 87 7
0 29 -33 48 -72z m746 -118 c13 -9 9 -15 -19 -40 -48 -41 -128 -63 -181 -51
-23 5 -44 11 -46 14 -7 7 97 64 137 75 45 13 91 14 109 2z m-771 -48 c20 -9
37 -25 39 -34 3 -16 -5 -18 -61 -18 -69 0 -121 13 -150 39 -18 15 -18 16 0 29
23 18 123 9 172 -16z"/>
<path d="M1933 1723 c-11 -26 -32 -82 -47 -123 -40 -113 -24 -102 -176 -115
-42 -4 -82 -10 -88 -14 -9 -5 12 -28 63 -70 42 -34 79 -69 82 -77 3 -8 -7 -62
-21 -121 -15 -58 -25 -107 -23 -109 4 -4 33 11 157 78 53 29 98 19 181 -41 38
-28 72 -51 74 -51 10 0 5 46 -10 94 -8 27 -15 71 -15 98 0 52 1 53 84 126 20
19 35 39 33 45 -2 7 -41 21 -88 32 l-84 20 -45 132 c-25 72 -48 134 -51 138
-4 3 -15 -16 -26 -42z m40 -188 c26 -61 53 -93 95 -110 l36 -15 -38 -39 c-37
-37 -38 -42 -32 -85 8 -53 -4 -60 -47 -26 -14 11 -30 20 -36 20 -7 0 -29 -9
-51 -20 -59 -30 -62 -28 -54 38 6 56 5 59 -25 85 -17 14 -31 30 -31 36 0 6 22
13 49 17 49 6 50 7 75 64 14 32 26 63 26 69 0 25 16 8 33 -34z"/>
<path d="M1015 781 c-45 -19 -76 -26 -86 -20 -33 17 -119 -64 -149 -141 -19
-51 -31 -62 -57 -57 -13 2 -27 -1 -32 -7 -26 -33 -37 -223 -16 -298 6 -22 3
-29 -11 -34 -74 -26 -117 -100 -90 -152 17 -32 34 -42 74 -42 19 0 41 16 82
61 52 56 62 62 111 70 69 11 163 57 222 110 45 39 60 73 35 81 -18 6 -2 24 55
62 78 52 114 93 101 114 -9 14 -2 24 38 60 55 50 60 77 24 111 -19 18 -40 24
-91 29 -37 2 -68 10 -70 16 -2 6 -6 23 -9 39 -8 36 -39 35 -131 -2z m40 -101
c-19 -36 -83 -110 -96 -110 -5 0 -9 15 -9 34 0 41 34 86 82 109 39 19 45 10
23 -33z m199 -20 c23 -23 -29 -60 -111 -78 -55 -12 -72 -2 -50 31 33 51 128
79 161 47z m-393 -216 l-9 -29 -16 37 c-21 49 -20 118 2 164 l17 37 7 -90 c4
-50 3 -103 -1 -119z m289 46 c0 -12 -99 -77 -157 -104 -79 -35 -100 10 -34 75
38 38 40 39 115 39 45 0 76 -4 76 -10z m-371 -112 c11 -23 17 -51 15 -66 -5
-28 -30 -60 -39 -50 -5 5 -35 161 -35 182 0 18 39 -27 59 -66z m191 -88 c0
-11 -96 -60 -117 -60 -22 0 -14 28 13 49 28 22 104 30 104 11z m-300 -172
c-34 -28 -48 -9 -15 20 21 18 30 21 33 12 3 -8 -5 -22 -18 -32z"/>
</g>
</svg>
