<?xml version="1.0" standalone="no"?>
<!DOCTYPE svg PUBLIC "-//W3C//DTD SVG 20010904//EN"
 "http://www.w3.org/TR/2001/REC-SVG-20010904/DTD/svg10.dtd">
<svg version="1.0" xmlns="http://www.w3.org/2000/svg"
 width="288.000000pt" height="300.000000pt" viewBox="0 0 288.000000 300.000000"
 preserveAspectRatio="xMidYMid meet">
<metadata>
Created by potrace 1.10, written by Peter Selinger 2001-2011
</metadata>
<g transform="translate(0.000000,300.000000) scale(0.100000,-0.100000)"
fill="#000000" stroke="none">
<path d="M1255 2956 c-95 -31 -151 -69 -248 -170 -114 -117 -137 -149 -137
-193 0 -45 -9 -62 -42 -79 -42 -22 -107 -83 -124 -117 -21 -40 -12 -71 42
-139 24 -31 44 -63 44 -71 0 -41 -92 -109 -165 -122 -57 -10 -214 -90 -292
-150 -149 -113 -205 -250 -239 -585 -8 -80 -22 -172 -31 -205 -9 -33 -18 -89
-21 -125 -6 -102 21 -165 153 -355 6 -9 -1 -57 -23 -147 -40 -171 -84 -411
-80 -440 2 -19 10 -24 44 -26 l42 -3 7 53 c12 96 64 341 74 351 15 15 92 -35
143 -91 24 -27 64 -86 88 -131 25 -45 59 -103 75 -129 l30 -47 376 -3 c285 -2
386 1 415 11 l39 12 0 125 c0 105 2 125 15 123 8 -1 62 -17 120 -37 58 -19
131 -42 163 -52 103 -30 124 -63 93 -138 -14 -34 -14 -34 16 -40 17 -3 169 -6
339 -6 l308 0 -24 53 c-29 61 -31 96 -8 144 30 65 185 164 323 208 78 24 100
52 100 124 0 96 3 95 -288 99 -136 2 -341 -2 -457 -9 -231 -13 -361 -17 -368
-9 -2 3 -8 34 -11 70 l-7 66 78 61 c43 33 123 100 178 147 55 47 105 86 111
86 6 0 71 -43 144 -95 74 -52 137 -92 141 -88 9 10 29 186 29 256 0 38 -8 72
-25 109 -14 29 -25 67 -25 83 0 33 -14 57 -74 128 -32 37 -43 44 -57 36 -32
-17 -47 -10 -72 34 -14 23 -40 56 -59 74 l-33 32 -87 -70 c-48 -38 -90 -78
-93 -89 -7 -21 21 -87 74 -175 l30 -50 -151 -118 c-84 -66 -157 -121 -163
-123 -9 -4 -14 30 -18 118 -9 189 -33 300 -94 444 -33 80 -34 82 -19 119 9 22
16 67 16 109 1 99 13 146 48 176 37 31 45 48 66 128 23 93 74 204 105 229 25
20 26 25 26 130 0 97 -3 114 -27 166 -34 72 -117 160 -214 227 -136 94 -236
124 -319 96z m131 -76 c57 -13 174 -82 237 -140 79 -72 119 -145 125 -228 6
-92 -3 -98 -93 -66 -161 58 -313 87 -553 103 -73 5 -136 11 -139 15 -3 3 -2
25 3 48 l9 43 150 1 c151 1 234 15 243 42 3 9 -28 12 -125 12 -93 0 -134 4
-148 14 -18 13 -18 14 4 45 32 44 84 82 144 102 59 21 85 22 143 9z m128 -455
c113 -33 186 -64 186 -79 0 -7 -10 -22 -22 -34 l-23 -21 -65 29 c-67 30 -127
38 -161 20 -30 -17 -23 -28 29 -43 l47 -14 -27 -11 c-33 -14 -34 -16 -8 -52
32 -44 56 -47 90 -10 20 21 37 30 52 28 22 -3 23 -7 20 -66 -5 -116 -27 -135
-100 -87 l-39 25 -89 -26 c-138 -41 -178 -52 -185 -48 -4 2 -2 22 4 44 10 34
8 46 -11 85 -12 25 -22 51 -22 58 0 21 49 118 76 150 17 20 24 37 20 52 -3 12
-2 25 2 30 12 13 134 -3 226 -30z m-428 -6 c19 -21 18 -21 -4 -39 -27 -23 -29
-56 -2 -70 26 -14 25 -26 -4 -45 -68 -45 -113 75 -55 149 25 31 40 33 65 5z
m-93 -249 c-11 -204 -9 -222 24 -295 31 -67 39 -117 34 -205 l-2 -35 -39 45
c-22 25 -80 97 -130 160 -49 63 -100 129 -114 146 l-26 32 106 102 c124 117
151 127 147 50z m-196 -331 c71 -89 161 -200 201 -248 76 -89 112 -150 152
-259 12 -34 28 -61 34 -59 6 2 41 52 77 113 64 107 91 134 136 134 12 0 38 14
57 31 20 17 40 28 45 25 5 -4 24 -42 41 -87 36 -93 49 -204 50 -405 0 -113 -3
-135 -18 -154 l-19 -23 -57 26 c-49 23 -56 29 -52 49 19 90 15 403 -4 367 -4
-8 -29 -99 -55 -204 -26 -104 -50 -193 -54 -197 -3 -4 -40 -17 -83 -29 l-76
-22 -99 18 c-110 20 -240 58 -265 77 -22 16 -34 101 -47 308 -9 138 -33 271
-47 257 -3 -3 -12 -72 -20 -153 -8 -82 -17 -150 -19 -152 -2 -2 -20 2 -41 8
-72 24 -303 -1 -407 -45 -20 -8 -41 -15 -47 -15 -15 0 -12 157 5 276 28 183
66 265 169 362 69 64 245 162 292 162 18 0 50 -34 151 -161z m677 131 c42 -15
30 -30 -23 -30 -54 0 -72 12 -44 29 23 13 35 13 67 1z m624 -447 c2 -7 -3 -13
-11 -13 -8 0 -34 -13 -58 -30 -24 -16 -47 -30 -51 -30 -17 0 7 32 45 60 42 31
67 35 75 13z m178 -200 c62 -96 97 -181 60 -143 -29 29 -156 224 -156 239 0
22 55 -34 96 -96z m-1638 -135 c49 -15 62 -33 62 -88 l0 -49 -77 5 c-150 11
-305 -46 -392 -143 -59 -66 -66 -64 -87 24 -28 119 -16 157 64 197 133 66 315
90 430 54z m1339 -111 c-11 -17 -222 -196 -293 -249 -8 -6 -23 0 -40 15 -33
29 -47 13 141 153 174 130 187 138 198 118 5 -9 3 -23 -6 -37z m-1233 -126
c89 -47 203 -85 325 -107 l90 -16 105 31 c58 17 115 31 126 31 56 0 270 -146
270 -184 0 -8 -6 -19 -14 -25 -17 -14 -29 -9 -113 49 -31 22 -60 40 -65 40
-19 0 -5 -40 32 -94 43 -61 50 -90 24 -100 -11 -4 -37 14 -80 56 -35 34 -67
59 -69 56 -3 -3 10 -45 30 -93 29 -68 34 -90 24 -101 -17 -21 -32 -17 -52 14
-22 32 -95 87 -104 78 -4 -4 4 -30 16 -59 13 -28 24 -63 25 -77 1 -21 -4 -25
-31 -28 -19 -2 -33 1 -33 8 0 39 -149 172 -214 190 -35 9 -70 9 -181 -4 -168
-20 -362 -21 -430 -2 -55 14 -130 50 -157 74 -28 24 -25 129 5 173 54 80 168
128 304 129 88 0 95 -2 167 -39z m2043 -376 c3 -9 2 -19 -2 -23 -3 -4 -168 -9
-364 -12 -291 -4 -361 -8 -375 -19 -10 -8 -31 -40 -46 -70 l-29 -56 -1 76 c0
59 4 80 16 90 21 18 159 25 522 27 238 2 273 0 279 -13z m-934 -11 c65 -10 43
-27 -25 -20 -82 9 -108 16 -108 28 0 10 23 8 133 -8z m-692 -147 c-6 -8 -30
-27 -52 -43 l-41 -28 -19 23 c-26 32 -25 38 22 84 l40 40 31 -31 c25 -25 29
-34 19 -45z"/>
<path d="M2593 1288 c-16 -8 -24 -25 -32 -72 -16 -83 -25 -192 -17 -185 13 13
96 224 96 247 0 24 -13 27 -47 10z"/>
<path d="M2654 954 c-98 -69 -105 -76 -101 -81 5 -5 183 73 216 94 23 15 24
16 6 29 -29 21 -37 18 -121 -42z"/>
<path d="M2220 801 c0 -14 90 -91 106 -91 28 0 12 20 -46 60 -33 22 -60 36
-60 31z"/>
</g>
</svg>
