<?xml version="1.0" standalone="no"?>
<!DOCTYPE svg PUBLIC "-//W3C//DTD SVG 20010904//EN"
 "http://www.w3.org/TR/2001/REC-SVG-20010904/DTD/svg10.dtd">
<svg version="1.0" xmlns="http://www.w3.org/2000/svg"
 width="273.000000pt" height="295.000000pt" viewBox="0 0 273.000000 295.000000"
 preserveAspectRatio="xMidYMid meet">
<metadata>
Created by potrace 1.10, written by Peter Selinger 2001-2011
</metadata>
<g transform="translate(0.000000,295.000000) scale(0.100000,-0.100000)"
fill="#000000" stroke="none">
<path d="M2534 2861 c-284 -125 -299 -134 -335 -181 -54 -71 -505 -645 -599
-761 -47 -59 -94 -119 -106 -135 l-21 -29 -159 152 c-87 83 -192 185 -233 227
l-74 75 106 111 c59 61 107 119 107 128 -1 22 -14 38 -69 85 -25 20 -54 37
-66 37 -27 0 -73 -34 -185 -133 l-85 -75 -26 19 c-55 39 -308 280 -327 311
-11 18 -22 50 -25 70 -3 20 -15 58 -26 83 l-20 46 -160 -3 c-114 -2 -164 -7
-173 -16 -19 -19 -24 -244 -6 -297 11 -35 21 -44 76 -70 50 -24 93 -61 213
-180 83 -82 164 -166 180 -186 l29 -36 -102 -109 c-114 -123 -138 -157 -138
-198 0 -31 54 -90 98 -107 30 -11 37 -7 151 90 47 39 90 71 97 71 27 0 474
-452 474 -479 0 -12 -149 -181 -166 -188 -7 -3 -43 16 -79 41 -36 25 -70 46
-74 46 -12 0 -21 -63 -21 -145 0 -65 3 -74 40 -129 22 -32 40 -65 40 -73 0 -8
-23 -39 -52 -69 l-52 -55 -30 55 c-17 30 -40 66 -50 81 -17 23 -17 31 -7 66 7
23 11 43 8 45 -2 2 -30 -8 -61 -22 -68 -31 -74 -30 -162 45 -34 28 -66 51 -72
51 -13 0 -22 -36 -22 -94 0 -47 -3 -51 -60 -105 -33 -31 -64 -69 -70 -84 -8
-22 -25 -35 -70 -54 -33 -15 -60 -29 -60 -32 0 -3 26 -20 58 -37 74 -40 143
-131 139 -184 l-2 -35 72 -5 c39 -3 75 -8 79 -12 15 -16 -28 -56 -106 -98
-104 -56 -115 -71 -107 -155 10 -106 50 -155 150 -189 65 -22 95 -20 154 9 44
22 55 34 81 88 46 97 53 100 113 41 27 -27 61 -73 76 -103 25 -54 25 -54 42
-33 16 22 148 74 186 74 11 0 32 -3 48 -7 26 -7 27 -6 27 27 0 55 30 85 101
99 l60 12 -44 46 c-33 34 -47 57 -52 88 -4 23 -15 53 -26 67 -23 30 -24 57 -3
98 l16 31 -48 -7 c-27 -4 -66 -10 -86 -13 -22 -3 -38 -1 -38 4 0 13 129 163
140 163 5 0 37 -17 72 -37 45 -28 74 -38 103 -38 45 1 138 44 143 66 1 8 -18
38 -43 68 -25 29 -45 61 -45 70 0 20 37 74 96 139 l39 44 89 -94 c50 -51 204
-208 343 -349 l253 -256 92 -36 c186 -71 408 -132 408 -112 0 2 -22 79 -50
170 -57 189 -89 270 -133 335 -16 25 -183 198 -369 386 l-339 341 53 74 c30
41 194 260 366 487 172 227 330 439 351 471 34 54 40 72 64 222 28 171 33 224
19 233 -5 3 -58 -17 -118 -43z m-2212 -50 c41 -8 61 -42 47 -80 -13 -32 -40
-63 -102 -112 -40 -32 -57 -39 -92 -39 -41 0 -43 1 -49 38 -3 20 -6 77 -6 125
l0 89 84 -7 c47 -4 100 -10 118 -14z m2248 -35 c0 -32 -32 -186 -52 -245 -17
-53 -55 -110 -221 -330 -244 -324 -531 -693 -552 -711 -13 -11 -20 -9 -45 15
-17 16 -30 35 -30 43 0 17 29 59 219 317 518 703 575 784 568 791 -6 6 -253
-286 -478 -566 -248 -309 -358 -440 -376 -447 -9 -4 -29 8 -50 30 l-36 35 169
208 c93 115 251 313 352 439 100 127 198 249 217 272 27 32 63 56 157 102 126
62 158 71 158 47z m-2125 -181 l30 -24 -38 -1 c-21 0 -58 -5 -82 -11 -66 -17
-75 -7 -26 29 53 38 76 40 116 7z m90 -85 c47 -18 21 -34 -81 -52 -127 -22
-118 -22 -150 6 l-28 24 69 10 c39 7 81 13 95 15 47 8 69 7 95 -3z m580 -20
c13 -15 16 -25 9 -40 -12 -28 -573 -589 -640 -641 -59 -46 -87 -48 -92 -7 -3
23 12 44 90 124 127 132 597 584 607 584 4 0 16 -9 26 -20z m-475 -89 c0 -4
-28 -15 -62 -24 -35 -9 -82 -22 -105 -29 -37 -11 -44 -10 -63 7 -29 26 -20 39
31 46 70 10 199 10 199 0z m95 -91 c3 -5 -14 -14 -37 -20 -24 -6 -74 -20 -112
-31 l-68 -20 -24 22 c-21 20 -22 24 -8 32 39 22 237 36 249 17z m-80 -110
c-21 -23 -75 -27 -75 -6 0 18 15 24 59 25 33 1 34 1 16 -19z m266 -161 c3 -30
4 -56 2 -58 -5 -6 -62 61 -63 73 0 15 32 47 44 43 6 -2 14 -28 17 -58z m451
-301 c204 -200 533 -527 731 -728 287 -291 364 -375 382 -415 26 -60 99 -304
93 -310 -6 -6 -65 13 -213 67 -68 25 -130 56 -162 80 -29 22 -272 264 -540
537 -268 273 -579 588 -690 699 -112 112 -203 208 -203 213 0 6 37 7 93 3 l92
-6 195 -192 c107 -106 419 -413 692 -684 273 -271 503 -492 510 -492 7 0 -12
26 -42 57 -166 174 -315 329 -681 708 -223 231 -455 473 -517 538 -116 123
-122 134 -137 240 -5 39 -4 47 10 47 8 0 183 -163 387 -362z m-514 237 l37
-34 -55 0 c-30 1 -66 4 -80 8 l-25 7 29 27 c38 35 49 34 94 -8z m385 -686 c43
-36 49 -75 16 -105 -17 -15 -40 -20 -111 -23 -74 -2 -89 -1 -82 10 12 22 127
149 134 149 3 0 22 -14 43 -31z m158 -167 l41 -37 -52 -65 c-28 -36 -55 -66
-59 -68 -23 -8 -28 170 -5 192 22 23 30 20 75 -22z m-355 -133 c78 -68 167
-146 198 -172 95 -82 56 -110 -50 -36 -212 149 -358 301 -338 354 6 14 9 14
28 -3 11 -10 85 -74 162 -143z m95 95 c50 -11 74 -22 84 -38 18 -27 32 -116
18 -116 -18 0 -100 58 -158 113 -69 65 -64 68 56 41z m-602 -157 c26 -11 41
-12 58 -4 33 15 53 -5 35 -33 -11 -17 -9 -24 9 -43 51 -54 54 -63 29 -115 -13
-26 -30 -62 -39 -81 -23 -49 -64 -71 -134 -71 -71 0 -106 17 -140 69 -31 47
-33 58 -11 82 15 16 14 20 -3 49 l-18 32 42 38 c47 41 63 74 63 128 l0 36 38
-36 c20 -21 52 -43 71 -51z m477 -108 c27 -26 31 -49 9 -49 -21 0 -115 48
-115 59 0 30 70 23 106 -10z m-88 -81 c26 -16 32 -26 30 -47 -4 -34 -30 -37
-104 -12 -63 21 -73 33 -53 57 31 37 68 38 127 2z m-107 -110 c42 -24 48 -41
22 -70 -31 -34 -143 -16 -143 23 0 17 55 69 74 69 4 0 26 -10 47 -22z m184
-148 c4 -14 15 -20 35 -20 35 0 49 -21 57 -89 10 -88 -1 -118 -60 -155 -29
-19 -59 -41 -66 -50 -14 -17 -61 -22 -61 -7 0 19 -32 41 -60 41 -50 0 -63 24
-58 109 6 97 20 123 88 159 67 37 116 41 125 12z m-268 -16 c40 -30 38 -42 -7
-55 -36 -11 -49 -10 -96 6 -70 24 -82 38 -52 60 31 22 119 16 155 -11z m-140
-109 c23 -14 43 -29 43 -32 0 -18 -47 -53 -71 -53 -47 0 -109 77 -82 103 14
15 69 6 110 -18z m-126 -118 c45 -34 84 -67 86 -73 2 -7 -6 -24 -19 -39 -28
-32 -89 -43 -143 -25 -30 10 -41 22 -61 64 -26 56 -31 105 -12 124 26 26 67
13 149 -51z"/>
<path d="M452 808 c-30 -30 0 -108 42 -108 23 0 66 37 66 57 0 6 -9 22 -21 37
-22 28 -66 35 -87 14z"/>
<path d="M892 394 c-28 -19 -28 -53 -2 -82 38 -40 84 -25 94 30 10 55 -44 86
-92 52z"/>
<path d="M1611 2570 c-18 -70 -49 -103 -123 -131 -40 -15 -56 -25 -43 -27 58
-8 106 -27 125 -47 12 -13 32 -56 45 -97 22 -69 23 -71 24 -33 2 52 33 119 65
140 15 10 43 23 63 30 43 15 55 35 22 35 -37 0 -103 37 -121 68 -10 16 -20 48
-24 70 -4 23 -10 42 -13 42 -4 0 -13 -23 -20 -50z"/>
<path d="M2286 1690 c-27 -103 -62 -139 -149 -155 -21 -4 -36 -12 -35 -17 2
-5 27 -18 56 -27 84 -29 110 -61 132 -166 15 -70 30 -93 30 -47 0 56 21 132
46 161 14 17 49 37 86 51 35 12 67 25 71 29 4 4 -18 15 -50 24 -32 9 -65 23
-73 29 -30 25 -59 75 -71 124 -6 27 -15 52 -18 57 -4 4 -15 -25 -25 -63z"/>
<path d="M590 1533 c-18 -34 -37 -54 -64 -67 l-39 -19 46 -24 c39 -19 49 -31
64 -73 17 -48 33 -50 33 -4 0 33 37 72 82 86 l40 12 -51 22 c-31 14 -54 32
-60 46 -5 13 -13 33 -17 46 -8 20 -11 19 -34 -25z"/>
<path d="M1610 633 c0 -68 -59 -153 -105 -153 -38 0 -39 -18 -1 -25 19 -4 44
-16 56 -27 25 -24 50 -77 50 -108 0 -32 17 -15 24 25 10 49 58 101 101 109 42
8 38 20 -13 37 -54 17 -68 33 -86 99 -17 60 -26 75 -26 43z"/>
</g>
</svg>
