<?xml version="1.0" standalone="no"?>
<!DOCTYPE svg PUBLIC "-//W3C//DTD SVG 20010904//EN"
 "http://www.w3.org/TR/2001/REC-SVG-20010904/DTD/svg10.dtd">
<svg version="1.0" xmlns="http://www.w3.org/2000/svg"
 width="300.000000pt" height="308.000000pt" viewBox="0 0 300.000000 308.000000"
 preserveAspectRatio="xMidYMid meet">
<metadata>
Created by potrace 1.10, written by Peter Selinger 2001-2011
</metadata>
<g transform="translate(0.000000,308.000000) scale(0.100000,-0.100000)"
fill="#000000" stroke="none">
<path d="M926 3039 c-220 -67 -277 -111 -386 -299 -115 -196 -174 -260 -242
-260 -35 0 -35 -9 0 -43 41 -39 86 -50 147 -36 39 10 58 22 95 62 81 90 215
217 228 217 8 0 27 -10 44 -21 28 -20 30 -25 24 -68 -3 -25 -19 -98 -35 -161
-54 -217 -36 -188 -161 -259 -103 -59 -227 -116 -348 -163 -97 -37 -92 -86 14
-133 74 -33 211 -82 267 -96 52 -13 52 -12 35 -60 -18 -54 -69 -127 -152 -219
-97 -107 -127 -164 -134 -251 -4 -56 -1 -75 21 -122 l25 -55 -23 -10 c-35 -16
-94 -72 -113 -106 -11 -22 -16 -54 -15 -111 1 -68 -5 -101 -42 -220 -24 -77
-49 -159 -55 -182 -10 -39 -90 -428 -90 -439 0 -2 145 -3 322 -2 l323 3 139
278 c76 152 141 275 143 273 14 -14 -65 -280 -129 -439 -22 -55 -36 -102 -32
-106 5 -4 31 -6 57 -3 56 5 40 -20 146 237 38 94 89 230 112 303 24 72 48 132
54 132 7 0 19 -8 28 -18 15 -16 12 -34 -38 -227 -29 -116 -72 -261 -94 -323
l-40 -112 353 0 c271 0 356 3 363 13 6 6 13 30 17 52 45 295 42 282 54 252 26
-64 25 -147 -4 -284 l-6 -33 404 0 405 0 45 98 c25 53 51 115 58 136 25 77 -6
204 -78 323 -39 65 -42 74 -42 144 l0 76 40 31 c90 73 163 148 185 192 13 25
31 81 39 123 10 48 28 94 47 124 31 48 31 48 25 152 -9 148 -33 186 -94 145
-15 -10 -31 -17 -36 -16 -5 2 -22 0 -38 -3 -33 -8 -62 -57 -79 -135 -10 -48
-12 -50 -45 -50 -49 0 -72 -37 -56 -93 9 -36 8 -44 -6 -59 -9 -9 -29 -20 -43
-23 l-27 -7 14 59 c24 104 11 188 -34 212 -30 16 -48 -4 -88 -99 -19 -47 -53
-114 -74 -150 -71 -118 -86 -202 -53 -285 23 -57 23 -125 1 -136 -10 -5 -26
-13 -35 -17 -32 -16 -54 -58 -71 -140 -9 -45 -19 -82 -23 -82 -3 0 -30 46 -59
103 -29 56 -64 119 -77 139 -12 21 -26 62 -29 93 -8 63 -48 133 -89 155 -25
13 -33 34 -16 44 5 4 14 37 21 76 18 106 -3 189 -71 283 -34 47 -39 117 -13
194 16 47 15 169 -1 258 -6 30 -5 31 106 84 77 37 127 69 162 102 50 49 50 49
31 70 -24 26 -113 71 -264 133 -210 86 -198 77 -245 191 -46 112 -69 158 -128
260 -118 202 -301 366 -406 364 -20 0 -80 -14 -135 -30z m215 -78 c112 -71
213 -198 314 -396 74 -144 78 -161 38 -150 -16 3 -114 9 -220 12 l-192 5 43
57 c24 31 58 69 75 85 17 17 31 33 31 37 0 3 -31 4 -70 1 -38 -2 -70 -1 -70 4
1 5 15 18 33 29 49 31 48 68 -5 166 -65 123 -89 131 -157 53 -36 -41 -47 -40
-31 1 19 50 10 54 -80 32 -74 -18 -88 -25 -141 -75 -65 -60 -75 -58 -28 6 40
54 90 83 219 126 132 44 181 46 241 7z m324 -625 c76 -17 149 -48 344 -147
145 -74 153 -79 115 -79 -22 0 -103 16 -180 36 -124 32 -153 36 -264 36 -120
1 -171 -7 -349 -52 -25 -6 -113 -38 -197 -70 -84 -33 -179 -67 -211 -75 -85
-23 -250 -43 -286 -35 -30 6 -28 7 28 19 154 30 232 60 485 181 113 54 224
103 247 109 23 7 45 16 49 22 7 12 -136 5 -249 -13 -38 -5 -71 -7 -74 -4 -9 9
77 44 159 66 88 23 292 26 383 6z m93 -272 c61 -7 77 -19 66 -49 -4 -9 -19
-15 -38 -15 -17 0 -50 -9 -73 -19 -39 -18 -42 -23 -53 -78 -10 -46 -10 -71 0
-121 15 -76 8 -88 -59 -100 -59 -10 -48 -27 18 -27 46 1 57 4 78 29 19 23 23
36 19 60 -15 74 -18 126 -8 126 5 0 12 -7 16 -15 8 -22 44 -18 51 5 3 11 12
20 19 20 46 0 48 -95 5 -224 -52 -157 -137 -291 -205 -324 -34 -16 -34 -15
-138 36 -127 63 -204 130 -242 209 l-26 57 22 50 c12 28 39 98 61 155 21 57
45 111 51 119 17 19 142 11 193 -14 27 -12 39 -14 47 -6 17 17 -15 48 -69 68
-49 19 -47 25 12 42 74 22 151 26 253 16z m170 -178 c48 -140 49 -169 17 -265
-38 -112 -33 -142 55 -300 24 -42 30 -65 30 -113 0 -65 -14 -71 -24 -9 -4 25
-28 71 -62 121 -92 135 -100 180 -49 301 31 72 32 144 5 225 -20 60 -27 134
-12 134 5 0 23 -43 40 -94z m-108 39 c0 -26 -14 -33 -26 -14 -3 6 -22 9 -40 7
-19 -2 -34 0 -34 4 0 12 40 27 73 27 22 1 27 -3 27 -24z m-611 -47 c-6 -18
-15 -48 -20 -66 -12 -40 -62 -98 -101 -118 -42 -22 -46 -11 -12 33 16 21 51
71 77 111 51 77 72 92 56 40z m-269 -136 c0 -79 -27 -139 -90 -204 -31 -32
-61 -58 -67 -58 -6 0 11 33 38 74 52 77 99 181 99 216 0 11 5 20 10 20 6 0 10
-22 10 -48z m200 -200 c19 -104 -12 -204 -83 -268 -43 -39 -67 -31 -29 9 12
12 33 49 48 81 24 53 26 66 20 133 -10 119 23 153 44 45z m1930 -96 c0 -18 3
-61 6 -95 9 -78 -6 -79 -29 -3 -20 67 -21 86 -7 113 16 29 30 23 30 -15z m-75
-104 c25 -86 29 -151 10 -170 -12 -12 -34 26 -49 86 -23 92 -20 214 4 185 4
-5 19 -50 35 -101z m-2089 -10 c-28 -58 -49 -119 -53 -150 -7 -59 -15 -65 -33
-22 -15 37 -8 116 16 162 18 35 104 122 112 113 3 -3 -16 -49 -42 -103z m370
31 c44 -88 98 -138 162 -152 29 -6 64 -11 77 -11 13 0 28 -8 33 -17 16 -29 23
-114 14 -168 -7 -47 -9 -50 -39 -53 -26 -3 -47 9 -125 70 -138 108 -238 191
-238 198 0 4 11 34 25 68 14 34 25 77 25 95 0 67 22 57 66 -30z m-556 -21 c0
-4 -11 -24 -25 -44 -14 -21 -31 -61 -39 -90 -11 -43 -14 -49 -20 -31 -11 35 4
89 35 133 27 37 49 51 49 32z m1950 -49 c0 -21 -7 -63 -15 -93 -21 -77 -19
-97 10 -116 23 -15 26 -15 56 10 17 14 35 26 41 26 5 0 21 9 35 20 14 11 30
20 34 20 5 0 19 -20 31 -45 12 -25 26 -45 31 -45 19 0 -2 81 -32 127 -55 83
-37 98 31 26 57 -61 77 -125 58 -186 -15 -51 -162 -202 -227 -234 -27 -13 -39
-23 -32 -30 6 -6 8 -71 7 -159 l-3 -149 -67 80 c-93 110 -98 122 -85 223 9 73
8 87 -9 124 -13 29 -19 64 -18 108 1 59 5 72 51 150 27 47 58 106 69 132 23
58 34 61 34 11z m-898 -163 c36 -68 17 -140 -49 -185 -34 -22 -83 -34 -83 -19
0 3 16 25 34 48 35 42 55 102 56 164 0 42 17 38 42 -8z m-632 15 c7 -9 66 -58
130 -110 135 -109 143 -117 134 -139 -11 -29 -59 -46 -128 -46 -36 0 -67 -4
-70 -8 -3 -5 27 -19 67 -32 81 -26 104 -40 65 -40 -35 0 -162 30 -388 92 -102
28 -228 58 -280 68 l-95 17 45 21 c71 34 151 29 306 -17 71 -22 154 -44 184
-49 30 -6 68 -15 83 -21 38 -15 71 -13 37 1 -96 42 -230 111 -230 119 0 12 3
12 79 -7 36 -9 104 -34 151 -56 101 -47 135 -47 68 0 -26 18 -85 68 -130 111
-73 69 -81 80 -69 95 17 20 25 20 41 1z m819 -150 l25 -24 -40 -39 c-77 -73
-241 -129 -257 -88 -5 12 8 23 56 45 73 32 102 64 111 121 l6 40 38 -15 c20
-9 48 -27 61 -40z m-370 -120 c16 -8 34 -28 41 -44 33 -80 -37 -167 -114 -141
-84 27 -109 117 -48 171 36 33 77 37 121 14z m499 -118 c22 -25 62 -87 87
-139 26 -51 56 -108 67 -126 20 -32 20 -33 2 -47 -51 -40 -74 -31 -304 121
-138 91 -190 138 -173 155 7 7 46 -11 135 -64 126 -76 289 -160 296 -152 2 2
-32 57 -75 122 -75 110 -113 174 -113 188 0 13 39 -16 78 -58z m-1302 -149
c-3 -29 -9 -138 -12 -243 -3 -104 -8 -197 -11 -205 -9 -27 -22 25 -35 140 -13
121 -3 238 29 318 23 59 37 54 29 -10z m1861 -209 c57 -55 109 -95 146 -113
32 -15 55 -31 52 -36 -10 -17 -71 -11 -132 12 -48 17 -74 38 -145 112 -48 49
-91 87 -95 83 -3 -4 -23 -65 -43 -135 -21 -71 -42 -137 -48 -148 -17 -29 -15
87 4 198 18 112 43 238 49 256 3 8 29 -19 64 -65 32 -43 99 -117 148 -164z
m-394 -164 c-21 -46 -41 -85 -45 -85 -5 0 -8 12 -8 28 0 49 20 102 53 139 47
53 47 22 0 -82z"/>
<path d="M1183 1925 c-18 -8 -33 -18 -33 -23 0 -14 30 -23 51 -17 13 4 18 0
21 -17 2 -18 10 -24 36 -26 24 -2 32 1 32 13 0 8 7 18 15 21 39 15 -7 64 -60
64 -16 -1 -45 -7 -62 -15z"/>
<path d="M1290 1551 c0 -16 38 -22 113 -19 101 5 87 23 -20 26 -59 2 -93 -1
-93 -7z"/>
<path d="M1346 1471 c-3 -5 1 -12 10 -15 21 -8 56 3 49 15 -8 12 -52 12 -59 0z"/>
<path d="M2530 1012 c-35 -17 -70 -65 -58 -78 4 -4 22 6 40 21 18 15 51 38 73
51 l40 23 -30 1 c-16 0 -46 -8 -65 -18z"/>
<path d="M1314 843 c-15 -11 -34 -48 -34 -67 0 -29 39 -58 68 -51 68 16 70
104 2 120 -14 3 -30 2 -36 -2z"/>
<path d="M2473 2953 c14 -43 18 -73 14 -118 -10 -108 -19 -126 -129 -271 -97
-129 -116 -235 -65 -368 30 -76 35 -126 13 -126 -15 0 -76 112 -76 139 0 28
-24 -9 -56 -84 -26 -63 -29 -81 -29 -180 0 -105 2 -114 34 -179 127 -258 432
-298 638 -83 121 125 169 293 128 447 -21 80 -79 189 -137 256 -66 77 -92 135
-83 182 6 33 5 35 -11 21 -35 -29 -58 -100 -56 -176 0 -40 -3 -73 -8 -73 -5 0
-20 19 -32 43 -27 53 -27 119 1 207 29 90 29 206 0 263 -31 63 -129 157 -162
157 -2 0 5 -26 16 -57z m113 -201 c5 -32 0 -63 -20 -126 -32 -104 -34 -192 -6
-255 11 -24 53 -78 94 -120 74 -76 97 -110 111 -166 l8 -30 13 30 c16 37 10
62 -32 148 -32 65 -45 137 -25 137 17 0 98 -107 128 -168 24 -49 28 -71 31
-160 3 -81 0 -113 -15 -154 -30 -84 -127 -178 -183 -178 -21 0 -20 2 11 23 43
29 84 97 103 167 14 58 12 78 -6 45 -16 -30 -116 -125 -131 -125 -10 0 -7 13
11 50 47 95 40 156 -28 248 -37 51 -47 50 -25 -1 29 -71 13 -147 -45 -213 -16
-19 -33 -46 -36 -59 -3 -14 -10 -25 -15 -25 -16 0 -21 50 -14 128 l7 77 -42
-40 c-88 -84 -100 -125 -61 -205 12 -24 21 -45 21 -47 0 -8 -47 21 -72 45
l-28 26 0 -27 c0 -36 51 -92 119 -130 46 -26 52 -33 33 -35 -12 -2 -46 4 -75
12 -74 21 -138 80 -179 164 -31 62 -33 73 -33 169 0 123 10 141 48 84 50 -75
101 -62 128 34 12 43 9 63 -30 167 -39 106 -23 163 88 326 74 108 100 165 101
218 0 22 3 44 7 48 10 10 31 -33 39 -82z"/>
<path d="M2427 2397 c-4 -10 -7 -42 -7 -71 0 -52 19 -93 79 -166 33 -40 27 -1
-11 73 -17 34 -37 89 -43 122 -8 41 -13 54 -18 42z"/>
<path d="M2248 2710 c-3 -34 -16 -67 -38 -103 -81 -125 -108 -231 -80 -302
l12 -30 18 60 c10 33 43 105 74 160 52 92 56 105 56 163 0 101 -34 142 -42 52z"/>
</g>
</svg>
