<?xml version="1.0" standalone="no"?>
<!DOCTYPE svg PUBLIC "-//W3C//DTD SVG 20010904//EN"
 "http://www.w3.org/TR/2001/REC-SVG-20010904/DTD/svg10.dtd">
<svg version="1.0" xmlns="http://www.w3.org/2000/svg"
 width="300.000000pt" height="376.000000pt" viewBox="0 0 300.000000 376.000000"
 preserveAspectRatio="xMidYMid meet">
<metadata>
Created by potrace 1.10, written by Peter Selinger 2001-2011
</metadata>
<g transform="translate(0.000000,376.000000) scale(0.100000,-0.100000)"
fill="#000000" stroke="none">
<path d="M1402 3684 c-134 -67 -163 -226 -61 -342 27 -31 30 -40 25 -76 -13
-85 -25 -306 -26 -453 l0 -151 -52 -7 c-191 -23 -315 -60 -348 -102 -27 -35
-26 -85 4 -120 l24 -28 68 22 c79 24 134 37 134 30 0 -3 -26 -20 -57 -37 -32
-18 -91 -65 -131 -104 -80 -77 -126 -157 -158 -276 -25 -89 -24 -293 0 -413
13 -60 16 -105 12 -140 -12 -88 -6 -129 26 -200 40 -86 90 -133 153 -143 59
-8 75 -33 106 -158 12 -50 26 -99 31 -109 5 -9 35 -30 67 -47 l58 -29 6 -158
c6 -180 31 -300 90 -439 57 -132 99 -190 130 -178 23 8 111 184 148 295 28 83
32 114 40 259 4 91 8 177 9 193 0 23 8 31 55 51 68 31 86 60 114 181 25 107
40 125 122 149 72 20 118 52 141 98 25 47 36 176 19 216 -10 23 -9 42 6 103
14 58 18 115 18 269 0 192 0 196 -29 265 -55 133 -124 217 -241 298 -75 52
-55 60 52 22 l74 -26 20 23 c16 19 19 34 16 81 -2 37 -9 62 -18 68 -35 22
-219 68 -340 84 l-47 6 -6 117 c-3 64 -11 211 -17 325 l-12 208 30 37 c40 49
49 69 57 118 10 55 -9 124 -47 169 -63 77 -170 96 -265 49z m153 -48 c67 -28
96 -126 59 -197 -19 -37 -29 -33 -14 5 17 46 12 93 -14 123 l-24 27 -7 -42
c-12 -76 -89 -95 -135 -34 -17 23 -21 25 -30 12 -7 -9 -9 -37 -5 -68 6 -59 -4
-62 -31 -10 -31 59 7 146 78 181 41 21 78 21 123 3z m-46 -362 c8 -7 12 -17 8
-21 -9 -9 -77 24 -77 37 0 14 50 2 69 -16z m-40 -63 c42 -22 67 -48 57 -59
-11 -10 -100 42 -104 62 -4 21 1 20 47 -3z m30 -118 c15 -10 21 -18 13 -21
-18 -6 -79 17 -94 35 -12 15 -9 16 21 10 19 -4 46 -15 60 -24z m-8 -89 c29
-15 44 -40 29 -49 -14 -9 -110 46 -110 62 0 15 37 9 81 -13z m-21 -100 c44
-18 74 -54 44 -54 -16 0 -124 57 -124 66 0 9 42 3 80 -12z m15 -112 c22 -14
34 -27 28 -29 -15 -5 -113 47 -113 59 0 14 39 0 85 -30z m-30 -74 c25 -11 34
-28 15 -28 -15 0 -80 28 -80 34 0 10 38 6 65 -6z m301 -143 c99 -16 223 -51
239 -67 12 -12 -13 -9 -155 21 -52 12 -141 26 -197 33 -114 13 -153 5 -153
-32 0 -26 -12 -25 -36 1 -18 20 -25 21 -123 15 -58 -4 -151 -16 -209 -27 -114
-22 -140 -21 -101 4 27 18 178 51 299 67 96 11 319 4 436 -15z m-305 -142 c6
-6 15 -84 20 -174 17 -262 31 -254 45 24 6 125 18 169 28 105 3 -18 8 -86 12
-150 3 -65 9 -118 12 -118 3 0 31 17 63 37 l57 37 7 76 c10 114 15 140 32 140
35 0 143 -70 208 -135 116 -116 165 -243 165 -430 0 -126 -15 -138 -24 -18 -6
102 -23 181 -52 246 -23 50 -33 47 -23 -9 9 -47 2 -95 -26 -173 -15 -43 -14
-47 16 -150 20 -67 33 -138 36 -192 5 -83 6 -87 35 -104 28 -16 30 -21 24 -57
-15 -90 -50 -118 -178 -143 -114 -21 -105 2 10 29 76 17 110 38 118 72 9 35 0
39 -35 15 -24 -17 -58 -25 -153 -35 -148 -17 -162 -12 -208 69 -18 31 -34 54
-36 52 -3 -3 5 -33 17 -68 37 -107 22 -190 -37 -205 -24 -6 -32 -28 -15 -38 5
-4 30 -9 54 -12 41 -6 48 -4 71 21 l26 28 0 -34 c0 -40 -18 -109 -28 -109 -4
0 -13 9 -20 20 -18 29 -38 25 -52 -10 -15 -37 -23 -37 -45 -4 l-17 26 -25 -25
c-24 -24 -27 -24 -59 -11 -27 11 -38 12 -54 2 -16 -10 -25 -9 -50 6 -19 11
-40 16 -55 12 -31 -8 -52 29 -61 107 -5 45 -4 55 10 60 15 6 15 9 1 37 -20 39
-55 56 -135 65 -59 7 -63 6 -51 -9 24 -29 -41 -21 -69 9 -26 28 -50 33 -50 10
0 -19 44 -42 106 -55 88 -18 96 -21 91 -26 -8 -8 -139 16 -173 32 -55 26 -84
125 -48 165 9 10 21 58 29 122 8 58 24 142 36 187 l23 82 -21 86 c-12 48 -27
101 -33 117 l-12 30 -9 -24 c-5 -13 -14 -91 -20 -175 -6 -83 -15 -155 -19
-160 -31 -33 -23 268 8 357 48 131 155 251 290 324 66 35 72 29 72 -84 0 -95
5 -113 31 -113 29 0 39 39 39 157 l0 106 46 -6 c25 -2 50 -9 55 -14z m-211
-1379 c0 -14 -12 -19 -23 -8 -9 9 4 35 14 28 5 -3 9 -12 9 -20z m517 -16 c-3
-7 -5 -2 -5 12 0 14 2 19 5 13 2 -7 2 -19 0 -25z m-192 -78 c13 -14 16 -28 11
-54 -6 -31 -37 -66 -58 -66 -12 0 -10 72 3 109 13 36 20 38 44 11z m-322 -12
c7 -27 -2 -45 -14 -27 -11 18 -11 49 0 49 5 0 11 -10 14 -22z m225 -33 c1 -28
-2 -56 -7 -64 -16 -25 -41 6 -41 49 0 51 9 72 29 68 12 -2 17 -16 19 -53z
m166 -4 c-4 -28 -10 -51 -15 -51 -13 0 -11 84 3 98 18 18 20 9 12 -47z m-329
19 c7 -32 -1 -54 -16 -45 -12 8 -12 75 0 75 5 0 12 -13 16 -30z m66 6 c13 -28
4 -79 -13 -74 -15 5 -31 65 -24 84 8 21 25 17 37 -10z m345 -2 c-3 -9 -6 -20
-6 -25 0 -5 -4 -9 -10 -9 -11 0 -14 33 -3 43 12 13 25 7 19 -9z m-285 -225
l49 -21 0 -212 c0 -203 -6 -286 -19 -286 -11 0 -71 183 -86 263 -8 44 -18 123
-22 178 -7 114 -7 114 78 78z m180 -169 c-6 -59 -18 -126 -26 -151 l-15 -44 6
40 c3 22 10 76 15 120 13 127 23 181 27 161 2 -11 -1 -67 -7 -126z"/>
<path d="M1907 1983 c-17 -43 -14 -56 8 -27 13 17 21 64 11 64 -2 0 -11 -17
-19 -37z"/>
<path d="M1111 1955 c0 -11 6 -29 14 -39 15 -20 15 -20 15 0 0 11 -7 29 -15
40 -14 19 -14 19 -14 -1z"/>
<path d="M1320 1893 c0 -11 63 -53 78 -53 20 0 14 17 -14 39 -26 21 -64 28
-64 14z"/>
<path d="M1617 1863 c-20 -14 -35 -28 -33 -31 6 -5 116 45 116 52 0 16 -50 3
-83 -21z"/>
<path d="M1710 1811 c-79 -25 -155 -95 -165 -153 -6 -33 -5 -37 16 -40 18 -2
28 -15 42 -53 26 -70 60 -102 135 -125 79 -25 96 -25 149 -1 56 26 87 84 80
154 -9 94 -71 142 -185 142 l-74 0 33 28 c18 15 39 27 47 27 7 0 12 6 10 13
-5 14 -53 19 -88 8z"/>
<path d="M1190 1806 c0 -2 23 -18 50 -35 28 -17 50 -32 50 -33 0 -2 -35 -3
-77 -3 -102 0 -149 -22 -181 -85 -18 -35 -22 -55 -18 -89 12 -93 70 -141 168
-141 94 1 162 47 222 153 15 27 34 51 41 54 28 10 29 73 1 73 -7 0 -38 22 -70
49 -37 31 -70 51 -94 55 -43 7 -92 8 -92 2z"/>
<path d="M1456 1475 c-25 -27 -76 -168 -76 -209 0 -25 34 -66 54 -66 6 0 25
17 43 37 33 40 31 40 48 -12 7 -24 62 -19 76 6 21 39 -18 207 -58 251 -23 25
-60 22 -87 -7z"/>
<path d="M1952 1414 c-12 -8 -22 -19 -22 -25 0 -17 39 -9 50 10 19 36 9 41
-28 15z"/>
<path d="M1274 1390 c-27 -11 -40 -30 -20 -30 24 0 66 19 66 30 0 12 -17 12
-46 0z"/>
<path d="M1740 1360 c0 -5 9 -10 19 -10 11 0 23 5 26 10 4 6 -5 10 -19 10 -14
0 -26 -4 -26 -10z"/>
<path d="M393 3181 c-47 -22 -63 -43 -93 -123 -30 -82 -51 -103 -123 -127 -99
-33 -149 -94 -149 -180 0 -101 68 -188 163 -211 31 -8 78 -10 127 -5 59 5 87
3 113 -8 38 -16 121 -83 277 -225 101 -91 104 -93 123 -76 37 34 61 82 50 101
-14 27 -249 253 -262 253 -6 0 5 -22 25 -49 20 -27 36 -52 36 -56 0 -3 -41 32
-92 79 -121 112 -161 133 -288 151 -79 11 -108 19 -126 36 -24 22 -24 22 -24
2 0 -31 45 -80 85 -93 19 -6 35 -16 35 -21 0 -30 -123 29 -144 70 -43 82 -5
154 87 166 105 14 121 31 156 161 12 46 60 99 97 108 60 15 118 -54 129 -155
7 -56 3 -56 -32 -2 -11 16 -12 15 -12 -14 -2 -75 81 -204 208 -325 57 -55 88
-78 106 -78 48 0 30 35 -79 150 -85 89 -106 130 -106 202 -1 99 -17 175 -45
212 -54 71 -157 95 -242 57z"/>
<path d="M2462 3193 c-38 -7 -118 -92 -131 -138 -6 -22 -11 -86 -11 -141 l0
-102 -90 -97 c-78 -84 -120 -139 -120 -160 0 -3 11 -5 25 -5 18 0 54 28 130
101 83 80 112 116 140 172 35 70 44 127 25 157 -9 13 -11 13 -20 0 -5 -8 -10
-21 -10 -27 0 -7 -5 -13 -11 -13 -25 0 31 154 62 170 30 17 89 11 119 -10 54
-39 63 -136 20 -208 -30 -48 -24 -55 19 -26 22 14 45 23 50 19 6 -3 45 -10 87
-15 88 -9 124 -30 137 -79 16 -62 -60 -171 -120 -171 -24 0 -24 2 15 30 40 29
69 67 59 77 -3 3 -16 1 -29 -3 -13 -4 -30 -7 -40 -5 -9 1 -32 -5 -52 -13 -43
-18 -45 -12 -10 21 96 88 -158 -47 -273 -145 -46 -41 -86 -72 -88 -70 -2 2 11
21 30 41 43 47 45 66 4 37 -43 -31 -279 -250 -279 -259 0 -5 17 -33 37 -64 32
-48 39 -54 54 -44 9 7 84 72 167 146 83 73 163 142 179 152 24 16 48 19 159
19 150 0 173 9 228 88 26 37 31 55 34 115 3 63 1 77 -20 107 -30 44 -77 76
-125 85 -59 10 -82 31 -113 99 -59 132 -130 179 -238 159z"/>
<path d="M490 2940 c0 -23 29 -84 36 -77 3 2 0 25 -7 51 -12 47 -29 62 -29 26z"/>
<path d="M345 2810 c3 -5 8 -10 11 -10 3 0 2 5 -1 10 -3 6 -8 10 -11 10 -3 0
-2 -4 1 -10z"/>
<path d="M675 1183 c-233 -205 -228 -203 -392 -203 -141 0 -166 -11 -212 -92
-26 -45 -31 -64 -31 -121 0 -108 18 -130 147 -171 59 -20 68 -28 78 -76 20
-95 87 -173 162 -191 86 -19 187 29 233 111 22 40 25 57 25 156 0 137 -1 136
196 339 153 158 156 165 71 165 -65 0 -117 -33 -223 -140 -157 -160 -239 -281
-239 -355 l0 -30 24 30 c13 17 27 27 30 24 11 -10 -22 -113 -40 -126 -10 -7
-29 -13 -42 -13 -35 0 -25 -34 12 -38 23 -3 37 6 77 47 50 52 61 52 35 2 -18
-34 -81 -91 -102 -91 -21 0 -66 24 -87 48 -9 10 -22 46 -28 78 -27 143 -42
159 -151 167 -69 4 -98 26 -98 71 0 72 71 136 153 136 51 0 63 -14 22 -24 -41
-11 -18 -26 38 -26 93 1 162 47 370 249 88 86 107 110 105 130 -2 14 -10 27
-18 29 -9 1 -61 -37 -115 -85z"/>
<path d="M2185 1228 c-36 -57 -97 -102 -168 -124 l-58 -18 144 -145 c223 -227
207 -201 207 -337 0 -129 9 -161 61 -213 69 -68 149 -87 224 -52 57 26 81 57
105 135 25 80 53 112 106 121 74 12 103 31 129 88 41 87 28 167 -38 235 -41
42 -109 62 -211 62 -45 0 -97 5 -116 10 -37 10 -116 71 -255 195 -44 39 -85
74 -92 78 -7 4 -22 -10 -38 -35z m155 -164 c138 -124 188 -153 293 -168 40 -6
47 -5 47 10 0 13 6 15 31 10 17 -3 43 -6 56 -6 15 0 39 -14 59 -34 28 -28 34
-41 34 -79 0 -46 -31 -106 -60 -115 -11 -4 -11 0 3 21 9 15 17 29 17 32 0 12
-36 3 -91 -21 -66 -30 -91 -61 -110 -139 -25 -103 -83 -124 -151 -55 -62 61
-66 49 -13 -30 20 -29 33 -55 30 -58 -3 -3 -24 12 -46 34 -35 35 -41 48 -46
96 -3 31 -2 77 2 103 l7 48 25 -37 c15 -20 28 -34 31 -32 2 3 -1 28 -8 55 -14
58 -56 122 -164 247 -42 49 -76 94 -76 101 0 7 11 13 23 13 34 0 38 9 22 41
-32 60 -16 53 85 -37z"/>
<path d="M2572 674 c4 -21 22 -23 26 -1 2 10 -3 17 -13 17 -10 0 -15 -6 -13
-16z"/>
<path d="M679 1024 c-23 -25 -23 -26 -2 -15 23 12 38 29 31 37 -3 2 -15 -8
-29 -22z"/>
</g>
</svg>
