<?xml version="1.0" standalone="no"?>
<!DOCTYPE svg PUBLIC "-//W3C//DTD SVG 20010904//EN"
 "http://www.w3.org/TR/2001/REC-SVG-20010904/DTD/svg10.dtd">
<svg version="1.0" xmlns="http://www.w3.org/2000/svg"
 width="300.000000pt" height="384.000000pt" viewBox="0 0 300.000000 384.000000"
 preserveAspectRatio="xMidYMid meet">
<metadata>
Created by potrace 1.10, written by Peter Selinger 2001-2011
</metadata>
<g transform="translate(0.000000,384.000000) scale(0.100000,-0.100000)"
fill="#000000" stroke="none">
<path d="M2694 3806 c-44 -19 -99 -71 -117 -109 -11 -23 -14 -50 -10 -98 6
-75 10 -66 -92 -239 -37 -63 -91 -155 -119 -205 -29 -49 -59 -91 -68 -93 -9
-2 -72 27 -140 64 -160 88 -214 114 -236 114 -30 0 -60 -28 -78 -75 -26 -71
-15 -84 128 -154 181 -89 172 -74 116 -184 -26 -51 -53 -100 -61 -111 -16 -22
-3 -28 -262 119 -278 158 -352 198 -463 254 l-103 51 -112 -61 c-134 -74 -882
-521 -973 -582 l-64 -42 0 -632 0 -631 52 -47 c28 -25 83 -65 122 -87 95 -55
499 -300 509 -308 4 -4 -15 -57 -43 -117 -53 -117 -78 -210 -105 -403 -19
-135 -17 -213 5 -218 20 -3 162 92 265 178 97 81 181 171 236 252 29 42 46 58
57 55 10 -3 38 -11 63 -18 l47 -13 213 126 c490 287 690 405 804 473 l120 72
8 646 8 647 75 125 c41 69 77 125 80 125 2 0 36 -16 74 -35 47 -24 77 -47 92
-70 39 -59 115 -69 173 -23 38 30 48 63 30 98 -19 36 -51 61 -195 145 -63 37
-125 74 -137 82 l-23 13 29 53 c16 28 46 93 66 142 79 192 124 272 192 342 74
76 102 128 103 191 0 57 -20 99 -66 143 -61 57 -134 73 -200 45z m106 -96 c25
-25 15 -57 -30 -87 -42 -29 -55 -29 -86 2 -32 32 -28 53 15 82 42 28 75 29
101 3z m96 -65 c9 -34 -31 -112 -70 -136 -50 -31 -65 -22 -24 14 41 36 68 84
68 122 0 32 18 33 26 0z m-226 -117 c0 -6 -6 -5 -15 2 -8 7 -15 14 -15 16 0 2
7 1 15 -2 8 -4 15 -11 15 -16z m-26 -113 c11 -8 16 -18 13 -22 -10 -9 -59 9
-65 25 -5 17 28 15 52 -3z m-50 -86 c33 -15 42 -39 15 -39 -22 0 -69 28 -69
41 0 12 24 11 54 -2z m-48 -90 c36 -22 44 -39 18 -39 -19 0 -74 38 -74 51 0
15 20 11 56 -12z m-56 -79 c35 -18 55 -50 31 -50 -14 0 -74 44 -79 58 -5 17 2
15 48 -8z m-543 -6 c3 -8 1 -20 -6 -27 -14 -14 -47 15 -37 32 10 16 36 13 43
-5z m202 -105 c69 -40 198 -112 286 -162 350 -198 429 -247 394 -247 -19 0
-678 362 -771 424 -41 26 -63 56 -42 56 3 0 63 -32 133 -71z m309 13 c21 -14
30 -32 14 -32 -10 0 -82 49 -82 56 0 8 42 -7 68 -24z m-1217 -99 c89 -93 375
-442 541 -659 l47 -61 -106 -7 c-134 -8 -931 -6 -1040 2 l-82 7 136 180 c139
185 258 345 371 498 35 48 69 87 76 87 6 0 32 -21 57 -47z m238 -73 c36 -20
129 -72 206 -114 200 -112 373 -214 380 -226 19 -31 -594 307 -658 362 -40 34
-17 28 72 -22z m-475 28 c-18 -30 -160 -219 -318 -423 -94 -120 -176 -226
-182 -234 -13 -16 -2 -21 -242 106 -83 45 -101 58 -91 69 6 7 57 40 113 73 55
32 236 140 401 240 282 170 337 199 319 169z m1211 -48 c4 -6 29 -22 56 -36
27 -13 48 -28 46 -32 -57 -102 -120 -202 -128 -202 -18 0 -109 50 -109 60 0
12 87 189 102 208 13 15 25 16 33 2z m175 -126 c0 -11 -78 -169 -93 -189 -26
-34 -32 -7 -8 43 47 99 101 177 101 146z m-676 -189 c95 -119 130 -165 123
-165 -5 0 -144 168 -207 250 -61 80 7 11 84 -85z m555 -171 c-17 -21 -265
-184 -279 -184 -15 0 -12 15 8 33 21 19 264 166 276 166 5 1 2 -6 -5 -15z
m-2026 -105 c133 -67 207 -115 207 -134 0 -33 -173 -461 -275 -680 -31 -67
-38 -77 -45 -60 -10 23 -13 885 -4 909 3 9 8 16 10 16 3 0 50 -23 107 -51z
m2059 -670 c-14 -37 -23 154 -17 341 10 282 20 268 23 -31 1 -158 -2 -297 -6
-310z m-452 523 c0 -5 -67 -119 -150 -253 -82 -134 -223 -366 -312 -516 -90
-150 -165 -272 -168 -272 -4 0 -81 126 -500 832 -64 107 -109 194 -106 202 5
13 90 15 621 15 338 0 615 -4 615 -8z m-1164 -309 c81 -137 212 -357 291 -491
80 -134 147 -252 150 -262 9 -32 -6 -30 -582 84 -353 70 -345 68 -345 112 0
20 28 99 71 197 39 89 111 258 160 376 92 220 97 231 104 231 2 0 70 -111 151
-247z m1310 77 c73 -177 214 -545 214 -557 -1 -17 -34 56 -155 347 -69 168
-130 309 -134 313 -5 5 -59 -66 -121 -157 -61 -91 -117 -169 -123 -173 -6 -3
-1 9 10 28 12 19 43 70 68 114 81 136 156 246 167 243 6 -2 39 -73 74 -158z
m194 43 c30 -46 43 -122 19 -107 -13 8 -69 123 -69 142 0 25 21 11 50 -35z
m-322 -335 c9 -9 0 -18 -37 -39 -83 -47 -115 -113 -75 -153 42 -42 114 -10
114 51 0 36 2 38 29 23 19 -9 88 -98 110 -138 30 -56 -26 -112 -110 -112 -65
0 -68 11 -10 36 56 25 76 63 48 91 -14 14 -21 13 -70 -11 -31 -14 -68 -26 -84
-26 -39 0 -91 34 -99 66 -15 59 46 168 113 203 45 24 55 25 71 9z m-248 -42
c0 -3 -5 -8 -12 -12 -7 -4 -8 -3 -4 4 7 12 16 16 16 8z m525 -415 c-12 -11
-109 -28 -445 -80 -332 -51 -370 -56 -370 -43 0 6 8 13 18 16 46 14 521 85
697 105 114 12 110 12 100 2z m-1545 -204 c215 -121 464 -277 456 -284 -7 -7
-125 59 -401 224 -327 196 -360 232 -55 60z m135 73 c8 -13 -15 -13 -35 0 -12
8 -11 10 7 10 12 0 25 -4 28 -10z m130 -20 c3 -5 -3 -10 -14 -10 -11 0 -23 5
-26 10 -3 6 3 10 14 10 11 0 23 -4 26 -10z m349 -66 c9 -24 7 -294 -3 -294 -9
0 -21 129 -21 238 0 68 10 92 24 56z m611 -23 c-16 -16 -427 -262 -431 -258
-7 7 100 79 213 143 65 37 141 80 168 95 53 30 65 35 50 20z m-977 -260 c12
-11 22 -23 22 -29 0 -5 -36 -83 -79 -173 -44 -90 -77 -166 -74 -169 8 -8 59
58 130 168 36 56 70 102 75 102 22 0 -58 -135 -137 -230 -60 -72 -127 -142
-131 -137 -7 7 25 210 42 269 9 29 34 90 56 136 43 87 56 96 96 63z"/>
<path d="M1035 2668 c-62 -34 -87 -88 -42 -88 13 0 32 7 43 15 27 20 74 20 74
-1 0 -21 -50 -102 -108 -177 -38 -48 -43 -60 -32 -68 21 -13 232 -7 237 7 7
22 -28 44 -68 44 -44 0 -48 10 -19 50 34 48 60 113 60 153 0 31 -5 40 -32 57
-36 22 -82 25 -113 8z"/>
<path d="M1287 2660 c-33 -26 -47 -75 -47 -165 0 -80 20 -124 69 -150 47 -24
85 -19 120 15 34 34 47 96 43 197 -3 43 -50 96 -100 111 -52 16 -55 15 -85 -8z
m104 -72 c51 -82 -16 -230 -72 -161 -18 21 -18 140 -1 171 18 32 49 28 73 -10z"/>
<path d="M663 2665 c-12 -8 -32 -31 -44 -52 l-23 -36 -27 32 c-32 39 -44 35
-106 -32 -49 -53 -73 -96 -73 -132 0 -37 36 -34 58 6 43 77 72 96 72 44 0 -98
65 -61 153 86 51 88 47 124 -10 84z"/>
<path d="M188 2089 c-40 -23 -50 -149 -16 -207 l21 -38 -21 -57 c-22 -58 -21
-87 4 -87 51 0 128 209 110 303 -7 38 -50 97 -69 97 -7 0 -20 -5 -29 -11z m46
-94 c8 -32 -12 -75 -25 -54 -10 17 -12 63 -2 72 12 13 21 7 27 -18z"/>
<path d="M1143 1960 c-18 -10 -40 -31 -49 -45 -16 -24 -16 -29 1 -84 17 -56
17 -58 -4 -99 -43 -84 -18 -172 58 -212 51 -25 104 -26 155 0 78 39 105 117
71 207 -16 40 -16 53 -5 95 11 46 11 51 -13 87 -45 68 -147 93 -214 51z m138
-76 l24 -26 -24 -19 c-13 -10 -33 -19 -45 -19 -27 0 -66 27 -66 45 0 18 39 45
65 45 12 0 32 -12 46 -26z m19 -203 c25 -48 -1 -88 -63 -98 -31 -5 -40 -1 -68
26 -29 29 -30 33 -17 54 8 12 30 32 48 44 30 21 34 21 61 8 16 -9 33 -24 39
-34z"/>
<path d="M503 1659 c-37 -24 -112 -131 -115 -163 -3 -54 4 -82 29 -105 23 -20
34 -23 87 -19 104 7 193 68 217 147 33 110 -116 205 -218 140z m108 -49 c10
-6 26 -24 34 -40 14 -27 13 -30 -11 -60 -35 -41 -74 -60 -124 -60 -36 0 -40 2
-40 26 0 31 55 111 90 130 31 16 27 16 51 4z"/>
<path d="M769 1410 c-37 -11 -65 -26 -151 -83 -43 -28 -78 -56 -78 -62 0 -18
22 -35 45 -35 22 0 213 129 227 153 11 21 -12 36 -43 27z"/>
<path d="M1324 3405 c-14 -22 -15 -32 -5 -65 12 -39 13 -40 59 -40 60 0 92 9
92 25 0 13 -47 54 -102 89 -26 17 -27 17 -44 -9z"/>
<path d="M2687 1730 c-22 -4 -51 -20 -68 -36 l-28 -29 35 -52 c19 -29 41 -53
49 -53 14 0 72 74 100 129 25 49 4 59 -88 41z"/>
<path d="M245 660 c-9 -14 13 -86 31 -101 19 -16 37 -6 72 39 l24 31 -34 21
c-35 21 -83 27 -93 10z"/>
</g>
</svg>
