<?xml version="1.0" standalone="no"?>
<!DOCTYPE svg PUBLIC "-//W3C//DTD SVG 20010904//EN"
 "http://www.w3.org/TR/2001/REC-SVG-20010904/DTD/svg10.dtd">
<svg version="1.0" xmlns="http://www.w3.org/2000/svg"
 width="300.000000pt" height="239.000000pt" viewBox="0 0 300.000000 239.000000"
 preserveAspectRatio="xMidYMid meet">
<metadata>
Created by potrace 1.10, written by Peter Selinger 2001-2011
</metadata>
<g transform="translate(0.000000,239.000000) scale(0.100000,-0.100000)"
fill="#000000" stroke="none">
<path d="M689 2339 c-6 -12 -11 -58 -12 -103 -1 -111 20 -154 129 -267 l87
-90 -6 -57 c-4 -31 -15 -84 -25 -117 -18 -57 -19 -59 -26 -30 -46 208 -148
299 -356 319 -83 8 -144 -4 -148 -29 -5 -33 75 -180 130 -240 64 -70 112 -98
213 -125 119 -32 123 -39 146 -209 10 -77 23 -158 28 -178 6 -20 9 -39 6 -41
-2 -2 -20 2 -41 8 -69 23 -274 -6 -274 -38 0 -17 148 -151 189 -172 30 -15 59
-20 116 -20 73 0 76 -1 86 -27 6 -17 13 -171 16 -376 l6 -348 -59 27 c-181 82
-272 99 -486 91 l-151 -6 6 42 c4 23 35 141 71 262 35 121 69 239 75 261 l11
41 93 7 c112 9 142 15 129 28 -12 12 -190 23 -226 14 -17 -4 -32 -19 -44 -44
-11 -24 -25 -38 -40 -40 -26 -4 -22 4 -141 -302 -127 -325 -178 -477 -166
-489 8 -8 120 -8 372 -1 199 5 376 7 394 3 19 -3 58 -19 87 -35 83 -43 168
-33 232 27 l25 23 326 -8 c180 -5 358 -12 398 -16 87 -8 92 -1 66 100 -24 100
-21 109 42 118 72 11 173 50 239 94 113 75 217 239 250 394 19 88 14 250 -11
343 -18 69 -77 201 -95 212 -7 5 -26 -6 -48 -28 l-35 -36 26 -58 c57 -128 73
-287 42 -421 -53 -226 -241 -382 -458 -382 -259 1 -468 169 -533 430 -22 87
-15 241 16 327 52 149 171 277 311 334 42 17 75 22 149 23 108 1 166 -15 269
-72 l65 -35 23 27 c31 37 29 61 -9 89 -133 100 -337 142 -493 102 -208 -53
-399 -251 -450 -466 -9 -38 -15 -113 -15 -184 0 -141 21 -233 76 -334 73 -134
154 -205 327 -289 97 -48 137 -76 125 -87 -3 -3 -47 8 -99 24 -221 68 -344 63
-511 -20 -68 -34 -68 -34 -68 -10 0 28 97 113 183 161 42 23 77 46 77 51 0 21
-51 6 -152 -46 -59 -31 -108 -51 -108 -47 0 20 47 67 117 119 68 50 88 73 63
73 -17 0 -80 -35 -135 -74 -93 -67 -57 18 41 97 96 77 86 90 -20 26 -37 -22
-71 -39 -77 -37 -14 5 29 58 86 108 47 40 67 70 48 70 -5 0 -33 -16 -63 -35
-30 -19 -58 -35 -62 -35 -21 0 -2 33 52 98 56 68 70 92 52 92 -4 0 -34 -22
-67 -50 -33 -27 -63 -50 -67 -50 -5 0 -8 17 -8 37 0 34 7 45 67 100 37 34 64
66 60 69 -11 11 -80 -13 -104 -36 -32 -29 -40 -25 -58 31 -32 97 -29 106 71
205 49 49 98 104 108 123 l19 34 -65 -5 c-98 -8 -153 -50 -178 -136 l-7 -27
-13 30 c-20 48 -18 163 3 218 22 56 47 72 132 81 67 8 141 29 197 57 38 19
218 184 218 200 0 13 -87 55 -155 74 -165 48 -348 -66 -379 -237 -4 -21 -14
-54 -23 -75 -48 -111 -5 129 48 267 45 118 58 129 172 151 57 10 119 30 150
46 61 32 217 186 217 213 0 29 -62 45 -175 45 -92 0 -105 -3 -166 -32 -36 -18
-73 -41 -84 -52 -10 -12 -39 -65 -66 -118 -39 -82 -48 -94 -52 -73 -3 14 -10
50 -17 81 -14 70 -53 134 -138 221 -69 71 -94 82 -113 47z m107 -111 c49 -55
94 -138 94 -173 0 -12 -12 1 -31 35 -16 30 -45 73 -64 95 -33 38 -34 39 -35
15 0 -14 14 -54 30 -88 36 -76 36 -81 9 -56 -36 32 -69 113 -69 172 0 28 4 52
9 52 5 0 30 -24 57 -52z m610 -22 c18 -14 16 -17 -38 -70 -31 -30 -78 -66
-105 -79 -53 -27 -146 -57 -176 -57 -17 0 -18 2 -6 17 17 21 128 92 192 123
80 40 55 53 -44 24 -30 -9 -71 -25 -91 -35 -21 -11 -38 -16 -38 -11 0 21 80
74 140 93 44 13 145 10 166 -5z m-796 -297 c52 -22 140 -106 140 -134 0 -10
-17 -2 -53 28 -61 50 -147 89 -185 85 -26 -3 -25 -4 18 -32 53 -34 210 -185
210 -203 0 -15 -43 -8 -120 20 -68 25 -143 98 -188 183 -17 34 -32 67 -32 74
0 20 149 5 210 -21z m724 -114 c20 -8 36 -22 36 -29 0 -18 -101 -109 -155
-141 -40 -24 -167 -51 -186 -39 -6 4 -5 11 3 21 19 23 115 86 188 124 54 28
61 34 41 37 -40 6 -113 -17 -178 -58 -71 -45 -83 -35 -23 19 89 79 186 102
274 66z m-253 -512 c-5 -10 -24 -27 -42 -37 -34 -20 -33 -10 4 32 25 27 52 31
38 5z m-246 -183 c51 -32 31 -36 -53 -11 -38 12 -74 21 -81 21 -25 0 -8 -22
45 -56 57 -36 64 -51 21 -40 -27 6 -127 92 -127 108 0 7 28 9 79 6 59 -3 87
-10 116 -28z m-644 -791 c-6 -24 -11 -49 -11 -56 0 -9 55 -11 233 -9 127 2
207 2 177 0 -30 -2 -116 -8 -190 -14 -123 -8 -230 -31 -230 -49 0 -4 26 -4 58
0 79 10 426 9 383 -1 -42 -10 -467 -17 -476 -8 -4 4 -1 24 5 45 43 131 72 185
51 92z m1648 -78 c11 -36 19 -66 18 -68 -6 -5 -559 26 -565 32 -11 11 7 14
145 21 78 4 140 11 137 15 -3 5 -83 9 -177 10 -137 0 -167 3 -147 12 38 17
281 13 361 -6 37 -9 97 -19 134 -23 l67 -7 -7 49 c-10 65 6 48 34 -35z m-841
-115 c61 -1 70 -3 56 -13 -33 -24 -80 -26 -128 -4 -46 20 -65 40 -23 25 12 -4
55 -8 95 -8z"/>
<path d="M2170 2268 c-30 -84 -52 -113 -100 -132 -22 -9 -40 -19 -40 -24 0 -4
24 -20 53 -34 50 -24 55 -31 74 -85 12 -32 25 -74 30 -93 l9 -35 18 60 c26 92
48 127 100 155 53 29 58 45 16 54 -44 8 -72 44 -98 125 -13 39 -27 71 -31 71
-5 0 -19 -28 -31 -62z"/>
<path d="M2640 2143 c-22 -9 -86 -59 -172 -137 l-76 -69 -7 -158 -8 -158 -76
-83 c-372 -409 -464 -508 -468 -504 -3 3 11 31 31 63 20 32 36 62 36 66 0 4
-22 7 -49 7 -152 0 -226 -204 -113 -317 85 -86 203 -69 259 36 23 45 31 115
13 126 -5 3 -27 -11 -50 -31 -22 -20 -43 -34 -46 -32 -3 3 117 132 266 286
l270 280 135 4 134 3 42 40 c76 73 219 238 219 253 0 12 -11 14 -57 9 -32 -3
-89 -9 -127 -13 l-68 -7 16 31 c9 17 16 38 16 46 0 25 -39 46 -73 39 l-30 -6
8 84 c14 148 13 156 -25 142z m-60 -232 c-6 -23 -16 -41 -22 -41 -14 0 -2 115
15 145 11 18 12 16 15 -22 2 -23 -2 -60 -8 -82z m-70 -48 c0 -67 -16 -76 -26
-15 -7 45 -8 46 -15 17 -3 -16 -7 -50 -8 -75 -1 -45 -15 -80 -26 -68 -4 3 -3
43 1 89 6 69 11 87 31 107 32 32 43 18 43 -55z m344 -124 c-13 -21 -74 -39
-134 -39 -33 0 -60 4 -60 9 0 5 24 14 53 20 28 5 61 12 72 14 41 9 76 7 69 -4z
m-74 -94 c-6 -8 -33 -28 -58 -45 -42 -27 -53 -30 -130 -30 -84 0 -85 0 -67 20
15 16 31 20 89 20 65 1 69 2 52 15 -11 8 -28 15 -37 15 -10 0 -21 5 -24 10 -4
6 29 10 91 10 84 0 95 -2 84 -15z"/>
<path d="M1860 1974 c-15 -38 -39 -73 -67 -100 l-44 -41 39 -26 c22 -14 50
-45 63 -68 13 -23 28 -43 33 -43 5 -1 15 17 23 38 17 50 39 75 83 93 38 16 36
19 -28 54 -20 12 -35 32 -47 65 -9 27 -20 58 -24 68 -6 15 -12 7 -31 -40z"/>
<path d="M331 1568 c18 -34 168 -186 216 -219 42 -29 63 -36 63 -21 0 22 -258
262 -281 262 -6 0 -5 -9 2 -22z"/>
<path d="M598 1523 c36 -50 99 -106 107 -94 16 26 -68 121 -107 121 -19 0 -19
0 0 -27z"/>
<path d="M1158 1479 c-18 -10 -25 -39 -10 -39 5 0 16 8 25 18 28 31 19 42 -15
21z"/>
<path d="M1277 1432 c-19 -20 -22 -42 -8 -42 11 0 41 39 41 52 0 14 -16 9 -33
-10z"/>
<path d="M1740 1414 c-110 -30 -188 -99 -257 -227 l-38 -72 0 -126 c0 -123 1
-126 35 -194 43 -86 135 -182 209 -218 50 -25 65 -27 171 -27 106 0 121 2 169
27 73 36 144 110 182 191 29 59 33 79 37 173 5 107 -10 190 -40 232 -12 17
-16 16 -56 -14 l-42 -31 0 -112 c0 -127 -14 -182 -60 -238 -46 -55 -111 -82
-195 -82 -115 1 -188 46 -240 151 -26 50 -30 69 -30 143 0 70 4 93 23 130 69
132 197 189 321 141 30 -11 57 -18 62 -16 4 3 21 26 38 52 34 51 32 62 -22 90
-28 14 -162 43 -197 42 -8 0 -40 -7 -70 -15z"/>
<path d="M2670 1339 c-13 -47 -72 -117 -106 -125 -34 -9 -30 -19 21 -49 54
-31 73 -58 83 -115 10 -58 28 -62 37 -8 11 66 30 94 85 124 27 15 47 30 45 35
-3 4 -25 17 -50 29 -48 23 -69 52 -80 113 -9 48 -22 47 -35 -4z"/>
<path d="M230 1340 c0 -22 169 -107 249 -125 38 -8 40 6 5 34 -25 19 -221 101
-243 101 -6 0 -11 -4 -11 -10z"/>
<path d="M266 1101 c-33 -13 1 -24 91 -29 53 -3 83 -1 83 6 0 5 -6 12 -13 15
-27 10 -143 16 -161 8z"/>
<path d="M520 864 c-8 -3 -22 -8 -30 -10 -31 -11 15 -24 83 -24 38 0 99 -5
137 -11 97 -15 117 -8 57 20 -36 17 -73 24 -140 27 -51 2 -99 1 -107 -2z"/>
<path d="M471 762 c-29 -20 3 -29 121 -36 115 -7 181 -16 221 -32 38 -14 13
15 -35 42 -49 26 -62 29 -173 32 -66 1 -126 -1 -134 -6z"/>
<path d="M453 664 c-32 -14 -5 -23 95 -29 59 -4 146 -15 195 -25 48 -9 87 -14
87 -9 0 4 -25 20 -56 35 -50 25 -69 28 -183 31 -69 1 -132 0 -138 -3z"/>
<path d="M416 551 c-14 -23 6 -28 126 -34 68 -3 158 -13 201 -22 42 -9 83 -15
90 -12 15 5 -46 44 -93 58 -53 16 -316 24 -324 10z"/>
<path d="M410 441 c-8 -5 -12 -13 -9 -16 4 -3 57 -10 120 -15 62 -6 157 -19
210 -30 122 -25 127 -25 104 0 -33 37 -138 61 -280 67 -79 2 -136 0 -145 -6z"/>
</g>
</svg>
