<?xml version="1.0" standalone="no"?>
<!DOCTYPE svg PUBLIC "-//W3C//DTD SVG 20010904//EN"
 "http://www.w3.org/TR/2001/REC-SVG-20010904/DTD/svg10.dtd">
<svg version="1.0" xmlns="http://www.w3.org/2000/svg"
 width="240.000000pt" height="278.000000pt" viewBox="0 0 240.000000 278.000000"
 preserveAspectRatio="xMidYMid meet">
<metadata>
Created by potrace 1.10, written by Peter Selinger 2001-2011
</metadata>
<g transform="translate(0.000000,278.000000) scale(0.100000,-0.100000)"
fill="#000000" stroke="none">
<path d="M1172 2725 c-90 -25 -157 -78 -239 -188 -82 -110 -107 -153 -98 -167
16 -27 49 -4 133 93 89 102 144 148 192 162 17 5 9 -4 -25 -29 -27 -21 -65
-54 -83 -74 -46 -51 -146 -182 -141 -185 66 -47 154 -125 213 -188 l76 -81
115 110 c76 74 134 120 172 139 55 27 64 28 200 28 l141 0 -64 34 c-50 26 -74
48 -117 105 -120 159 -239 241 -364 251 -35 3 -79 -1 -111 -10z"/>
<path d="M635 2329 c-91 -7 -136 -23 -207 -75 -82 -61 -177 -205 -209 -319
-16 -58 -13 -47 -24 -110 -7 -41 -17 -58 -57 -99 -67 -67 -100 -135 -106 -217
-6 -81 14 -132 81 -207 26 -29 50 -64 53 -78 4 -15 3 -70 -2 -123 -18 -203
-10 -230 116 -401 132 -179 132 -179 126 -235 -7 -62 -8 -71 -51 -275 -18 -90
-31 -168 -29 -172 3 -4 34 -8 69 -8 59 0 65 2 69 23 3 12 12 62 21 112 34 187
58 295 69 304 6 5 23 11 38 13 27 3 27 5 -48 88 -91 102 -105 121 -113 163 -5
21 -18 39 -41 54 -88 55 -140 115 -140 161 0 30 12 28 32 -5 16 -25 17 -26 18
-7 0 11 -9 47 -20 79 -26 76 -26 78 15 54 20 -12 42 -18 54 -14 19 6 71 -34
71 -55 0 -5 25 -28 56 -51 52 -38 56 -44 51 -74 -5 -29 -2 -34 21 -40 52 -13
134 -60 154 -88 15 -21 23 -52 27 -111 l7 -81 17 60 c33 113 41 136 49 141 5
3 45 -30 88 -75 65 -65 80 -85 80 -111 0 -36 -18 -46 -101 -55 -31 -3 -64 -12
-74 -19 -15 -11 -13 -14 22 -24 22 -6 50 -23 64 -38 23 -25 24 -31 22 -147 -2
-67 -5 -152 -9 -189 l-6 -68 65 0 66 0 5 52 c3 29 10 123 16 208 6 85 15 158
19 163 4 4 31 -22 60 -58 29 -36 57 -68 62 -71 9 -5 40 27 119 126 l48 60 4
-57 c3 -32 6 -133 7 -226 1 -92 4 -174 7 -182 5 -11 23 -15 69 -15 l62 0 6
120 c4 83 11 127 21 142 11 15 13 34 9 64 -7 55 10 96 56 134 19 17 31 30 26
30 -17 0 -139 20 -157 26 -23 7 -23 43 0 69 29 35 123 105 133 99 5 -3 9 -13
9 -22 1 -9 14 -41 29 -71 l28 -55 8 78 c9 96 35 131 131 172 61 27 65 31 60
56 -4 22 0 31 23 47 15 11 47 45 70 75 23 30 59 67 79 83 l36 27 -23 -37 c-24
-40 -19 -46 17 -21 13 9 25 14 27 12 3 -2 -9 -32 -25 -66 -16 -34 -27 -62 -24
-62 3 0 20 11 38 25 39 30 56 32 56 6 0 -39 -22 -77 -78 -133 -48 -50 -53 -58
-34 -58 12 0 22 -4 22 -10 0 -10 -102 -131 -142 -168 -14 -12 -53 -37 -87 -56
l-63 -33 41 -7 c23 -3 41 -7 42 -9 0 -1 17 -103 37 -227 l37 -225 93 -3 c50
-1 92 -1 92 2 0 2 -20 86 -44 187 -25 101 -50 211 -57 245 l-12 60 96 135
c125 173 140 212 138 349 -1 58 -5 134 -9 170 l-7 65 37 28 c87 63 136 173
118 265 -11 61 -49 139 -80 167 -42 38 -62 76 -81 158 -43 180 -158 346 -287
415 -93 50 -261 63 -372 30 -68 -21 -217 -159 -283 -265 -15 -24 -31 -43 -35
-43 -4 0 -26 23 -47 52 -97 127 -247 262 -315 283 -46 14 -135 20 -215 14z
m-135 -143 c0 -3 -18 -26 -40 -51 -46 -53 -76 -108 -96 -174 -21 -73 -44 -218
-44 -282 0 -71 -15 -78 -25 -11 -30 195 2 339 97 448 40 46 108 89 108 70z
m1166 -61 c-38 -36 -66 -68 -63 -71 3 -3 50 13 104 36 99 43 153 54 160 34 2
-6 -30 -39 -72 -73 -41 -34 -75 -67 -75 -72 0 -16 38 -10 101 16 162 66 172
43 48 -113 -23 -29 -40 -54 -37 -57 2 -2 35 16 72 41 44 29 72 42 78 36 17
-17 -3 -81 -49 -152 -25 -39 -43 -73 -41 -75 2 -3 20 6 38 20 43 32 54 32 45
-2 -9 -37 -32 -64 -106 -125 -35 -28 -119 -105 -186 -170 -124 -119 -229 -198
-266 -198 -18 0 -19 5 -15 63 3 38 18 91 37 137 41 95 41 135 1 254 l-31 95
59 88 c66 98 82 126 82 144 0 20 -56 -38 -131 -137 -38 -49 -69 -100 -69 -112
0 -13 16 -64 35 -113 19 -50 35 -97 35 -105 0 -12 -55 -130 -66 -143 -2 -2
-24 9 -49 23 -25 15 -45 24 -45 22 0 -3 15 -26 33 -50 35 -45 87 -162 87 -195
0 -27 -26 -31 -195 -30 l-150 0 -45 39 -45 39 -4 143 -4 143 -26 -110 c-19
-77 -31 -111 -42 -113 -34 -6 -309 263 -294 288 3 6 29 22 57 36 l51 26 26
-34 c14 -18 38 -46 54 -63 26 -29 27 -29 18 -5 -5 14 -19 47 -30 73 -12 27
-18 53 -15 58 3 5 45 30 94 54 132 66 129 78 -13 51 -41 -8 -101 -28 -133 -44
-91 -45 -172 -75 -183 -68 -27 17 -62 226 -43 254 7 10 30 5 107 -23 53 -19
102 -35 108 -35 15 0 -27 43 -100 103 -35 28 -63 56 -63 62 0 34 160 145 209
145 20 0 31 -25 31 -77 0 -18 4 -33 8 -33 4 0 30 23 57 50 55 55 70 60 109 29
52 -41 51 -54 -7 -87 -29 -16 -59 -37 -66 -46 -17 -20 -8 -20 108 -4 l85 12
51 -57 c79 -87 82 -94 63 -185 -18 -84 -10 -83 34 3 37 71 142 218 203 284 96
102 169 138 285 140 l54 1 -68 -65z m-1466 -485 c0 -5 -11 -43 -25 -85 -19
-60 -22 -81 -14 -103 14 -36 55 -89 79 -102 26 -14 71 9 101 52 12 18 24 35
26 38 7 8 23 -24 23 -47 0 -30 -46 -79 -91 -98 -35 -13 -40 -13 -80 8 -59 32
-97 82 -111 149 -13 63 -6 91 43 158 28 38 49 51 49 30z m2044 -35 c45 -91 39
-176 -20 -262 -46 -68 -79 -81 -140 -58 -57 22 -92 53 -96 85 -5 37 26 37 63
1 58 -58 103 -51 138 23 24 48 28 98 16 195 -7 52 -6 63 6 59 8 -2 23 -22 33
-43z m-1801 -66 c72 -37 189 -143 240 -219 9 -13 17 -42 17 -63 0 -51 -26 -47
-55 8 -28 57 -163 188 -222 218 l-49 25 -32 -20 c-53 -33 -72 -1 -26 46 33 32
70 34 127 5z m1630 -11 c24 -22 45 -78 30 -78 -5 0 -21 9 -38 20 -16 11 -39
20 -51 20 -46 0 -191 -120 -267 -222 -30 -41 -44 -47 -54 -22 -26 68 230 304
329 304 15 0 38 -10 51 -22z m-1500 -295 c25 -39 74 -87 162 -158 27 -22 63
-52 79 -67 l31 -27 -30 -1 c-43 0 -124 50 -205 126 -68 65 -97 115 -83 150 8
23 21 16 46 -23z m1297 5 c0 -27 -13 -45 -77 -108 -85 -82 -194 -160 -225
-160 -39 0 -16 42 47 85 33 22 98 79 145 126 47 47 91 87 98 88 7 0 12 -11 12
-31z m-1419 -57 c42 -42 69 -77 69 -90 0 -20 -2 -21 -27 -7 -43 22 -143 133
-143 158 0 24 40 0 101 -61z m1582 29 c-7 -27 -128 -138 -159 -146 -40 -10
-39 2 5 53 82 93 167 145 154 93z m-1098 -79 c62 -36 173 -144 181 -178 4 -13
2 -29 -5 -36 -8 -8 -30 9 -83 65 -79 83 -127 112 -201 123 -51 8 -63 29 -24
45 40 16 81 10 132 -19z m676 13 c10 -13 10 -17 -2 -25 -8 -5 -24 -9 -37 -9
-36 0 -74 -24 -189 -120 -90 -75 -109 -87 -114 -73 -9 26 2 42 80 116 118 111
224 156 262 111z m-341 -84 c0 -18 -42 -31 -93 -29 -57 2 -87 16 -65 30 18 12
158 11 158 -1z m430 -114 c0 -28 -171 -185 -222 -205 -38 -14 -46 4 -17 36 34
36 218 183 229 183 6 0 10 -6 10 -14z m-684 -46 c12 -23 29 -47 39 -53 9 -5
81 -12 159 -14 l142 -6 14 32 c17 43 49 82 61 76 16 -10 10 -69 -11 -103 -25
-40 -44 -48 -144 -56 -120 -11 -232 2 -265 30 -31 25 -56 94 -46 125 9 29 26
19 51 -31z m-283 29 c27 -14 211 -168 215 -180 8 -19 -46 -7 -94 20 -54 31
-154 133 -154 157 0 17 5 17 33 3z m464 -16 c-4 -3 -7 0 -7 7 0 7 3 10 7 7 3
-4 3 -10 0 -14z m-58 -359 c31 -26 37 -50 22 -89 -7 -18 -11 -15 -30 23 -49
96 -47 113 8 66z"/>
<path d="M770 1900 c0 -5 5 -10 10 -10 6 0 10 5 10 10 0 6 -4 10 -10 10 -5 0
-10 -4 -10 -10z"/>
<path d="M1689 1782 c-91 -94 -93 -97 -99 -168 -3 -35 -5 -64 -4 -64 4 0 140
223 158 258 10 19 16 36 14 38 -2 2 -33 -27 -69 -64z"/>
<path d="M575 1790 c28 -12 37 -12 30 0 -3 6 -16 10 -28 9 -21 0 -21 -1 -2 -9z"/>
<path d="M433 903 c4 -3 10 -3 14 0 3 4 0 7 -7 7 -7 0 -10 -3 -7 -7z"/>
<path d="M1664 298 c11 -247 19 -300 45 -284 14 9 14 114 0 269 -10 124 -21
167 -40 167 -9 0 -10 -39 -5 -152z"/>
<path d="M802 335 c-13 -66 -42 -278 -42 -307 0 -14 8 -18 42 -18 l41 0 -6
162 c-4 90 -11 176 -15 193 -8 28 -9 26 -20 -30z"/>
<path d="M713 289 c-19 -54 -53 -247 -47 -264 9 -21 41 -19 54 5 6 12 9 73 8
156 -3 121 -4 133 -15 103z"/>
<path d="M1565 250 c-3 -5 -9 -60 -12 -120 l-6 -109 26 -6 c51 -13 53 0 21
164 -15 81 -18 88 -29 71z"/>
</g>
</svg>
