<?xml version="1.0" standalone="no"?>
<!DOCTYPE svg PUBLIC "-//W3C//DTD SVG 20010904//EN"
 "http://www.w3.org/TR/2001/REC-SVG-20010904/DTD/svg10.dtd">
<svg version="1.0" xmlns="http://www.w3.org/2000/svg"
 width="300.000000pt" height="256.000000pt" viewBox="0 0 300.000000 256.000000"
 preserveAspectRatio="xMidYMid meet">
<metadata>
Created by potrace 1.10, written by Peter Selinger 2001-2011
</metadata>
<g transform="translate(0.000000,256.000000) scale(0.100000,-0.100000)"
fill="#000000" stroke="none">
<path d="M948 2485 c-326 -201 -455 -377 -512 -695 -12 -63 -29 -112 -68 -188
l-52 -104 24 -19 c14 -10 37 -23 51 -29 25 -11 26 -16 32 -109 3 -53 11 -109
16 -125 15 -39 14 -120 -5 -233 -18 -117 -16 -126 31 -117 l35 6 -6 -88 c-6
-80 -4 -97 21 -167 15 -43 25 -80 23 -82 -1 -1 -28 -15 -58 -30 -156 -78 -263
-172 -359 -315 -61 -92 -88 -146 -77 -158 4 -4 59 -9 121 -10 l113 -4 27 84
c27 86 85 221 92 215 2 -3 -10 -44 -26 -93 -16 -49 -32 -116 -36 -148 l-7 -59
269 6 c270 6 339 14 521 57 50 12 98 20 105 17 6 -2 -13 -16 -43 -32 -47 -24
-52 -29 -35 -36 24 -9 161 -10 194 0 19 5 30 24 55 96 50 139 120 265 188 340
64 69 109 99 171 110 53 10 47 -8 -16 -43 -117 -66 -232 -226 -301 -421 -21
-59 -24 -76 -14 -83 18 -11 165 -10 172 1 3 5 -20 15 -52 22 l-57 14 2 40 c4
71 87 219 170 304 40 41 76 72 80 68 4 -4 -12 -27 -35 -50 -23 -24 -42 -46
-42 -50 0 -5 29 12 64 38 71 50 170 98 195 93 11 -3 4 -12 -24 -30 -22 -14
-47 -33 -55 -44 -14 -16 -13 -17 5 -10 48 18 124 19 174 0 28 -10 51 -21 51
-26 0 -4 -26 -25 -57 -46 -60 -41 -223 -203 -223 -222 0 -6 33 18 73 52 39 35
86 73 103 85 31 22 167 93 179 93 15 0 -11 -23 -74 -63 -122 -80 -271 -240
-246 -265 3 -4 136 -8 293 -10 343 -4 334 -6 309 84 -8 33 -19 79 -22 104 -10
62 -34 105 -98 176 -71 77 -165 142 -347 239 -156 82 -191 105 -258 169 -73
69 -86 103 -90 244 -5 142 7 201 47 252 41 52 43 68 16 145 -15 42 -29 114
-36 180 -25 265 -65 411 -142 527 -53 79 -152 175 -294 285 -67 52 -125 98
-128 103 -12 19 -41 9 -127 -45z m173 -52 c35 -32 94 -81 130 -110 46 -37 75
-69 97 -110 42 -79 73 -209 78 -323 l4 -95 -25 112 c-23 109 -92 281 -102 256
-2 -7 7 -58 21 -115 40 -159 56 -307 36 -338 -14 -23 -20 -9 -41 106 -23 131
-46 214 -59 214 -5 0 -7 -12 -5 -27 10 -63 26 -275 21 -281 -6 -5 -83 7 -314
50 l-114 21 7 94 c4 53 4 93 -2 93 -4 0 -21 -35 -37 -77 -32 -86 -43 -106 -58
-97 -27 17 27 228 88 344 19 36 67 103 106 149 123 141 131 151 116 151 -21 0
-138 -98 -191 -160 -66 -77 -100 -138 -136 -246 -29 -87 -62 -287 -49 -300 4
-3 55 -10 115 -15 238 -20 534 -92 701 -171 83 -39 79 -54 -5 -22 -229 87
-714 189 -803 169 -67 -15 -23 -42 92 -56 114 -14 414 -74 521 -105 99 -28
269 -104 249 -111 -7 -3 -51 9 -98 26 -317 115 -780 182 -952 137 -108 -27
-111 -14 -7 23 105 39 106 40 139 239 34 206 80 315 189 453 46 57 189 179
210 179 7 0 42 -26 78 -57z m-477 -318 c-9 -14 -18 -25 -21 -25 -5 0 5 18 20
38 17 22 18 13 1 -13z m-47 -122 c-4 -3 -7 0 -7 7 0 7 3 10 7 7 3 -4 3 -10 0
-14z m909 -30 c-11 -11 -19 6 -11 24 8 17 8 17 12 0 3 -10 2 -21 -1 -24z
m-945 -160 c-9 -16 -10 -15 -11 9 0 14 3 35 8 45 6 15 8 14 10 -9 2 -15 -1
-35 -7 -45z m979 -20 c0 -7 -4 -13 -10 -13 -5 0 -10 12 -10 28 0 21 2 24 10
12 5 -8 10 -21 10 -27z m-985 -82 c-12 -12 -65 -25 -65 -17 0 8 39 24 60 25 9
1 10 -2 5 -8z m43 -188 c2 -8 -6 -13 -21 -13 -32 0 -57 9 -57 22 0 14 73 5 78
-9z m89 -69 c3 -33 1 -83 -5 -112 -5 -29 -6 -55 -2 -57 4 -3 21 20 36 51 l29
55 67 -6 c77 -8 124 4 157 39 19 20 21 28 12 45 -12 22 -42 29 -131 34 -54 2
-54 2 -28 16 22 11 46 12 131 3 116 -13 137 -18 137 -37 0 -8 19 -26 43 -42
33 -22 43 -36 45 -61 5 -50 -23 -133 -68 -199 -22 -34 -40 -63 -40 -67 0 -3
12 -3 26 0 l26 7 -7 -69 c-7 -69 -25 -113 -25 -62 0 15 -3 34 -6 43 -12 29
-24 -5 -24 -67 0 -79 -15 -80 -28 -2 -19 118 -41 94 -43 -46 -1 -128 -17 -172
-60 -174 -17 -1 -25 -8 -27 -25 -4 -28 -30 -71 -43 -71 -5 0 -9 24 -9 53 l0
52 -35 -61 c-19 -34 -42 -67 -51 -75 -16 -13 -16 -10 -10 36 9 58 7 57 -35
-16 l-30 -54 6 57 c4 32 4 58 1 58 -3 0 -19 -26 -35 -57 l-29 -58 -7 55 c-8
71 -3 170 10 173 6 1 11 -13 13 -30 3 -33 22 -47 22 -16 0 9 18 33 40 55 l41
38 -28 11 c-15 7 -52 14 -80 17 -53 4 -61 13 -43 42 13 21 105 17 155 -6 38
-18 40 -22 43 -68 l3 -48 24 22 c22 21 25 21 47 6 12 -9 35 -16 50 -16 37 0
43 27 28 127 -14 90 -19 102 -72 166 -24 29 -45 68 -54 99 -7 28 -20 58 -28
66 -12 12 -15 10 -21 -17 -9 -40 -23 -47 -114 -56 l-74 -7 6 63 c6 63 35 187
56 243 16 42 32 21 38 -50z m-172 -60 c21 -14 25 -24 24 -63 -3 -99 -27 -140
-48 -80 -11 32 -16 159 -6 159 3 0 17 -7 30 -16z m894 -46 c11 -23 18 -44 14
-47 -3 -4 -7 -1 -10 4 -13 35 -21 39 -41 22 -10 -9 -22 -14 -25 -10 -12 11 -8
23 8 23 8 0 17 11 21 25 3 14 7 25 9 25 2 0 12 -19 24 -42z m-127 -24 c-4 -75
-40 -257 -69 -348 -34 -110 -66 -169 -121 -228 -70 -75 -92 -79 -33 -7 87 108
132 231 171 467 27 168 29 174 43 169 8 -3 11 -22 9 -53z m202 -30 c8 -22 -4
-40 -15 -23 -11 18 -11 39 0 39 5 0 12 -7 15 -16z m-89 -92 c-9 -42 -40 -69
-60 -52 -22 18 -19 40 6 40 14 0 24 10 32 30 14 37 32 23 22 -18z m55 -35 c0
-13 6 -32 14 -43 14 -18 15 -18 25 6 9 22 10 23 10 4 1 -11 -5 -28 -12 -39
-13 -17 -15 -17 -30 5 -11 16 -21 20 -36 15 -26 -8 -26 4 -3 44 20 37 32 40
32 8z m-794 -62 c4 -8 12 -15 20 -15 8 0 14 7 14 15 0 21 13 19 35 -5 22 -24
35 -26 35 -4 0 11 5 14 18 9 9 -4 26 -10 37 -13 52 -13 85 -70 84 -144 l0 -53
-22 30 c-44 60 -76 83 -141 100 -85 23 -133 16 -196 -29 -28 -20 -52 -36 -55
-36 -10 0 -4 42 10 70 18 35 52 60 71 53 7 -3 26 4 41 16 34 25 42 26 49 6z
m718 -90 c9 -47 25 -53 39 -16 14 39 21 39 37 2 12 -31 42 -50 48 -32 2 6 8
11 13 11 15 0 10 -26 -7 -41 -14 -11 -21 -10 -46 4 -24 14 -34 15 -45 6 -11
-10 -18 -8 -33 8 -12 14 -27 19 -44 16 -31 -6 -34 7 -6 25 11 7 20 21 20 32 0
33 17 23 24 -15z m-11 -172 c25 -31 33 -29 46 9 l12 33 26 -33 c15 -20 31 -31
39 -28 12 5 12 2 3 -16 l-12 -22 -22 28 c-23 28 -23 29 -34 7 -14 -25 -38 -27
-68 -6 -19 14 -22 13 -33 -16 -11 -26 -17 -30 -39 -26 -15 3 -33 -1 -43 -10
-9 -8 -22 -12 -28 -8 -8 5 -3 15 16 30 21 17 33 20 42 13 18 -15 40 7 48 48 7
37 16 36 47 -3z m-785 -101 c2 -34 -1 -62 -6 -62 -15 0 -22 27 -22 82 0 75 24
58 28 -20z m919 -22 c6 0 18 10 27 23 l16 22 -2 -30 c-3 -29 -5 -30 -51 -30
-36 0 -52 -5 -62 -19 -11 -15 -22 -17 -53 -12 -35 5 -40 3 -45 -15 -6 -22 -25
-23 -69 -4 -12 5 -21 -2 -33 -25 -14 -28 -21 -31 -45 -27 -20 4 -33 1 -45 -13
-22 -24 -38 -25 -55 -5 -11 13 -9 15 13 15 25 0 37 16 37 51 0 18 3 17 24 -8
20 -23 28 -26 43 -17 10 6 19 25 21 43 l3 31 30 -21 c34 -24 54 -20 71 16 13
29 21 31 38 10 22 -27 50 -18 66 21 l15 36 23 -21 c12 -11 27 -21 33 -21z
m173 -45 c-7 -8 -21 -15 -31 -15 -10 0 -25 -13 -33 -29 -17 -31 -38 -44 -61
-35 -23 9 -18 24 8 24 13 0 33 14 49 34 15 19 38 36 50 38 30 5 33 2 18 -17z
m-190 -68 c0 -7 -9 -23 -21 -36 -16 -17 -28 -21 -49 -16 -22 5 -31 2 -39 -13
-14 -26 -40 -35 -57 -21 -16 13 -19 33 -4 24 17 -10 60 23 60 45 0 24 4 25 36
3 24 -15 26 -15 47 5 25 26 27 26 27 9z m-471 -53 c-15 -18 -51 -15 -57 6 -5
13 -3 13 13 0 16 -13 19 -12 33 9 9 13 18 19 20 12 2 -6 -2 -18 -9 -27z m271
0 c0 -33 -27 -84 -45 -84 -8 0 -27 11 -42 24 l-28 24 -15 -46 c-18 -55 -41
-64 -77 -31 l-24 24 -19 -25 c-11 -14 -20 -28 -20 -31 0 -19 -33 -15 -59 6
-36 31 -34 31 -65 0 -30 -30 -62 -32 -69 -5 -4 17 -1 19 19 14 28 -7 52 9 66
46 l10 25 30 -37 c16 -21 36 -38 42 -38 7 0 21 18 31 40 10 22 20 40 23 40 3
0 19 -12 34 -27 35 -33 59 -24 69 26 9 45 15 48 50 22 39 -29 59 -21 59 22 0
19 3 37 6 40 12 11 24 -4 24 -29z m260 -13 c0 -11 -28 -41 -38 -41 -4 0 -13 4
-21 9 -10 7 -7 12 15 24 35 18 44 20 44 8z m-745 -80 c-15 -29 -60 -71 -77
-71 -8 0 -29 42 -23 48 2 2 13 -3 25 -10 20 -12 25 -10 53 25 37 45 43 47 22
8z m645 -4 c-1 -38 -26 -61 -66 -60 -24 1 -37 -4 -41 -15 -12 -33 -36 -52 -68
-52 -19 0 -39 -8 -50 -20 -24 -26 -37 -25 -66 6 l-24 26 29 -8 c31 -8 46 6 46
44 0 27 5 27 37 2 44 -35 74 -24 88 33 7 25 11 27 36 22 24 -5 30 -2 44 25 17
33 35 32 35 -3z m-800 -83 c-16 -42 -12 -54 21 -61 22 -4 27 -8 17 -14 -29
-19 -54 -9 -71 29 -11 23 -13 38 -6 41 5 1 15 9 22 17 19 21 27 16 17 -12z
m82 -59 c5 -27 40 -30 63 -5 l19 21 12 -31 c7 -16 20 -30 28 -30 19 0 46 27
46 46 0 22 18 17 36 -11 22 -33 40 -32 59 5 18 34 22 35 49 15 26 -19 32 -19
56 5 22 22 25 15 11 -23 -13 -34 -47 -44 -73 -21 -19 18 -20 18 -40 -9 -24
-33 -67 -37 -75 -7 -7 27 -17 25 -33 -4 -19 -37 -42 -41 -65 -12 -19 24 -21
24 -47 8 -25 -15 -29 -15 -43 -1 -9 8 -18 33 -22 55 -6 40 11 40 19 -1z m-113
-99 c29 -20 71 -41 94 -47 55 -15 356 -5 457 16 150 30 133 3 -22 -36 -61 -15
-130 -22 -255 -26 -172 -6 -172 -6 -227 21 -52 25 -116 85 -116 107 0 11 -2
13 69 -35z"/>
<path d="M1146 1968 c17 -31 56 -79 61 -75 9 10 -38 87 -53 87 -9 0 -12 -5 -8
-12z"/>
<path d="M1120 1825 c13 -16 50 -21 50 -6 0 10 -24 21 -47 21 -13 0 -13 -3 -3
-15z"/>
<path d="M1125 1333 c-11 -21 -46 -66 -79 -101 -33 -34 -56 -65 -53 -68 12
-13 54 6 94 43 41 38 68 101 61 144 -2 16 -7 13 -23 -18z"/>
<path d="M2039 2461 c-6 -33 -20 -73 -30 -89 -15 -27 -25 -31 -76 -37 -32 -3
-64 -7 -72 -8 -9 -1 -29 -47 -52 -116 l-38 -113 22 -19 c12 -10 35 -29 51 -42
l29 -23 -46 -130 c-25 -71 -67 -187 -93 -257 l-48 -129 17 -48 c27 -75 22
-110 -20 -165 l-38 -48 -3 -149 c-4 -162 2 -218 22 -218 14 0 14 0 231 560
195 505 198 510 227 510 31 0 113 -41 162 -82 59 -49 76 -95 76 -216 0 -118
-15 -172 -85 -313 -25 -49 -40 -91 -35 -94 25 -16 182 48 277 113 74 50 191
167 249 248 64 89 141 257 169 368 25 98 49 346 38 398 l-5 28 -47 -39 c-122
-101 -248 -150 -412 -158 -127 -7 -229 9 -266 42 l-26 22 16 48 c21 61 21 84
-1 112 -27 34 -133 103 -158 103 -20 0 -24 -8 -35 -59z m71 -51 c0 -17 -31
-72 -37 -67 -8 8 17 77 28 77 5 0 9 -5 9 -10z m-229 -195 c-27 -62 -38 -51
-16 15 11 34 21 48 27 42 6 -6 3 -26 -11 -57z m287 -1 c150 -72 216 -87 357
-81 125 5 195 25 313 89 40 22 76 38 79 34 8 -7 -15 -188 -33 -261 -57 -231
-192 -439 -370 -575 -69 -52 -150 -97 -159 -89 -3 3 6 36 20 73 36 96 46 148
46 246 0 193 -72 276 -311 358 -148 52 -210 79 -210 92 0 24 63 161 78 170 26
16 68 4 190 -56z m-283 -397 c-49 -152 -113 -312 -122 -304 -7 8 42 166 90
287 41 105 64 117 32 17z"/>
<path d="M2056 2221 c-4 -5 -2 -21 4 -36 13 -34 13 -35 -6 -35 -11 0 -14 -6
-9 -21 6 -18 3 -20 -29 -17 -49 4 -47 -13 5 -40 68 -35 90 -28 113 37 l20 54
-37 33 c-38 35 -52 41 -61 25z"/>
<path d="M2166 2110 c-9 -22 -16 -46 -16 -54 0 -7 34 -30 75 -49 152 -74 214
-164 223 -325 3 -51 9 -95 15 -99 28 -17 182 209 226 332 37 104 66 203 60
209 -2 3 -40 -5 -84 -16 -53 -13 -114 -20 -180 -20 -86 -1 -113 3 -193 31 -51
17 -97 31 -101 31 -5 0 -16 -18 -25 -40z"/>
<path d="M1546 208 c-36 -51 -7 -108 54 -108 43 0 60 18 60 63 0 56 -84 89
-114 45z m81 -24 c3 -8 -2 -23 -11 -32 -15 -15 -17 -15 -32 0 -9 9 -14 24 -11
32 8 21 46 21 54 0z"/>
</g>
</svg>
