<?xml version="1.0" standalone="no"?>
<!DOCTYPE svg PUBLIC "-//W3C//DTD SVG 20010904//EN"
 "http://www.w3.org/TR/2001/REC-SVG-20010904/DTD/svg10.dtd">
<svg version="1.0" xmlns="http://www.w3.org/2000/svg"
 width="300.000000pt" height="312.000000pt" viewBox="0 0 300.000000 312.000000"
 preserveAspectRatio="xMidYMid meet">
<metadata>
Created by potrace 1.10, written by Peter Selinger 2001-2011
</metadata>
<g transform="translate(0.000000,312.000000) scale(0.100000,-0.100000)"
fill="#000000" stroke="none">
<path d="M1190 3070 c-219 -20 -389 -52 -602 -111 l-148 -41 0 -62 c0 -102 2
-99 -125 -140 -126 -40 -265 -101 -265 -115 0 -8 118 -107 169 -141 l22 -15
-56 -149 c-31 -82 -54 -150 -52 -153 3 -2 56 16 118 41 127 50 235 81 416 122
67 15 127 31 134 35 8 5 15 41 18 97 4 50 9 93 12 97 11 10 163 34 284 45 265
24 962 3 1051 -30 20 -8 23 -18 28 -97 4 -48 10 -95 15 -102 4 -8 36 -21 72
-28 223 -47 378 -92 511 -149 87 -37 98 -40 98 -23 0 6 -25 75 -56 152 -54
138 -55 142 -36 157 11 8 54 40 95 70 42 30 79 61 82 68 3 8 -10 19 -33 29
-65 28 -296 110 -328 117 -31 7 -31 7 -37 88 -4 44 -8 83 -10 85 -9 8 -254 75
-345 94 -209 43 -387 60 -667 64 -148 2 -313 0 -365 -5z m780 -86 c166 -24
306 -52 428 -86 l112 -30 -2 -162 -3 -161 -25 1 c-14 1 -69 13 -123 27 -205
56 -506 87 -827 87 -364 0 -684 -35 -906 -100 -73 -21 -101 -25 -106 -17 -4 7
-8 83 -8 169 l0 157 58 16 c218 64 441 104 637 115 203 12 640 2 765 -16z
m-1540 -407 c0 -111 11 -128 107 -162 43 -16 82 -31 86 -35 5 -4 -25 -15 -67
-24 -42 -10 -128 -35 -191 -56 -63 -21 -115 -35 -115 -31 0 5 11 33 24 63 57
129 54 141 -46 209 l-61 42 36 18 c20 11 76 32 124 48 65 22 89 27 95 18 4 -7
8 -47 8 -90z m2236 82 c37 -12 93 -32 122 -45 63 -28 63 -29 -29 -96 -32 -24
-59 -50 -59 -59 0 -8 16 -55 36 -103 19 -49 33 -90 31 -92 -2 -2 -46 11 -98
30 -52 18 -133 44 -181 56 -49 13 -88 27 -88 31 0 5 31 17 68 28 103 31 116
50 120 172 2 54 5 99 7 99 2 0 34 -9 71 -21z"/>
<path d="M1435 2429 c-95 -69 -186 -113 -324 -159 -145 -49 -256 -67 -491 -81
-102 -6 -186 -12 -187 -13 -5 -4 18 -608 27 -685 39 -342 181 -678 401 -946
148 -181 449 -428 620 -510 l37 -18 63 39 c35 21 105 67 154 102 483 346 749
773 819 1314 23 177 38 472 31 596 -7 106 -8 112 -28 112 -71 0 -362 22 -417
31 -205 34 -394 108 -545 213 -44 31 -82 56 -85 56 -3 -1 -36 -23 -75 -51z
m177 -109 c123 -72 223 -112 393 -155 141 -36 288 -55 420 -55 47 0 85 -3 85
-7 -6 -234 -23 -537 -35 -628 -55 -424 -218 -744 -538 -1052 -118 -113 -208
-184 -340 -267 l-89 -55 -71 47 c-504 328 -801 752 -891 1272 -24 136 -42 495
-30 600 l9 85 50 3 c122 6 294 24 364 38 207 41 415 123 530 209 19 14 36 25
38 25 2 0 49 -27 105 -60z"/>
<path d="M1415 2250 c-49 -27 -139 -68 -200 -91 -155 -58 -291 -85 -577 -114
l-58 -6 0 -188 c0 -235 13 -373 50 -528 105 -438 360 -793 774 -1078 l99 -69
51 27 c115 60 352 259 462 388 190 221 297 430 369 715 41 161 55 308 55 560
l0 172 -27 6 c-16 2 -68 8 -118 11 -257 19 -522 96 -706 206 -36 21 -69 39
-75 39 -5 -1 -49 -23 -99 -50z m223 -214 c39 0 72 -3 72 -7 0 -5 -18 -19 -40
-31 -22 -13 -40 -26 -40 -30 0 -4 12 -14 28 -22 37 -19 100 -86 81 -86 -8 0
-29 4 -47 9 -40 12 -40 5 -2 -41 43 -52 70 -116 70 -168 l0 -44 -27 43 -28 42
-6 -98 c-3 -54 -11 -111 -18 -128 -12 -29 -13 -29 -27 -11 -8 11 -14 30 -14
43 0 13 -7 40 -16 61 l-17 37 -8 -39 c-10 -40 -35 -82 -77 -128 -30 -33 -48
-35 -57 -8 -9 28 -26 25 -60 -10 -16 -16 -32 -30 -37 -30 -11 0 -10 88 1 128
5 17 7 32 4 32 -3 0 -37 -11 -75 -25 -108 -39 -123 -30 -67 38 37 45 84 76
154 102 103 38 143 89 129 169 l-7 41 -22 -51 c-25 -57 -54 -79 -155 -117 -36
-14 -73 -28 -82 -32 -15 -6 -18 -1 -18 32 0 36 3 40 43 58 28 14 43 27 45 43
5 33 -21 37 -82 12 -70 -30 -116 -22 -145 23 -11 17 -19 33 -17 34 1 2 20 -6
41 -17 40 -20 71 -25 99 -14 24 9 19 23 -11 35 l-27 10 21 21 c14 14 40 22 79
27 57 6 59 7 56 33 -3 24 2 28 70 51 55 19 84 24 118 19 25 -4 78 -6 118 -6z
m509 -147 c51 -24 99 -80 114 -130 9 -29 7 -50 -11 -115 -17 -61 -21 -94 -17
-147 6 -70 4 -73 -35 -39 -9 8 -20 27 -23 43 -7 31 -22 38 -31 14 -7 -18 -34
-20 -35 -2 -3 31 5 56 37 106 36 59 37 69 6 52 -12 -6 -32 -11 -47 -11 l-26 0
26 37 c41 62 31 119 -27 149 -80 41 -161 -30 -161 -142 0 -58 33 -133 118
-263 85 -131 102 -207 66 -288 -22 -48 -87 -99 -137 -109 -20 -4 -62 1 -100
10 -37 9 -68 15 -70 13 -2 -2 5 -35 15 -73 23 -81 54 -114 107 -114 40 0 41
-6 13 -54 -13 -22 -23 -64 -28 -113 -9 -89 -27 -133 -77 -192 -41 -48 -50 -50
-58 -16 -7 29 -18 31 -51 9 -22 -14 -24 -14 -34 5 -6 11 -11 27 -11 37 0 16
-1 16 -18 1 -25 -23 -32 -21 -32 7 0 42 43 66 116 66 l64 0 0 70 c0 67 -1 71
-26 80 -15 6 -47 11 -71 13 -36 2 -47 -2 -57 -18 -6 -11 -12 -22 -13 -24 -2
-2 -9 2 -17 8 -24 20 -45 99 -55 204 -6 72 -14 106 -28 125 -27 38 -109 91
-160 105 -49 13 -55 28 -16 46 38 17 18 31 -50 34 l-57 3 0 -38 c0 -21 -4 -38
-10 -38 -5 0 -26 14 -46 32 l-36 32 -65 -11 c-37 -7 -81 -22 -104 -37 -46 -31
-59 -32 -59 -7 0 24 -48 64 -70 58 -8 -3 -24 -8 -34 -13 -17 -7 -19 -4 -14 34
6 43 -2 52 -43 52 -10 0 -19 5 -19 10 0 9 48 43 75 54 6 2 1 10 -9 18 -10 8
-16 20 -12 26 15 25 51 10 105 -44 l56 -56 110 38 c60 21 130 46 154 56 52 22
60 17 72 -48 10 -54 33 -94 53 -94 8 0 28 11 44 25 17 14 35 25 41 25 6 0 28
-16 50 -35 l38 -35 6 36 c6 36 22 64 37 64 4 0 11 -17 15 -37 10 -54 100 -138
205 -191 131 -67 194 -65 249 4 44 56 22 133 -92 320 -31 50 -63 114 -73 143
-23 72 -16 157 18 209 52 77 165 105 255 61z m-1223 -22 c14 -14 29 -48 37
-81 15 -69 62 -127 131 -162 27 -14 52 -32 55 -40 7 -20 -24 -124 -38 -124 -5
0 -28 17 -52 39 -23 21 -64 52 -91 67 -40 24 -51 37 -65 79 -14 42 -20 50 -47
56 -68 13 -72 18 -39 44 l29 24 -22 24 c-25 26 -14 47 24 47 25 0 40 15 24 25
-17 11 -11 25 10 25 12 0 31 -11 44 -23z m510 -774 c38 -18 67 -64 59 -94 -3
-10 -21 -30 -40 -45 -31 -24 -35 -30 -30 -62 4 -19 13 -42 22 -52 23 -26 10
-45 -55 -79 -33 -18 -73 -43 -89 -57 l-30 -25 -21 21 c-27 27 -51 25 -80 -5
-34 -36 -48 -32 -52 17 -3 39 -6 43 -32 48 -34 6 -43 22 -21 40 19 16 19 30 0
30 -23 0 -18 19 10 32 30 13 72 -2 106 -38 25 -27 83 -33 112 -11 16 11 15 18
-24 95 -39 78 -43 82 -74 82 -19 0 -36 4 -39 8 -6 9 72 72 120 97 38 20 115
19 158 -2z"/>
<path d="M1396 1964 c-4 -9 -4 -19 -2 -22 10 -9 36 8 36 23 0 20 -26 19 -34
-1z"/>
</g>
</svg>
