<?xml version="1.0" standalone="no"?>
<!DOCTYPE svg PUBLIC "-//W3C//DTD SVG 20010904//EN"
 "http://www.w3.org/TR/2001/REC-SVG-20010904/DTD/svg10.dtd">
<svg version="1.0" xmlns="http://www.w3.org/2000/svg"
 width="300.000000pt" height="303.000000pt" viewBox="0 0 300.000000 303.000000"
 preserveAspectRatio="xMidYMid meet">
<metadata>
Created by potrace 1.10, written by Peter Selinger 2001-2011
</metadata>
<g transform="translate(0.000000,303.000000) scale(0.100000,-0.100000)"
fill="#000000" stroke="none">
<path d="M2762 2980 c-115 -41 -189 -97 -334 -255 -21 -22 -54 -56 -75 -76
-47 -46 -101 -134 -126 -207 -10 -31 -24 -114 -30 -187 l-11 -130 -25 57 c-14
32 -29 58 -32 58 -7 0 -33 -68 -49 -129 -6 -23 -14 -41 -16 -38 -3 3 -14 46
-24 97 -14 71 -18 116 -13 189 6 97 -17 333 -37 385 -19 50 -48 59 -233 68
-115 7 -194 6 -237 -1 -103 -16 -196 -21 -665 -31 -645 -15 -680 -20 -758
-114 -74 -89 -75 -97 -73 -401 2 -252 4 -273 24 -318 11 -26 26 -82 31 -125
22 -166 52 -538 60 -752 7 -155 14 -238 24 -265 8 -22 23 -103 32 -180 20
-171 40 -220 107 -277 63 -52 122 -68 254 -68 l101 0 27 -41 c43 -65 231 -175
349 -204 l28 -8 -3 59 -3 59 110 7 c77 4 128 13 170 29 67 25 66 25 -47 52
-76 18 -144 45 -135 53 9 9 197 23 471 34 144 6 278 13 298 16 l37 6 6 -49
c11 -80 15 -82 44 -23 22 46 34 59 74 78 41 19 47 26 47 53 0 16 -11 51 -25
77 -28 52 -31 112 -12 197 11 45 15 50 42 53 17 1 50 5 74 8 l43 6 -6 71 c-4
40 -14 104 -22 142 -22 108 -21 112 56 210 173 224 213 279 250 342 47 80 50
103 15 103 -14 0 -25 3 -25 6 0 3 20 31 44 62 45 59 139 220 151 260 8 26 -2
28 -50 8 -19 -8 -35 -13 -35 -10 0 3 18 28 39 57 22 29 55 85 75 126 43 90 84
257 68 273 -9 9 -17 7 -32 -7 -27 -25 -26 -3 3 43 29 46 71 149 93 228 9 34
18 119 21 202 l6 142 -44 -1 c-24 0 -68 -9 -97 -19z m-170 -290 c-83 -167
-152 -328 -126 -295 9 11 29 47 46 79 47 92 151 245 208 306 54 58 54 55 -31
-81 -52 -84 -170 -315 -229 -449 -92 -208 -225 -671 -270 -937 -30 -178 -32
-181 -74 -103 -21 38 -30 72 -36 138 -4 48 -5 102 -3 120 l5 33 16 -22 c9 -13
28 -46 44 -73 l28 -51 0 41 c0 23 -8 79 -17 125 -21 102 -26 481 -6 514 10 18
13 16 38 -25 14 -25 37 -63 50 -85 l24 -40 1 217 0 218 40 85 c23 47 45 85 49
85 11 0 21 -50 22 -114 l1 -51 8 45 c24 137 107 293 222 415 33 36 62 64 64
63 1 -2 -32 -73 -74 -158z m-724 53 c66 -8 66 -7 87 -195 8 -79 18 -151 21
-160 3 -10 2 -18 -1 -18 -13 0 -212 179 -300 271 -87 89 -89 93 -65 100 32 9
189 11 258 2z m-291 -94 c35 -38 116 -117 180 -177 208 -189 187 -161 211
-292 16 -84 92 -570 92 -586 0 -1 -8 0 -19 3 -14 4 -20 -3 -25 -29 -7 -29 -9
-31 -17 -13 -4 11 -29 161 -53 334 -25 173 -50 319 -57 325 -14 13 -17 42 50
-464 28 -212 59 -423 68 -468 21 -101 29 -84 -137 -307 l-115 -154 -60 -1
c-33 0 -280 -5 -549 -10 -269 -6 -491 -8 -493 -6 -9 9 -55 424 -164 1471 -16
160 -34 319 -39 355 -5 36 -10 68 -10 72 0 8 220 12 785 15 l290 2 62 -70z
m-1297 -23 c5 -13 12 -67 16 -120 6 -84 5 -96 -9 -96 -23 0 -27 11 -38 112 -6
51 -12 94 -14 96 -2 2 -22 -9 -44 -24 -23 -15 -45 -24 -49 -19 -9 9 55 63 82
68 41 8 47 7 56 -17z m2510 -3 c-34 -115 -109 -250 -211 -380 -57 -73 -54 -74
57 -22 75 35 88 36 78 7 -21 -70 -94 -181 -219 -332 -35 -44 -63 -81 -62 -82
2 -2 31 4 65 14 33 9 64 13 67 10 4 -3 -3 -23 -13 -45 -19 -35 -48 -72 -170
-213 l-44 -50 61 0 62 0 -40 -57 c-54 -81 -161 -217 -172 -221 -11 -4 -8 10
47 264 76 345 186 695 271 856 31 60 206 275 225 277 4 1 3 -11 -2 -26z
m-2396 -299 c10 -27 7 -89 -6 -102 -7 -7 -22 -12 -33 -12 -57 0 -129 -33 -177
-81 l-49 -49 -9 26 c-6 14 -10 43 -10 65 0 78 121 169 226 169 38 0 53 -4 58
-16z m-41 -219 c4 -8 18 -141 32 -297 15 -156 32 -332 39 -391 10 -89 9 -110
-2 -119 -28 -24 -41 14 -57 162 -31 279 -62 635 -58 648 7 17 40 15 46 -3z
m147 -904 c5 -11 10 -40 10 -65 0 -42 -2 -46 -27 -51 -93 -20 -166 -50 -207
-86 l-44 -39 -7 56 c-4 36 -2 66 5 85 30 72 242 151 270 100z m1576 -137 c8
-31 -2 -110 -22 -185 l-16 -56 -95 -7 c-52 -4 -97 -5 -100 -2 -11 11 199 276
219 276 4 0 11 -11 14 -26z m-1605 -179 c8 -92 5 -115 -16 -115 -6 0 -34 -11
-60 -25 -26 -14 -49 -24 -52 -22 -2 2 17 21 42 41 l45 37 -6 84 c-4 46 -4 91
0 101 6 16 8 16 23 2 10 -11 18 -46 24 -103z m1703 -21 c11 -29 6 -44 -14 -44
-11 0 -20 6 -20 14 0 21 11 46 20 46 4 0 11 -7 14 -16z m-167 -160 c11 -30
-16 -37 -159 -44 l-143 -7 132 -1 c139 -2 163 -6 163 -28 0 -24 -34 -32 -178
-39 -78 -4 -145 -12 -148 -16 -3 -5 67 -9 157 -9 l161 0 -6 -37 c-11 -62 -16
-73 -34 -73 -9 0 -188 -7 -397 -15 -445 -17 -516 -18 -495 -5 9 5 110 13 225
19 116 6 282 16 370 21 88 5 187 10 220 10 43 1 54 4 40 10 -11 5 -213 6 -450
4 -269 -4 -435 -2 -444 4 -28 20 1 29 111 35 62 4 172 12 243 19 121 12 126
13 75 19 -30 4 -149 7 -263 8 -162 1 -208 4 -205 14 3 8 47 14 149 19 189 9
380 27 399 39 9 5 -49 7 -150 4 -91 -3 -324 -10 -519 -16 -195 -5 -358 -12
-362 -15 -4 -2 -10 0 -14 5 -3 6 8 17 24 26 33 17 413 39 916 54 489 14 575
13 582 -5z m-1414 -125 l21 -12 -23 -9 c-13 -5 -57 -11 -98 -15 -64 -5 -73 -4
-73 11 0 9 10 21 23 26 32 13 125 12 150 -1z m358 -132 c27 -86 70 -167 89
-167 13 0 44 -49 37 -57 -4 -3 -34 5 -67 17 -33 12 -63 20 -66 17 -3 -3 4 -19
16 -35 17 -22 21 -38 16 -57 -6 -23 -11 -26 -34 -20 -51 12 -110 46 -155 88
-38 36 -47 53 -65 122 -12 44 -25 101 -28 127 -8 56 -6 56 135 54 l95 -1 27
-88z m-348 56 c4 -3 2 -12 -4 -20 -16 -19 -179 -19 -179 0 0 8 3 17 7 20 8 9
168 9 176 0z"/>
<path d="M2440 2340 c0 -7 3 -10 7 -7 3 4 3 10 0 14 -4 3 -7 0 -7 -7z"/>
<path d="M1788 2669 c-25 -14 -23 -56 3 -69 50 -27 95 10 66 54 -18 27 -40 32
-69 15z"/>
<path d="M683 2651 c-258 -11 -161 -21 193 -21 386 0 615 9 529 21 -58 8 -514
8 -722 0z"/>
<path d="M550 2422 c0 -35 11 -167 24 -295 14 -128 30 -284 36 -347 14 -139
88 -797 96 -858 13 -87 21 -24 12 98 -12 178 -100 1055 -133 1324 -17 136 -35
176 -35 78z"/>
<path d="M753 2443 c4 -3 10 -3 14 0 3 4 0 7 -7 7 -7 0 -10 -3 -7 -7z"/>
<path d="M680 2374 c0 -46 11 -94 22 -94 10 0 0 86 -13 110 -6 11 -8 6 -9 -16z"/>
<path d="M1193 2328 c-82 -88 -393 -499 -393 -520 0 -33 490 -568 520 -568 19
0 60 48 226 265 127 166 194 263 194 283 0 17 -24 48 -219 272 -155 179 -271
300 -286 300 -6 0 -25 -15 -42 -32z m262 -305 c131 -151 195 -233 192 -244 -7
-27 -308 -419 -321 -419 -22 0 -388 394 -410 441 -7 15 -3 28 14 52 54 74 316
397 322 397 3 0 95 -102 203 -227z"/>
<path d="M1234 2153 c-39 -41 -132 -157 -199 -246 -50 -68 -57 -81 -47 -100
20 -42 314 -367 331 -367 14 0 79 79 166 201 101 141 102 145 84 174 -17 29
-274 338 -294 355 -11 9 -20 6 -41 -17z m-45 -165 c-30 -57 -101 -160 -106
-155 -6 7 48 107 84 155 28 37 42 37 22 0z"/>
<path d="M903 903 c-29 -2 -53 -8 -53 -13 0 -19 108 -23 447 -16 350 6 413 10
413 27 0 8 -693 10 -807 2z"/>
<path d="M1987 944 c-12 -12 -8 -64 6 -64 22 0 36 15 39 40 2 19 -2 26 -17 28
-12 2 -24 0 -28 -4z"/>
<path d="M2429 1181 c-45 -14 -68 -31 -84 -61 -25 -49 -19 -93 20 -144 49 -65
46 -86 -26 -161 -65 -68 -81 -119 -87 -277 -6 -164 -3 -172 91 -218 l64 -31
209 3 209 3 60 30 c83 42 87 52 81 215 -6 155 -15 192 -56 246 -17 22 -43 57
-60 78 -38 49 -39 88 -4 111 25 16 26 21 22 86 -5 84 -21 104 -97 119 -62 12
-304 12 -342 1z m297 -47 c57 -7 79 -24 71 -56 -11 -42 -55 -53 -214 -53 -132
0 -144 2 -164 21 -17 18 -19 25 -10 43 17 31 48 44 121 51 64 6 114 4 196 -6z
m-41 -223 c9 -16 -31 -31 -84 -31 -57 0 -105 15 -96 30 8 13 172 13 180 1z
m-185 -103 c0 -6 -10 -30 -21 -54 -36 -71 -31 -74 133 -74 200 0 204 -15 6
-24 -89 -4 -164 -9 -166 -11 -2 -2 -8 -54 -13 -117 -12 -143 -13 -148 -50
-148 l-29 0 0 157 0 158 37 53 c45 66 103 100 103 60z"/>
<path d="M2481 1097 c-47 -24 -27 -32 89 -35 163 -4 216 8 155 36 -35 16 -213
15 -244 -1z"/>
</g>
</svg>
