<?xml version="1.0" standalone="no"?>
<!DOCTYPE svg PUBLIC "-//W3C//DTD SVG 20010904//EN"
 "http://www.w3.org/TR/2001/REC-SVG-20010904/DTD/svg10.dtd">
<svg version="1.0" xmlns="http://www.w3.org/2000/svg"
 width="300.000000pt" height="283.000000pt" viewBox="0 0 300.000000 283.000000"
 preserveAspectRatio="xMidYMid meet">
<metadata>
Created by potrace 1.10, written by Peter Selinger 2001-2011
</metadata>
<g transform="translate(0.000000,283.000000) scale(0.100000,-0.100000)"
fill="#000000" stroke="none">
<path d="M905 2776 c-137 -32 -298 -114 -391 -199 -81 -74 -149 -175 -194
-287 -27 -68 -38 -84 -66 -97 -32 -16 -34 -15 -84 17 -28 18 -53 30 -56 28 -2
-3 1 -27 7 -54 11 -46 10 -53 -16 -103 l-28 -53 18 -53 18 -54 -37 -49 c-20
-27 -36 -52 -36 -55 0 -4 19 0 41 8 23 8 45 15 50 15 5 0 9 -27 9 -61 0 -33 7
-92 17 -132 13 -61 14 -84 5 -153 -16 -111 -15 -209 3 -243 18 -35 64 -53 116
-45 69 11 73 3 65 -176 -6 -147 -5 -160 19 -255 26 -97 26 -103 15 -213 -7
-62 -10 -128 -7 -148 8 -49 41 -89 88 -108 52 -21 222 -46 316 -46 101 0 160
14 303 75 248 106 362 147 373 136 22 -22 9 -81 -32 -149 -38 -62 -39 -67 -21
-70 11 -2 36 2 55 8 19 6 50 9 68 5 59 -11 198 -68 206 -84 4 -9 13 -42 20
-74 8 -35 17 -57 24 -54 7 2 24 26 40 54 25 48 32 53 100 78 39 15 105 42 146
60 73 33 74 33 117 17 24 -9 47 -13 51 -8 4 4 -3 36 -16 71 -21 59 -22 71 -12
134 6 38 11 73 11 76 0 4 25 33 57 66 48 50 53 59 34 59 -40 0 -91 28 -91 49
0 11 22 43 50 71 42 43 53 49 69 41 10 -6 69 -58 130 -116 115 -109 153 -135
194 -135 42 0 161 67 225 127 93 88 127 190 84 255 -9 14 -72 86 -139 158 -68
73 -123 140 -123 149 0 10 52 76 116 147 64 71 125 146 135 166 42 82 11 186
-88 290 -62 65 -155 118 -208 118 -42 0 -61 -14 -217 -167 -128 -125 -139
-133 -160 -122 -34 18 -122 104 -185 182 -65 79 -65 86 13 129 l49 27 -37 15
c-21 9 -42 16 -47 16 -26 0 -28 35 -5 95 27 72 23 100 -17 121 -35 17 -35 22
-8 69 12 20 18 39 15 43 -4 3 -33 -7 -64 -23 -31 -16 -60 -31 -63 -32 -4 -2
-39 37 -78 87 -39 49 -109 119 -154 155 -94 76 -268 166 -367 190 -92 23 -347
29 -425 11z m283 -67 c201 -22 359 -92 498 -222 90 -85 144 -161 126 -179 -6
-6 -66 -11 -144 -12 l-133 -1 -3 58 c-2 31 -5 57 -8 57 -3 0 -26 -22 -50 -49
-24 -27 -59 -56 -78 -65 -39 -19 -237 -49 -248 -38 -4 4 -8 47 -10 96 l-3 89
-45 -38 c-98 -82 -102 -84 -260 -95 -80 -6 -159 -13 -177 -16 -31 -6 -33 -4
-60 50 -15 31 -30 56 -34 56 -4 0 -15 -20 -24 -44 -10 -25 -27 -54 -39 -65
-26 -24 -103 -53 -111 -42 -3 5 13 44 35 88 45 91 129 188 209 242 180 123
324 156 559 130z m-192 -484 c41 -14 97 -36 124 -50 98 -50 404 -268 454 -324
30 -33 3 -25 -60 19 -188 130 -385 260 -424 280 -66 34 -171 67 -234 75 -31 4
-56 11 -56 16 0 19 122 9 196 -16z m-281 6 c-6 -4 -72 -25 -148 -45 -146 -39
-248 -76 -348 -127 -77 -38 -97 -33 -39 11 85 62 255 128 397 154 91 17 151
20 138 7z m1294 -5 c28 -18 -15 -26 -149 -25 -182 0 -246 13 -165 33 34 8 299
2 314 -8z m-469 -25 c0 -14 -24 -20 -138 -31 -78 -8 -116 -8 -137 0 -33 12
-24 26 20 33 59 8 255 7 255 -2z m-674 -76 c8 -10 14 -30 14 -44 0 -52 17 -57
39 -12 12 23 28 44 36 47 23 9 104 -23 193 -76 174 -103 208 -142 251 -286 11
-39 25 -101 30 -138 5 -37 18 -81 28 -99 41 -69 143 -96 227 -58 l39 17 -59
13 c-73 16 -109 35 -129 64 -17 27 -39 207 -27 219 6 6 36 -8 74 -35 36 -24
122 -72 193 -106 l127 -61 -7 -37 c-15 -82 -121 -313 -170 -371 -15 -18 -36
-32 -48 -32 -26 0 -77 48 -77 72 0 10 23 40 50 67 54 52 64 85 29 96 -41 13
-85 -5 -153 -63 -172 -145 -170 -144 -262 -118 -111 32 -201 28 -239 -10 -22
-22 -10 -34 33 -34 20 0 44 -5 52 -10 13 -8 12 -14 -5 -45 -34 -64 -68 -85
-143 -87 -95 -3 -152 1 -190 13 -30 10 -37 8 -61 -15 -27 -26 -28 -26 -46 -6
-28 31 -52 34 -82 10 l-26 -20 -22 20 c-24 23 -55 26 -73 8 -20 -20 -27 1 -40
106 -20 157 -26 166 -129 166 -58 0 -83 17 -83 57 0 14 10 73 22 130 l22 104
-23 79 -23 80 48 146 48 147 50 23 c48 21 75 28 103 25 7 0 19 -17 27 -36 19
-44 33 -44 51 -1 16 38 75 93 108 101 47 10 84 13 146 11 49 -2 67 -6 77 -21z
m1041 -7 c21 -17 33 -78 40 -204 6 -127 1 -174 -20 -174 -17 0 -247 117 -269
137 -20 18 -23 54 -8 84 10 18 7 19 -48 17 -54 -3 -63 0 -124 40 -86 56 -98
70 -66 76 106 23 260 40 290 33 13 -4 43 -31 67 -62 24 -30 48 -55 52 -55 5 0
9 30 9 66 l0 66 33 -7 c17 -4 38 -12 44 -17z m821 -232 c39 -20 140 -130 157
-170 22 -53 18 -87 -16 -142 -33 -52 -220 -244 -239 -244 -15 0 -280 262 -280
278 0 14 133 165 213 240 49 45 61 52 97 52 23 0 53 -6 68 -14z m-574 -204
c71 -73 71 -80 -13 -184 -73 -91 -116 -132 -130 -124 -13 9 -14 76 -1 131 11
49 41 75 86 75 24 0 34 5 34 15 0 8 -4 15 -9 15 -5 0 -23 13 -40 29 -25 23
-31 37 -31 68 0 69 14 66 104 -25z m-318 17 c29 -31 29 -31 4 -24 -28 8 -60
33 -60 47 0 18 28 6 56 -23z m521 -208 c66 -55 161 -153 187 -193 11 -17 16
-37 12 -52 -7 -28 -187 -216 -207 -216 -18 0 -259 242 -259 261 0 9 15 38 33
65 35 53 154 184 168 184 4 0 34 -22 66 -49z m-250 -333 c85 -83 173 -190 173
-211 0 -18 -108 -117 -129 -117 -20 0 -31 18 -31 52 0 18 -4 20 -41 14 -66
-11 -115 9 -180 73 -73 70 -74 88 -15 168 48 65 91 102 120 103 10 0 57 -37
103 -82z m587 -14 c33 -31 96 -95 139 -143 74 -81 78 -88 74 -124 -10 -77
-133 -199 -229 -225 -48 -13 -67 -1 -196 126 -109 108 -117 124 -83 175 21 32
219 247 228 247 3 0 33 -25 67 -56z m-1209 -301 c-17 -75 -45 -123 -73 -123
-9 0 -24 -5 -32 -10 -12 -9 -8 -16 24 -44 l39 -34 -14 -38 c-17 -44 -43 -60
-154 -95 -38 -12 -118 -43 -176 -69 -196 -88 -220 -94 -382 -87 -223 9 -283
36 -281 126 0 42 28 146 43 163 3 4 39 0 80 -8 52 -11 81 -12 101 -6 21 8 35
6 56 -4 18 -10 37 -12 54 -7 14 4 45 8 70 9 63 3 136 18 154 33 23 19 69 10
81 -16 13 -32 31 -29 81 12 72 60 113 176 114 325 0 30 3 65 6 78 10 35 44 24
70 -22 36 -64 46 -64 101 0 l48 55 3 -83 c2 -50 -3 -111 -13 -155z m-385 98
c0 -35 -9 -61 -21 -61 -10 0 -12 50 -3 74 10 26 24 18 24 -13z m-672 -10 c5
-29 -6 -71 -17 -71 -15 0 -22 31 -15 67 7 37 27 40 32 4z m85 -11 c11 -44 -6
-88 -28 -70 -15 13 -21 90 -8 104 13 13 27 -1 36 -34z m112 0 c8 -16 15 -43
15 -60 0 -28 -3 -31 -27 -28 -24 3 -28 8 -31 40 -3 33 11 78 23 78 3 0 11 -13
20 -30z m144 -34 c17 -53 8 -81 -25 -81 -16 0 -20 9 -22 54 -5 95 21 110 47
27z m127 20 c9 -38 1 -70 -20 -74 -24 -5 -37 16 -29 48 12 51 39 65 49 26z
m102 -2 c4 -28 -16 -77 -28 -69 -11 7 -13 55 -4 80 8 21 28 14 32 -11z m783
16 c10 -6 25 -26 33 -44 15 -36 41 -46 125 -46 73 0 90 -8 97 -45 4 -24 13
-35 29 -39 36 -9 50 -103 19 -137 -18 -20 -11 -39 15 -39 33 0 40 -21 29 -80
-11 -62 -20 -77 -51 -82 -17 -2 -21 -10 -22 -38 0 -28 -5 -36 -27 -44 -23 -8
-32 -6 -52 13 l-25 23 -19 -38 c-38 -74 -93 -98 -100 -44 -6 40 -19 44 -36 11
-19 -36 -25 -37 -90 -15 -45 16 -46 17 -32 38 40 55 41 55 -27 39 -138 -31
-162 -28 -117 12 25 23 25 46 -1 119 -29 84 -24 108 29 126 23 8 42 17 42 20
0 3 -16 15 -35 28 -37 24 -47 52 -17 52 28 0 99 80 106 120 7 39 61 100 89
100 10 0 27 -5 38 -10z m-785 -145 c8 -21 -15 -75 -32 -75 -17 0 -19 43 -4 71
13 23 28 25 36 4z m87 3 c2 -7 0 -24 -5 -37 -8 -22 -10 -23 -24 -9 -13 12 -14
20 -5 37 13 24 27 27 34 9z m-445 -7 c20 -12 12 -95 -10 -99 -12 -2 -20 8 -29
37 -17 58 0 87 39 62z m-174 -17 c7 -18 0 -34 -15 -34 -5 0 -9 11 -9 25 0 28
15 34 24 9z m74 -17 c2 -16 1 -36 -2 -44 -10 -26 -36 5 -36 44 0 27 4 34 18
31 10 -2 18 -14 20 -31z m347 12 c10 -32 -3 -69 -24 -69 -21 0 -36 40 -26 71
8 25 42 24 50 -2z m-121 -5 c20 -8 20 -33 0 -62 -20 -28 -28 -28 -42 3 -25 55
-8 78 42 59z"/>
<path d="M337 1870 c-9 -6 -28 -33 -42 -61 l-25 -49 20 -127 c26 -168 35 -199
62 -206 61 -16 112 40 202 220 70 142 81 194 34 164 -18 -11 -26 -9 -72 23
-56 39 -145 56 -179 36z"/>
<path d="M927 1869 c-53 -12 -94 -36 -111 -62 -19 -29 -29 -99 -21 -137 8 -37
16 -32 30 17 15 53 29 45 36 -19 10 -91 66 -171 141 -203 150 -62 323 57 303
210 -12 103 -82 176 -184 195 -63 12 -141 11 -194 -1z"/>
<path d="M566 1557 c-21 -22 -39 -57 -49 -94 -27 -95 -19 -253 12 -253 5 0 24
12 41 27 l32 27 50 -28 c80 -45 132 -15 107 62 -17 51 -138 286 -150 290 -5 2
-25 -12 -43 -31z"/>
<path d="M1100 1344 c-138 -38 -165 -53 -197 -110 -21 -37 -32 -114 -15 -114
4 0 22 28 41 61 41 70 66 88 179 124 46 15 95 38 110 51 15 13 23 23 17 23 -5
0 -66 -16 -135 -35z"/>
<path d="M2627 1813 c-4 -3 -7 -15 -7 -25 0 -28 34 -19 38 10 3 21 -16 31 -31
15z"/>
<path d="M2546 1715 c-8 -21 1 -35 20 -35 10 0 14 8 12 22 -4 27 -23 34 -32
13z"/>
<path d="M2714 1714 c3 -9 6 -18 6 -20 0 -12 29 -2 34 12 9 23 8 24 -20 24
-20 0 -25 -4 -20 -16z"/>
<path d="M2632 1648 c-16 -16 -15 -33 2 -47 12 -10 17 -8 25 7 14 26 -8 59
-27 40z"/>
<path d="M2790 1645 c-10 -12 -10 -19 -2 -27 13 -13 42 6 42 28 0 19 -24 18
-40 -1z"/>
<path d="M2461 1631 c-9 -17 -8 -22 10 -32 28 -14 49 3 33 28 -16 25 -31 27
-43 4z"/>
<path d="M2728 1559 c-21 -12 -24 -39 -4 -39 7 0 19 7 26 15 17 21 1 37 -22
24z"/>
<path d="M2543 1544 c-3 -8 1 -22 9 -30 13 -13 16 -13 27 0 7 9 11 23 7 31 -7
20 -35 19 -43 -1z"/>
<path d="M2614 1465 c-8 -20 4 -35 27 -35 20 0 23 8 13 34 -8 20 -33 21 -40 1z"/>
<path d="M2003 1134 c-7 -20 11 -38 32 -30 13 4 14 10 5 26 -13 24 -28 26 -37
4z"/>
<path d="M2085 1050 c-7 -12 12 -40 27 -40 16 0 21 32 7 41 -18 12 -26 11 -34
-1z"/>
<path d="M1914 1035 c-4 -9 -2 -21 3 -26 14 -14 45 1 41 20 -4 22 -37 26 -44
6z"/>
<path d="M2003 954 c-3 -8 1 -23 10 -32 15 -14 17 -14 23 1 8 21 -1 47 -16 47
-6 0 -13 -7 -17 -16z"/>
<path d="M2164 949 c-3 -6 -2 -15 4 -21 13 -13 32 -2 32 18 0 16 -26 19 -36 3z"/>
<path d="M2620 1090 c-13 -8 -13 -11 2 -27 14 -13 20 -15 30 -5 17 17 -11 45
-32 32z"/>
<path d="M2552 1011 c-15 -9 -5 -41 13 -41 8 0 17 5 21 11 9 15 -18 40 -34 30z"/>
<path d="M2724 997 c-8 -23 2 -47 20 -47 26 0 29 21 8 43 -19 19 -22 19 -28 4z"/>
<path d="M2470 910 c0 -19 20 -27 33 -13 8 7 -11 33 -24 33 -5 0 -9 -9 -9 -20z"/>
<path d="M2634 909 c-3 -6 0 -17 8 -25 13 -13 16 -13 27 0 7 8 10 20 6 26 -8
13 -32 13 -41 -1z"/>
<path d="M2804 889 c-8 -14 11 -33 25 -25 16 10 13 36 -3 36 -8 0 -18 -5 -22
-11z"/>
<path d="M2551 826 c-9 -10 -8 -16 4 -26 19 -16 41 1 32 24 -8 20 -21 20 -36
2z"/>
<path d="M2720 816 c-13 -17 -6 -36 15 -36 19 0 26 27 11 39 -10 8 -17 7 -26
-3z"/>
<path d="M2637 753 c-15 -15 -7 -43 13 -43 15 0 20 7 20 25 0 24 -18 34 -33
18z"/>
<path d="M1705 733 c3 -10 27 -48 53 -86 l46 -67 -52 -53 c-49 -50 -64 -77
-42 -77 5 0 35 21 67 47 l57 46 52 -58 c68 -75 89 -68 30 10 -25 33 -46 65
-46 71 0 7 16 24 35 38 45 35 71 74 58 87 -6 6 -30 -6 -68 -38 l-57 -47 -22
25 c-11 15 -38 47 -59 73 -38 46 -65 61 -52 29z"/>
</g>
</svg>
